<?xml version="1.0" encoding="utf-8"?>
<!-- Generator: Adobe Illustrator 25.3.1, SVG Export Plug-In . SVG Version: 6.00 Build 0)  -->
<svg version="1.1" id="Layer_1" xmlns="http://www.w3.org/2000/svg" xmlns:xlink="http://www.w3.org/1999/xlink" x="0px" y="0px"
	 viewBox="0 0 500 500" style="enable-background:new 0 0 500 500;" xml:space="preserve">
<style type="text/css">
	.st0{fill:#D1D3D4;}
	.st1{fill:#BCBEC0;}
	.st2{fill:#8DC63F;}
	.st3{fill:#1C75BC;}
	.st4{fill:#27AAE1;}
	.st5{fill:#939598;}
	.st6{fill:#A7A9AC;}
</style>
<g>
	<path class="st0" d="M124.07,222.88C106.68,238.14,97.38,260.72,85.1,281c-22.01,22.88-17.87,37.98-15.2,43.16
		c6.67,15.23,7.23,27.94,19.26,26.35c1.7-4.84,3.45-21.45,7.99-36.93c17.71-39.28,54.63-51.62,71.08-56.79
		c27.72-14.61,31.27-1.88,62.77-9.87c58.49-11.8,113.84-60.13,119.74-103.83c-3.79-18.07-4.38-29.5-16.88-35.05
		c-11.81-0.13-20.05,30.32-45.62,55.16c-29.52,11.14-29.35-2.35-66.49,8.98C179.43,183.76,139.25,204.12,124.07,222.88z"/>
</g>
<g>
	<path class="st1" d="M218.93,212.95c-26.81,20.27-37.05,47.14-49.58,59.88c-12.99,30.24-15.71,37.1-10.63,44.59
		c4.45,12.07,8.96,30.28,18.79,25.7c8.75-2.85,7.57-12.88,8.03-31.04c19.3-37.12,54.11-51.94,67.53-56.79
		c30.48-14.52,40.71-4.39,64.93-11.09c37.54-18.72,68.73-69.08,55.8-104.49c-14.47-18.86-42.28-31-38.16-31.32
		c-4.24,3.53,46.1,29.89,34.54,50.68c-4.43,8.78-25.02-3.73-54.92,10.77C263.71,174.58,232.14,203.89,218.93,212.95z"/>
</g>
<g>
	<path class="st2" d="M229.6,200.55c26.73,24.86,34.69,37.64,52.23,46.42c24.3,10.27,37.48,8.08,49.18,4.52
		c27.27-1.87,21.62-7.67,63.25-16.41c21.6-10.13,30.69-13.24,49.14-9.17c7.49,1.82,19.28,13.27,28.87,7.28
		c7.15,0.41,13.69-1.18,11.25-3.7c-3.65-2.54-4.7-10.14-9.25-13.91c-22.39-20.4-11.28-18.99-68.53-75.82
		c-5.35-3.41-15.63-10.25-8.24-10.31c-49.13-30.31-109.79,5.31-162.42,32.06c-4.05,3.92-16.4,5.03-19.08,14.49
		C220,183.44,224.88,190.59,229.6,200.55z"/>
</g>
<g>
	<path class="st3" d="M174.16,116.86c9.84-12.57,14.65-30.38,27.19-47.62c17.29-23.02,43.04-35.65,73.84-46.06
		c4.13,1.1-2.68-4.1,6.48-0.19c-0.88-5.44,9.03-7.23,15.78-2.07c-3.77-0.42-2.7,0.58-3.19,0.7c8.66-0.6,2.38-1.95,5.92-1.65
		C338.24,25.48,384.27,45,403.3,71.65c7.29,12.71,13.03,25.8,13.17,29.64c-2.05,15.37,13.12,45.7,4.26,49.4
		c-6.45,1.51-6.87,1.07-18.13,2.71c-1.91-3.58-17.04,0.02-54.25-1.14c-38.91,8.67-62.64,17.49-136.86,26.85
		c-14.4,2.73-26.73,5.2-34.77-4.37C167.51,160.5,178.07,124.05,174.16,116.86z"/>
</g>
<g>
	<path class="st4" d="M231.37,176.59c-0.77-15.3-10.87-18.37-5.63-76.67c4.14-35.91,7.51-54.02,18.07-61.61
		c12.98-15.18,35.74-12.36,34.75-14.92c0.66,3.42,0.21,3.59-10.07,8.6c-11.46,0.81-18.35,3.15-19.54,5.85
		c-12.55,8.17-13.56,25.11-17.08,39.93c-3.11,26.35-3.34,63.21,0.61,79.69c0.45,0.55,4.28,4.72,2.59,16.05
		c-0.28-0.33-0.61,1.62-2.06-1.01c0.27,4.48,1.6-0.03,0.97,1.14c0.2,0.61-0.95,5.56-1.62,1.86
		C231.94,176.69,231.63,175.48,231.37,176.59z"/>
</g>
<g>
	<path class="st4" d="M367.46,152.8c2.76-2.74,0.5-2.11,0.64-4.83c-1.61-7,1-63.23-29.17-99.71c-0.89-0.67-13.35-21.84-31.64-26.7
		c-0.48,1.25-4.16,1.39-3.3,1.64c-3.77,0.51-7.43-1.68-7.61,1.58c1.46,2.46,14.76,7.66,24.16,14.39
		c14.9,8.68,22.26,24.55,28.77,46.34c13.19,37.82,13.4,69.84,15.87,71.38C366.89,155.01,367.44,154.53,367.46,152.8z"/>
</g>
<g>
	<path class="st5" d="M308.11,336.9"/>
</g>
<g>
	<path class="st5" d="M16.45,439.46c10.68-12.05,20.01-33.23,29.8-61.1c1.98-33.98-1-56.67-2.89-68.44
		c16.07-3.7,31.4-4.73,39.87-6.01c18.62-1.84,40.11,4.37,41.93,4.96c-2.91,2.49-1.33,8.98-3.79,11.68
		c-2.65,28.46-0.93,45.34,4.28,65.29c5.23,24.22,15.49,47.01,20.15,56.23c4.42-0.34,2.32-3.7,5.1-2.09
		c-0.82,3.89-42.01,9.63-69.55,7.89C66.57,447.01,45.62,442.45,16.45,439.46z"/>
</g>
<g>
	<path class="st6" d="M89.43,475.71c12.51-20.08,37.1-50.94,45.22-94.82c2.98-45.88,0.46-83.64-9.6-105.85
		c31.81-3.08,54.81-4.41,63.97-6.21c25.35,2.31,59.6,7.84,56.37,10.09c5.06,7.57,3.24,14.23,2.42,23.8
		c-3.29,33.11-1.85,61.69,2.52,87.65c6.46,40.52,29.08,76.5,36.6,86.19c0.6-3.54-0.79-0.44,3.04-4.61
		c-6.29,9.37-63.43,10.71-103.22,7.67C167.07,480.45,129.91,480.6,89.43,475.71z"/>
</g>
</svg>
