<?xml version="1.0" encoding="utf-8"?>
<!-- Generator: Adobe Illustrator 25.3.1, SVG Export Plug-In . SVG Version: 6.00 Build 0)  -->
<svg version="1.1" id="Layer_1" xmlns="http://www.w3.org/2000/svg" xmlns:xlink="http://www.w3.org/1999/xlink" x="0px" y="0px"
	 viewBox="0 0 500 500" style="enable-background:new 0 0 500 500;" xml:space="preserve">
<style type="text/css">
	.st0{fill:#39B54A;}
	.st1{fill:#00A79D;}
	.st2{fill:#D7DF23;}
	.st3{fill:#009444;}
	.st4{fill:#1C75BC;}
</style>
<g>
	<g>
		<g>
			<path class="st0" d="M483,214c-1-2-3-1-4-1c-26,16-45,35-71,52c-27,17-52,30-81,41c-30,10-59,18-89,28c-16,6-32,13-47,22l-1,2
				c-19,11-34,24-49,40c-9,11-17,22-27,32c-1,0-3,2-4,1s0-1,1-1c0-2-2-3-3-5c0-1-1-2-1-3c-1-2-3-2-4-4c0-1,0-1,0-2
				c-9-11-18-21-26-33c-1,0-1-1-2-1c-13-19-28-34-43-51c-8-7-15-13-23-20c-1,1-2-1-2,1c2-1,3-3,4-4c46-70,108-117,184-142
				c12-4,24-8,37-11c13-4,26-9,39-14c14-6,26-12,39-21c11-8,20-16,30-25c7-7,13-15,20-23c0-1,0-2,0-2c10-10,15-23,21-35
				c-1,2,0,5,1,7c19,37,35,74,54,111c11,22,19,46,41,61C479,215,481,214,483,214L483,214z"/>
		</g>
		<g>
			<path class="st1" d="M383,84c-1,6-1,12-3,18c0,1,0,3,0,4s-2,3-2,4c-6,22-15,43-29,61c-1,1,0,2-1,3c-10,12-19,23-32,32
				c-1,1-1,2-2,3c-3,2-6,3-9,6c-2,1-5,3-8,3c-4-30-42-29-65-36c-20,6-39,16-52,33c-5,8-1,20,8,22c-32,6-56,29-76,54c-1,1,0,2-1,3
				c-9,8-13,19-18,29c-8,15-15,31-17,48c0-2-3,0-2-2c1,10,10,17,17,25c3,3,8,7,12,5c3-2,5-6,4-10c0,1,0,2-1,2c2-4,3-8,4-12
				c1-1,2-2,2-3c0-2,1-3,1-5c6-15,15-28,24-42c3-3,5-6,8-9c1-1,1-3,2-4s2-1,3-3c0,0,1-1,2-1c0-1,1-1,1-2c1,0,1-1,2-1c0-1,1-1,1-2
				c1,0,1-1,2-1c0-1,1-2,1-2c2-1,3-2,5-3c2-3,5-5,9-7c3-3,7-5,10-7c7,11,15,20,26,28c2,1,3,1,5,3c1,1,2,1,3,1c1,1,1,2,2,2
				c16,8,37,5,48-10c14,5,28-4,35-16c4-8,8-16,12-25c3-6,7-11,10-17c3-4,7-7,11-11c11-8,21-16,31-26c5-6,12-11,17-17
				c11-14,21-26,33-39c1-1,2,1,3,1c0,0,0,1,0,2c8-14,2-32-8-44c-1-2-1-3-2-5C401,103,392,94,383,84L383,84z"/>
		</g>
		<g>
			<g>
				<path class="st2" d="M232,289c5-8,15-12,25-13c8,0,11-10,13-17c-4,6-10,11-17,11c-8,0-14,6-19,11C233,283,232,286,232,289
					L232,289z"/>
			</g>
			<g>
				<path class="st2" d="M232,218c5,3,11,4,15,10c3,4,3,9,6,13c5,6,12,9,19,7c-4-2-8-3-11-7c-5-7-4-17-13-20
					C243,219,237,220,232,218L232,218z"/>
			</g>
		</g>
		<g>
			<path class="st3" d="M259,237c-12,8-11,25-3,35c5,6,13,6,20,4c1,0,1-2,2-2c12-1,17-14,17-24c-1-4-1-8-3-11c-3-4-6-8-11-8
				C273,231,265,232,259,237L259,237z"/>
		</g>
		<g>
			<path class="st4" d="M221,208c-5,7-5,17,1,23c5,5,13,8,21,5c6-8,9-19,3-28C241,200,227,200,221,208L221,208z"/>
		</g>
		<g>
			<path class="st4" d="M216,279c-5,4-4,11-3,17c2,6,7,11,14,12s13-1,16-5c4-5,8-9,7-16c-2-7-5-14-13-15S221,273,216,279L216,279z"
				/>
		</g>
	</g>
</g>
<g>
	<g>
		<g>
			<path class="st0" d="M225,351c-1-2,2-1,2-2c16-7,33-8,50-9c21-2,43-1,64,4c2,0,4,0,5,0c2,1,5,1,7,2c1,0,3,0,4,0c35,7,71,6,102-9
				c1,2,2,4,2,7c4,31-1,61-2,92c0,0-1,0-2,0c-46,17-96,10-145,1c-31-6-61-6-90,3c-5-16-6-33-4-50C219,377,216,362,225,351L225,351z"
				/>
		</g>
		<g>
			<path class="st1" d="M219,407c9-1,18-3,28-5c8-2,15-1,23-2c10-1,21,1,31,2c1,1,3,2,4,4c7,10,13,20,24,25c7,3,16,5,24,2
				c12-5,21-14,32-21c-1,0-1,0-2,0c15,2,31,1,46,0c4-1,8-2,12-2c4-1,9-2,13-3c3-1,5-2,8-3c-4,1-6-3-7-6c-1-10,1-19,7-27
				c-8,6-18,8-28,11c-19,4-38,3-57,2c-1-16-15-29-31-32c-12,3-34,4-33,21c-13-5-28-3-42-3c-8,1-16,2-24,4c-10,3-20,5-28,12
				c2-2,6-3,6-1C228,392,224,401,219,407L219,407z"/>
		</g>
		<g>
			<g>
				<path class="st2" d="M361,384c-9,0-19-9-27-1c2,0,4,0,6,0C347,384,356,389,361,384L361,384z"/>
			</g>
			<g>
				<path class="st2" d="M335,411c-1-6-1-11-1-17c0-3-3-5-3-8c-1,0-2,0-2-1c1,5,1,11,1,16c0,4,0,8,5,11V411L335,411z"/>
			</g>
		</g>
		<g>
			<path class="st3" d="M333,395c7-1,13-7,11-14c-2-4-4-9-9-10c-8-1-17,6-16,14C319,391,326,396,333,395L333,395z"/>
		</g>
		<g>
			<path class="st4" d="M337,421c5-2,7-7,6-12c0-2-1-4-3-5c-5-2-11-1-13,4c-1,3-1,8,2,11C331,421,334,421,337,421L337,421z"/>
		</g>
		<g>
			<path class="st4" d="M363,394c4-3,11-6,9-12c-2-5-8-10-14-8c-3,1-6,4-6,7C351,387,356,393,363,394L363,394z"/>
		</g>
	</g>
</g>
</svg>
