<?xml version="1.0" encoding="utf-8"?>
<!-- Generator: Adobe Illustrator 25.3.1, SVG Export Plug-In . SVG Version: 6.00 Build 0)  -->
<svg version="1.1" id="Layer_1" xmlns="http://www.w3.org/2000/svg" xmlns:xlink="http://www.w3.org/1999/xlink" x="0px" y="0px"
	 viewBox="0 0 500 500" style="enable-background:new 0 0 500 500;" xml:space="preserve">
<style type="text/css">
	.st0{fill:#47C4D7;}
	.st1{fill:#5C9541;}
</style>
<path class="st0" d="M176.45,274.58c9.14-8.83,11.84-20.31,12.73-24.11c2.04-8.68-0.25-9.04,2.03-23.34c0,0,1.67-10.46,6.63-18.56
	c0.25-0.4,0.49-0.79,0.49-0.79c0.71-1.11,1.12-1.64,1.11-1.65c-0.06-0.05-11.68,8.74-15.75,21.29c-1.5,4.61-2.47,11.24-7.37,18.7
	c-0.61,0.93-1.27,1.86-1.79,1.8c-1.91-0.2-0.75-13.84,3.33-26.91c2.87-9.18,7.3-18.49,8.9-21.85c2.56-5.37,6.44-12.89,6.45-19.2
	c0-0.59-0.02-6.65-0.02-6.65l0,0c0,0-3.63,9.87-5.96,15c-4.03,8.89-6.57,8.91-16.06,22.64c-8.34,12.06-12.51,18.09-13.2,23.52
	c-0.66,5.22-2.49,10.43-3.67,15.66c-0.14,0.6-0.42,1.86-0.76,1.92c-0.91,0.16-1.64-8.43-1.64-13.41c0-19.58,11.27-32.07,11.02-46.73
	c-0.08-4.57-0.18-10.42-2.78-13.39c-0.33-0.37-1.6-1.74-2.25-4.05c-0.62-2.21-0.3-4.02-0.21-4.51c0.28-1.41,0.8-2.41,0.77-2.41
	c-0.07-0.02-2.82,5.43-4.49,10.26c-2.41,6.99-1.52,9.67-2.45,19.82c-1,10.96-3.09,19.18-5.88,30.17c-1.97,7.77-2.71,9.18-2.89,9.17
	c-0.79-0.04,7.72-26.14,1.68-35.06c-0.85-1.25-4.81-6.34-4.22-11.55c0.06-0.5,0.27-2.05-0.04-2.09c-0.5-0.06-1.95,3.6-2.41,4.75
	c-3.51,8.81-3.29,20.54-5.11,28.94c-1.34,6.2-5.83,13.38-14.82,27.74c-9.58,15.31-12.01,15.98-12.02,19.87
	c-0.02,13.07,27.37,21.1,50.68,15.24C168.92,281.67,175.12,275.87,176.45,274.58z"/>
<path class="st0" d="M202.83,181.29c-4.4-25.34,8.07-46.9,12.2-54.03c9.43-16.28,14.51-14.01,32.17-39.52
	c0,0,12.91-18.65,15.65-37.66c0.14-0.95,0.25-1.87,0.25-1.87c0.32-2.65,0.33-3.99,0.37-3.99c0.18,0,9.55,28.36-1.85,53.3
	c-4.18,9.16-12.55,20.88-14.42,38.8c-0.23,2.24-0.36,4.52,0.74,5.08c4.1,2.05,22.94-21.01,35.13-46.77
	c8.57-18.12,14.23-38.38,16.27-45.69c3.26-11.68,7.26-28.43,17.01-38.43C317.27,9.57,326.71,0,326.71,0l0,0
	c0,0-8.11,20.16-11.46,31.18c-5.81,19.1-0.82,22.27-3.33,55.84c-2.2,29.47-3.3,44.2-10.35,53.66c-6.77,9.09-11.25,19.63-17.01,29.37
	c-0.67,1.12-2.06,3.47-1.48,3.99c1.55,1.39,16.32-11.33,24.04-19.22c30.35-31.03,27.42-64.83,50.66-87.75
	c7.24-7.14,16.52-16.3,26.25-17.77c1.23-0.19,5.86-0.76,10.72-3.63c4.66-2.74,6.83-6,7.4-6.89c1.64-2.58,2.15-4.81,2.22-4.78
	c0.16,0.05-2.84,12.11-7.03,21.83c-6.06,14.08-11.99,17.21-25.88,34.45c-15.01,18.62-23.62,34.23-35.13,55.11
	c-8.14,14.77-8.88,17.91-8.5,18.13c1.62,0.92,25.25-51.03,51.03-57.65c3.61-0.93,19.36-4.08,26.25-13.05
	c0.66-0.86,2.64-3.59,3.33-3.26c1.08,0.52-1.72,8.13-2.59,10.52c-6.72,18.32-25.33,36.64-34.76,52.21
	c-6.96,11.5-9.2,28.45-13.68,62.37c-4.78,36.17-1.01,40.24-7.03,46.41c-20.21,20.74-86.85-0.56-123.87-38.8
	C206.75,201.88,203.47,184.98,202.83,181.29z"/>
<path class="st1" d="M363.23,186.53c0.95-15.84-14.88-39.41-33.9-41.67c-0.2-0.02-0.41-0.04-0.61-0.05
	c-6.3-14.33-20.76-27.23-42.59-26.55c-21.9,0.68-40.61,14.69-51.32,29.55c-6.79-2.47-17.89-1.34-22.99,7.12
	c-2.67,4.43-2.8,9.39-1.56,13.8c-2.06,1.81-3.88,3.89-5.39,6.26c-7.96,12.54-5.46,30.72,3.17,41.7c-3.37,5.51-5.15,11.89-3.94,18.49
	c2.72,14.82,18.83,21.27,21.6,22.38c1.34,0.54,4.95,1.98,9.73,2.64c-2.76,7.59-1.31,16.97,2.95,25.03
	c-6.69,13.9-11.44,26.88-20.45,27.24c-1.49,0.06-3.87-1.12-8.61-3.48c-13.54-6.73-24.07-16.2-35.82-25.53
	c1.74-5.08,2.48-10.32,2.39-15.03c2.67-2.02,4.91-4.54,6.42-7.24c3.5-6.28,4.58-16.44-1.4-22.39c-6.18-6.15-15.96-3.9-17.65-3.52
	c-0.81,0.19-3,0.69-5.5,1.95c-1.91-7.24-10.45-13.11-18.74-13.4c-10.68-0.37-20.88,8.55-20.52,15.85c0.08,1.59,0.67,3.17,1.64,4.68
	c-2.88,4.21-5.48,9.08-7.49,14.05c-7.43,4.37-12.93,13.79-9.9,22.39c2.64,7.48,10.59,11.05,18.29,11.17
	c0.75,0.19,1.53,0.34,2.32,0.46c4.14,10.49,22.17,20.07,37.86,8.45c1.8-1.34,3.41-2.84,4.86-4.47c9.81,9.24,19.08,19.35,29.58,27.48
	c3.67,2.84,6.96,6.38,9.91,10.47c-3.78,2.64-7.03,7.29-6.12,12.24c1.1,6,7.62,8.61,8.75,9.06c0.93,0.37,4.53,1.8,8.61,0.93
	c15.51,43.43,11.19,107.52-0.55,117c-0.08,0.06-7.04,5.69-13.95,15.43c-1.98,2.79-4.71,6.68-3.99,7.72
	c0.98,1.4,8.16-2.69,13.95-7.72c11.35-9.83,12.73-19.16,19.27-19.29c3.35-0.07,7.12,2.3,8.64,6.17c1.83,4.66-3.63,10-1.99,12.35
	c0.96,1.38,3.62,0.94,5.37,0.19c7.37-3.16,6.27-15.03,12.16-17.6c3.35-1.46,6.83,1.02,12.72,5.21c10.38,7.39,10.93,12.87,18.9,18.25
	c7.5,5.06,17.9,7.54,19.83,4.13c2.5-4.42-9.2-18.74-17.03-26.72c-15.54-15.85-22.29-13.4-32.37-23.68
	c-11.57-11.81-14.57-28.94-20.58-63.22c-1.84-10.52-3.38-19.3-4.48-26.77c9.78,0.07,20.46-2.55,23.69-7.67
	c2.79-4.42,1.2-12.57-4.3-17.77c0.57-0.53,1.06-1.1,1.44-1.71c3.93-6.22-0.81-19.81-12.92-22.19c2.26-3.77,4.82-7.62,7.6-11.53
	c0.21,0.16,0.41,0.33,0.63,0.49c14.81,11.04,38.07,8.43,44.75-2.31c1.45-2.33,2.17-5.16,2.28-8.25c8.23-3.15,16.73-7.52,24.47-12.59
	c14.86,1.12,31.95-6.85,36.11-22.06c1.66-6.08,0.91-12.09-1.42-17.57c10.37-4.46,20.85-13.06,21.52-24.06
	C377.09,202.19,371.52,193.02,363.23,186.53z"/>
</svg>
