<svg id="Layer_1" data-name="Layer 1" xmlns="http://www.w3.org/2000/svg" xmlns:xlink="http://www.w3.org/1999/xlink" viewBox="0 0 493.08 492.44"><defs><style>.cls-1,.cls-2,.cls-3,.cls-4,.cls-5,.cls-6{stroke-miterlimit:10;}.cls-1{fill:url(#linear-gradient);stroke:url(#linear-gradient-2);}.cls-2{fill:url(#linear-gradient-3);stroke:url(#linear-gradient-4);}.cls-3{fill:url(#linear-gradient-5);stroke:url(#linear-gradient-6);}.cls-4{fill:url(#linear-gradient-7);stroke:url(#linear-gradient-8);}.cls-5{fill:url(#linear-gradient-9);stroke:url(#linear-gradient-10);}.cls-6{fill:url(#linear-gradient-11);stroke:url(#linear-gradient-12);}</style><linearGradient id="linear-gradient" x1="363.37" y1="447.36" x2="-54.23" y2="-90.34" gradientUnits="userSpaceOnUse"><stop offset="0" stop-color="#47c4d7"/><stop offset="1" stop-color="#5c9541"/></linearGradient><linearGradient id="linear-gradient-2" x1="3.63" y1="86.89" x2="181.18" y2="86.89" xlink:href="#linear-gradient"/><linearGradient id="linear-gradient-3" x1="502.45" y1="339.35" x2="84.84" y2="-198.35" xlink:href="#linear-gradient"/><linearGradient id="linear-gradient-4" x1="223.77" y1="58.34" x2="316.55" y2="58.34" xlink:href="#linear-gradient"/><linearGradient id="linear-gradient-5" x1="405.23" y1="414.85" x2="-12.37" y2="-122.85" xlink:href="#linear-gradient"/><linearGradient id="linear-gradient-6" x1="249.32" y1="294.15" x2="407.41" y2="294.15" xlink:href="#linear-gradient"/><linearGradient id="linear-gradient-7" x1="361.26" y1="449" x2="-56.35" y2="-88.7" xlink:href="#linear-gradient"/><linearGradient id="linear-gradient-8" x1="124" y1="189.89" x2="194.71" y2="189.89" xlink:href="#linear-gradient"/><linearGradient id="linear-gradient-9" x1="224.74" y1="555.02" x2="-192.86" y2="17.32" xlink:href="#linear-gradient"/><linearGradient id="linear-gradient-10" x1="62.35" y1="418.43" x2="200.47" y2="418.43" xlink:href="#linear-gradient"/><linearGradient id="linear-gradient-11" x1="589.82" y1="271.49" x2="172.21" y2="-266.21" xlink:href="#linear-gradient"/><linearGradient id="linear-gradient-12" x1="428.01" y1="110.52" x2="496.71" y2="110.52" xlink:href="#linear-gradient"/></defs><path class="cls-1" d="M67.45,145.45c.89,0,1.44-4.5,1.71-6.83,4.88-41.44,1.59-42.27,5.28-50a27.67,27.67,0,0,0,1.94-4.87c10.91.2,31.07-11.13,54.13-1.58,10.87,4.5,30.09,16.83,43.13,16,1.66-.1,6.73-.4,7-2,.25-1.36-3-3-4-3.51C163.49,86,152.26,76,140,67.64c-21.81-14.87-20.31-21.7-32.1-23.57a30.91,30.91,0,0,0-7.87-.23,12.24,12.24,0,0,0,.35-6c-.93-4.52-5-9.43-9.53-9.53-3.69-.08-6.14,3-10.53,8.52-.68.86-1.34,1.68-2,2.49a13.15,13.15,0,0,0-6.14-4.91C65,31.66,61.87,37.82,41.93,42c-11.17,2.36-22.78,6.46-33.54,7.18-.79,0-3.47.2-4.12,1.41C3.51,52,6,54.15,6.81,54.83c6.38,5.41,23.52,2.33,31.79,2.62C54.51,58,59.36,71.74,64.47,77.16a38.34,38.34,0,0,0-3.87,4.25c-5.36,6.63-7,4.7-40,29.58-1.85,1.4-5.42,4.09-5.18,4.74.34,1,8.63-3.82,21.32-7.88,7.15-2.29,6.74-1.48,10-2.78a42.28,42.28,0,0,0,10.49-6.23,33.85,33.85,0,0,0,.35,12.25c.84,3.68,1.46,3,3.87,10.76C65.72,135.65,66.14,145.49,67.45,145.45Z" transform="translate(-3.63 -3.17)"/><path class="cls-2" d="M285.21,41.84c2.68,7.87,9.71,19.54,6.06,34.4-2,8.13-8.59,23-6.63,32.05.25,1.16,1,4.69,2.17,4.72,1,0,1.79-2.47,2-3.2,3.33-10,9.15-19,13.69-28.44,8.1-16.94,13.07-16.62,13.11-25.11.06-10.26-7.16-17-7.75-17.58-.17-.16-.37-.32-.55-.48a9.66,9.66,0,0,0,6.48-3.09C316,32.61,317,28.2,315,25.59c-1.57-2.1-4.37-2.13-9.39-2.19h-1.28c.57-2.3,1.45-8-2.5-11.69s-7.74-.58-22-3.21c-8-1.47-16.73-1.93-24-4.37-.53-.17-2.34-.8-3.09-.18s.18,2.79.53,3.46c2.73,5.29,14.84,7.9,20.2,10.33,8.13,3.68,9.52,10.89,10.67,16.2L284,34a31.23,31.23,0,0,0-9.35.66c-7.54,1.42-7.42-.4-44.14-.73-2.06,0-6,0-6.27.43-.36.7,8,1.62,18.72,4.87,6.07,1.84,5.31,2.12,8.25,2.83a44.52,44.52,0,0,0,10.64,1.06,30.16,30.16,0,0,0-7.21,7.13c-1.69,2.47-.86,2.34-4,7.84-5.6,9.74-11.32,15.53-10.43,16.09.59.38,3.67-1.93,5.27-3.14,28.38-21.49,26.73-23.4,33.83-26.19A26.14,26.14,0,0,0,285.21,41.84Z" transform="translate(-3.63 -3.17)"/><path class="cls-3" d="M399.19,278.08c-45.52.74-45.62,3.52-54.76,1.39a41.41,41.41,0,0,0-6.23-1.07c.77-8.17-4.32-23.38,9.12-34.62,7-5.84,23.95-14.75,25.84-23.77.24-1.14,1-4.65-.65-5.37-1.38-.61-3.81,1.07-4.52,1.55-9.84,6.66-22.68,10.95-34,16.46-20.17,9.83-27,6.6-31.46,13.91a14.07,14.07,0,0,0-1.84,5c-2.71-1.19-5.76-2.34-9-3.56-9.19-3.46-14.34-5.39-17.66-2.65-4.13,3.4-3.26,12.17.1,18.26a25.63,25.63,0,0,0,10.58,10,33.87,33.87,0,0,0-6.66,5.5c-9,9.6-3,14.51-11.93,42.18-5,15.5-8,31.77-14.83,46.53-.5,1.08-2.24,4.75-1.11,5.76,1.35,1.19,5.95-2,7.46-3,11.85-8.14,20.2-31.85,26.6-43.11,13.56-23.89,38.72-27.68,48.06-35.23a32.45,32.45,0,0,0,5,2.91c8.43,4.21,6.13,7.15,38.4,39.84,1.81,1.83,5.31,5.35,6.1,4.77,1.17-.86-5.13-9.68-10.76-24.55-3.17-8.39-2.16-8.19-3.92-12a37.49,37.49,0,0,0-8-10.87,46.59,46.59,0,0,0,13.31-1.68c3.75-1.11,2.85-1.53,10.61-4.38,13.76-5,24.19-6.51,23.84-7.58C406.66,278,401.75,278,399.19,278.08Z" transform="translate(-3.63 -3.17)"/><path class="cls-4" d="M162.39,175.11a19.65,19.65,0,0,0-1.84-2.67c-3-3.79-1.68-4.43-11.14-25.75-.54-1.2-1.57-3.5-1.95-3.45-.58.07,1,5.23,1.61,12.71.35,4.22,0,3.9.25,5.87a24.07,24.07,0,0,0,2.09,6.56,19,19,0,0,0-6.77-1.37c-2.13,0-1.82.42-6.41.76-8.12.58-13.58-.44-13.72.29-.1.49,2.29,1.36,3.53,1.8,22.14,8,23,6.26,26.79,9.27a16.32,16.32,0,0,0,2.43,1.68c-1.5,6,2.15,18.48-6,29.94-3.85,5.4-13.07,14.39-14.3,21.65-.16.92-.64,3.74.2,4.11s2.05-1.3,2.44-1.76c5.39-6.37,12.31-11.26,18.44-16.92,10.94-10.09,14.5-8.39,17-14.63a17.27,17.27,0,0,0,1.19-4.92,16.73,16.73,0,0,0,8.56,3.53c4,.36,8.65-1,9.34-3.59.55-2.1-1.73-4.12-5.82-7.72-1.75-1.54-3.36-3-4.89-4.11a7.07,7.07,0,0,0,1.45-1.57c2.45-3.63-.53-6.13-.31-17.62.13-6.44-.64-13.33.33-19.34.07-.43.33-1.93-.25-2.44s-2.16.5-2.64.86c-3.78,2.82-4.27,12.62-5.48,17.13C174.19,172.08,166,173,162.39,175.11Z" transform="translate(-3.63 -3.17)"/><path class="cls-5" d="M191.41,420.4c-53.26-31-55.1-27.49-64.38-36.7-.43-.43-1-1-1.71-1.69,6.72-2.75,14.86-4.58,24.19.4,8,4.29,22.67,16.67,31.73,15,1.15-.21,4.68-.84,4.74-2.62.05-1.5-2.42-3.13-3.14-3.61-9.85-6.62-18.65-16.92-28-25.33-16.67-15-16.25-22.59-24.69-23.94-10.19-1.64-17.09,8.42-17.63,9.25a40.07,40.07,0,0,0-4,8c-1.69-2.11-3.61-4.31-5.65-6.65-6.46-7.39-10.08-11.53-14.3-10.69C83.33,342.9,80,351,80,358a26,26,0,0,0,5.54,15.11,40.86,40.86,0,0,0-5.95,3.13c-1,.67-13.81,9.14-16.4,24.8-2.15,13,5.51,13.76,13.46,41.71,4.45,15.66,11,30.86,13.46,46.95.18,1.17.76,5.2,2.27,5.41,1.78.25,3.86-4.94,4.54-6.64,5.35-13.34-.85-37.7-1.77-50.62-1.25-17.52,6-30.83,12.34-41.15.59,1,1.13,1.84,1.5,2.44,7.15,11.44,2.64,13.67,19.69,79.16,1,3.68,2.83,10.75,4.1,10.54,1.9-.3.09-16.28,2.83-39.7,1.55-13.21,2.61-12.24,2.91-18.41a62.32,62.32,0,0,0-2.47-19.84A57.3,57.3,0,0,0,152.57,418c5,1.19,4.25,0,15,1.73,19.1,3.07,32.11,8.51,32.37,6.86C200.14,425.52,194.4,422.14,191.41,420.4Z" transform="translate(-3.63 -3.17)"/><path class="cls-6" d="M492.68,95c1.24-.44,3.63-1.31,3.53-1.8-.15-.73-5.61.3-13.73-.29-4.58-.33-4.27-.76-6.4-.75a19.18,19.18,0,0,0-6.77,1.36A23.75,23.75,0,0,0,471.39,87c.3-2-.09-1.65.25-5.88.62-7.48,2.19-12.64,1.62-12.71-.39,0-1.42,2.25-1.95,3.45-9.46,21.32-8.19,22-11.15,25.76a16.29,16.29,0,0,0-2.82,4.88l-.1,0a4.9,4.9,0,0,0-1.92.26c-3.07-3.1-8-7.15-6.93-14.64.66-4.62,4.05-13.83,1.67-17.91-.3-.52-1.22-2.1-2.09-1.82s-1.08,1.72-1.18,2.15c-1.46,5.9-4.87,11.94-7.28,17.92-4.3,10.66-8,11.79-7.19,16.08.66,3.45,3.54,5.28,5.55,6.17-1.1.9-2.25,1.91-3.46,3-4.09,3.6-6.38,5.62-5.82,7.72.69,2.6,5.38,4,9.33,3.6a16.51,16.51,0,0,0,8-3.16,18.69,18.69,0,0,0,3.8,9.5c4.17,5.28,7.12,2.65,20.45,9.28,7.47,3.7,15.48,6.47,22.44,11.07.5.34,2.23,1.51,2.83,1s-.54-3.17-1-4c-3.22-6.62-14.59-12.67-19.8-16.77-9.87-7.78-10.93-19-13.25-25.1a12.83,12.83,0,0,0,4.41-2.51C469.66,101.24,470.53,102.94,492.68,95Z" transform="translate(-3.63 -3.17)"/></svg>