<svg id="Layer_1" data-name="Layer 1" xmlns="http://www.w3.org/2000/svg" xmlns:xlink="http://www.w3.org/1999/xlink" viewBox="0 0 476.64 452.92"><defs><style>.cls-1,.cls-2,.cls-3{fill:none;stroke-miterlimit:10;stroke-width:5px;}.cls-1{stroke:url(#linear-gradient);}.cls-2{stroke:url(#linear-gradient-2);}.cls-3{stroke:url(#linear-gradient-3);}.cls-4{fill:#39b54a;}.cls-5{fill:#808285;}</style><linearGradient id="linear-gradient" y1="91.96" x2="183.92" y2="91.96" gradientUnits="userSpaceOnUse"><stop offset="0" stop-color="#49c4d7"/><stop offset="1" stop-color="#5c9541"/></linearGradient><linearGradient id="linear-gradient-2" x1="127.82" y1="330.81" x2="372.04" y2="330.81" xlink:href="#linear-gradient"/><linearGradient id="linear-gradient-3" x1="325.93" y1="135.16" x2="476.64" y2="135.16" xlink:href="#linear-gradient"/></defs><circle class="cls-1" cx="91.96" cy="91.96" r="89.46"/><circle class="cls-2" cx="249.93" cy="330.81" r="119.61"/><circle class="cls-3" cx="401.28" cy="135.16" r="72.86"/><path class="cls-4" d="M346.8,200.84c-.8,1.44-.11,2.44,1.52,2.21l13.1-1.85a1.71,1.71,0,0,0,1.27-2.89l-.34-.5a3,3,0,0,1,.76-4.17L383,180c1.36-.94,2-2.44,1.34-3.34s-2.24-.87-3.6.06l-19.86,13.69a3,3,0,0,1-4.17-.77l-.35-.5a1.71,1.71,0,0,0-3.15.16Z" transform="translate(-5.5 -35.43)"/><path class="cls-4" d="M165.67,297.34c-1.65-.08-2.24,1-1.32,2.33l18,26.64a1.71,1.71,0,0,0,3.15-.13L189,320a3,3,0,0,1,4.09-1.14l46.81,26.38a3,3,0,0,0,4.08-1.14l.94-1.66a3,3,0,0,0-1.15-4.08L197,312a3,3,0,0,1-1.14-4.09l3.49-6.19a1.71,1.71,0,0,0-1.53-2.76Z" transform="translate(-5.5 -35.43)"/><path class="cls-4" d="M126,60.63c.07-1.65-1-2.23-2.35-1.3L107.28,70.49a1.71,1.71,0,0,0,.15,3.15l2.5,1.39a3,3,0,0,1,1.16,4.08l-16.69,30a2.69,2.69,0,1,0,4.67,2.59l16.68-30a3,3,0,0,1,4.08-1.17l2.5,1.39a1.71,1.71,0,0,0,2.75-1.54Z" transform="translate(-5.5 -35.43)"/><path class="cls-5" d="M84.25,179.67c.71,0,1.14-3.59,1.36-5.45,3.89-33,1.27-33.69,4.21-39.85a22,22,0,0,0,1.54-3.89c8.7.16,24.77-8.87,43.15-1.25,8.67,3.58,24,13.41,34.38,12.75,1.33-.08,5.37-.32,5.58-1.6.2-1.08-2.39-2.39-3.19-2.79-10.48-5.31-19.43-13.28-29.2-20-17.39-11.85-16.19-17.29-25.59-18.78a24.84,24.84,0,0,0-6.27-.19,9.8,9.8,0,0,0,.28-4.78c-.75-3.6-4-7.52-7.6-7.6-2.94-.06-4.9,2.39-8.39,6.79l-1.6,2A10.44,10.44,0,0,0,88,91.16c-5.73-2.2-8.22,2.71-24.12,6-8.9,1.88-18.15,5.14-26.73,5.72-.63,0-2.77.16-3.29,1.12-.6,1.13,1.38,2.84,2,3.38,5.08,4.31,18.75,1.86,25.34,2.09,12.68.44,16.55,11.39,20.62,15.71a30,30,0,0,0-3.08,3.39c-4.28,5.28-5.58,3.75-31.89,23.58-1.47,1.11-4.32,3.26-4.13,3.78.27.79,6.88-3,17-6.28,5.7-1.83,5.37-1.18,8-2.22a33.66,33.66,0,0,0,8.36-5,27,27,0,0,0,.28,9.77c.67,2.93,1.16,2.39,3.08,8.57C82.87,171.86,83.2,179.7,84.25,179.67Z" transform="translate(-5.5 -35.43)"/><path class="cls-5" d="M339.46,349.09c-48.52.79-48.62,3.75-58.36,1.48a43.89,43.89,0,0,0-6.64-1.14c.82-8.71-4.61-24.92,9.72-36.9,7.46-6.22,25.52-15.72,27.54-25.33.25-1.22,1.06-5-.7-5.73-1.47-.65-4.06,1.14-4.81,1.66C295.72,290.22,282,294.8,270,300.67c-21.5,10.47-28.78,7-33.53,14.82a15,15,0,0,0-2,5.33c-2.89-1.27-6.14-2.49-9.59-3.79-9.8-3.69-15.29-5.75-18.82-2.83-4.41,3.63-3.48,13,.1,19.46a27.33,27.33,0,0,0,11.28,10.66,36.68,36.68,0,0,0-7.1,5.86c-9.59,10.24-3.2,15.47-12.71,45-5.33,16.52-8.53,33.86-15.81,49.59-.53,1.15-2.39,5.06-1.18,6.14,1.44,1.27,6.34-2.13,7.95-3.2,12.63-8.67,21.53-33.94,28.35-45.94,14.45-25.47,41.26-29.51,51.22-37.55a34.12,34.12,0,0,0,5.33,3.1c9,4.49,6.53,7.62,40.92,42.46,1.93,1.95,5.66,5.7,6.51,5.08,1.24-.91-5.47-10.31-11.47-26.16-3.38-8.94-2.3-8.73-4.18-12.79a40,40,0,0,0-8.53-11.59,49.3,49.3,0,0,0,14.19-1.79c4-1.18,3-1.63,11.31-4.66,14.66-5.33,25.78-6.94,25.4-8.08C347.42,349,342.19,349,339.46,349.09Z" transform="translate(-5.5 -35.43)"/><path class="cls-5" d="M439.1,154c1.32-.47,3.87-1.39,3.76-1.91-.16-.78-6,.32-14.63-.31-4.88-.36-4.55-.81-6.82-.8a20.29,20.29,0,0,0-7.22,1.45,25.4,25.4,0,0,0,2.22-6.95c.32-2.13-.1-1.76.26-6.27.67-8,2.34-13.47,1.73-13.55-.41,0-1.51,2.4-2.08,3.68-10.08,22.72-8.73,23.45-11.88,27.46a17.33,17.33,0,0,0-3,5.2h-.1a5.27,5.27,0,0,0-2.05.27c-3.27-3.3-8.53-7.62-7.38-15.6.7-4.92,4.31-14.74,1.78-19.09-.32-.55-1.3-2.23-2.23-1.94s-1.15,1.84-1.26,2.29c-1.56,6.29-5.19,12.73-7.76,19.1-4.58,11.36-8.52,12.57-7.66,17.14.7,3.68,3.77,5.63,5.91,6.58-1.17,1-2.39,2-3.68,3.19-4.36,3.84-6.8,6-6.21,8.23.74,2.77,5.74,4.27,9.95,3.84a17.53,17.53,0,0,0,8.52-3.37,20,20,0,0,0,4.05,10.13c4.45,5.62,7.59,2.82,21.8,9.89,8,3.94,16.5,6.89,23.91,11.79.54.37,2.38,1.61,3,1.07s-.58-3.38-1.07-4.26c-3.43-7.06-15.55-13.51-21.1-17.88-10.52-8.29-11.65-20.25-14.12-26.75a13.72,13.72,0,0,0,4.7-2.67C414.56,160.61,415.49,162.43,439.1,154Z" transform="translate(-5.5 -35.43)"/></svg>