<?xml version="1.0" encoding="utf-8"?>
<!-- Generator: Adobe Illustrator 25.3.1, SVG Export Plug-In . SVG Version: 6.00 Build 0)  -->
<svg version="1.1" id="Layer_1" xmlns="http://www.w3.org/2000/svg" xmlns:xlink="http://www.w3.org/1999/xlink" x="0px" y="0px"
	 viewBox="0 0 500 500" style="enable-background:new 0 0 500 500;" xml:space="preserve">
<style type="text/css">
	.st0{fill:url(#SVGID_1_);stroke:url(#SVGID_2_);stroke-miterlimit:10;}
</style>
<linearGradient id="SVGID_1_" gradientUnits="userSpaceOnUse" x1="488.856" y1="-95.6399" x2="-705.0025" y2="1441.5673" gradientTransform="matrix(-1 0 0 -1 503.8855 498.83)">
	<stop  offset="0" style="stop-color:#49C4D7"/>
	<stop  offset="1" style="stop-color:#5C9541"/>
</linearGradient>
<linearGradient id="SVGID_2_" gradientUnits="userSpaceOnUse" x1="44.0521" y1="249.3773" x2="494.13" y2="249.3773" gradientTransform="matrix(-1 0 0 -1 503.8855 498.83)">
	<stop  offset="0" style="stop-color:#49C4D7"/>
	<stop  offset="1" style="stop-color:#5C9541"/>
</linearGradient>
<path class="st0" d="M10.28,205.21c-1,3.06,28.82,7.38,68.16,21.67c22.18,8.15,19.61,9.35,30.33,12.52
	c12.39,3.43,25.2,5.05,38.05,4.8c-9.44,8.89-17.19,19.42-22.87,31.08c-5.03,10.89-2.14,10.32-11.21,34.31
	c-16.1,42.51-34.11,67.73-30.76,70.18c2.26,1.66,12.26-8.41,17.44-13.64c92.26-93.46,85.68-101.86,109.78-113.9
	c5-2.34,9.79-5.13,14.29-8.32c26.7,21.58,98.63,32.42,137.4,100.72c18.3,32.19,42.17,99.97,76.05,123.25
	c4.32,2.86,17.47,11.98,21.33,8.58c3.23-2.89-1.74-13.38-3.17-16.47c-19.53-42.2-28.1-88.71-42.4-133.02
	c-25.53-79.1-8.38-93.14-34.11-120.59c-5.65-6.03-12.05-11.32-19.04-15.72c12.63-6.41,23.14-16.34,30.25-28.59
	c9.61-17.41,12.09-42.48,0.29-52.2c-9.49-7.83-24.21-2.32-50.49,7.58c-9.26,3.49-17.98,6.78-25.73,10.18
	c-0.83-5.06-2.61-9.91-5.26-14.29c-12.75-20.9-32.28-11.66-89.94-39.77c-32.36-15.75-69.07-28.02-97.2-47.06
	c-2.03-1.37-8.98-6.18-12.92-4.43c-4.72,2.06-2.54,12.09-1.86,15.35c5.4,25.79,53.86,51.26,73.87,67.96
	c38.42,32.13,23.87,75.62,26.07,98.97c-6.01,0.56-11.96,1.59-17.81,3.06c-26.13,6.09-26.42-1.86-156.55-3.97
	C24.95,203.21,10.91,203.21,10.28,205.21z"/>
</svg>
