<?xml version="1.0" encoding="utf-8"?>
<!-- Generator: Adobe Illustrator 25.3.1, SVG Export Plug-In . SVG Version: 6.00 Build 0)  -->
<svg version="1.1" id="Layer_1" xmlns="http://www.w3.org/2000/svg" xmlns:xlink="http://www.w3.org/1999/xlink" x="0px" y="0px"
	 viewBox="0 0 500 500" style="enable-background:new 0 0 500 500;" xml:space="preserve">
<style type="text/css">
	.st0{fill:#3BC9DB;}
	.st1{fill:url(#SVGID_1_);}
</style>
<path class="st0" d="M28,359.92c1.82-1.29,0.33-3.74,2.36-5.6c5.28,0.8,11.04,1.67,16.85,2.55c-0.45,5.65-0.86,10.91-1.3,16.41
	c-6.15,0-12.03,0-17.91,0C28,368.83,28,364.37,28,359.92z"/>
<path class="st0" d="M143.73,496.13c0.09-0.28,0.07-0.56-0.04-0.83c2.1-0.01,4.2-0.01,6.31-0.02c-0.02,0.28-0.03,0.57-0.03,0.85
	C147.88,496.13,145.81,496.13,143.73,496.13z"/>
<linearGradient id="SVGID_1_" gradientUnits="userSpaceOnUse" x1="187.2722" y1="359.8367" x2="407.1817" y2="25.6249">
	<stop  offset="0" style="stop-color:#5C940D"/>
	<stop  offset="0.9902" style="stop-color:#FFFFFF"/>
</linearGradient>
<path class="st1" d="M184.21,275.14c-12.33,19.37-20.67,40.59-28.91,61.88c-1.97,5.1-4.04,10.23-9.24,14.77
	c4.11,0,7.24,0.02,10.38-0.01c2.09-0.01,4.16,0.07,6.04,1.14c2.75,1.58,3.72,3.02,2.11,6.68c-10.5,23.84-11.63,47.48,2.91,70.37
	c0.39,0.61,0.88,1.16,1.63,2.14c5.29-8.31,8.57-16.98,10.28-26.37c2.35-12.85-0.44-25.36-2.07-37.96c-0.3-2.34-0.91-4.65-1.25-6.99
	c-0.86-5.89,1.36-8.63,7.43-8.94c3.79-0.19,7.6-0.04,11.77-0.04c-4.5-9.74-2.4-19.08-0.28-28.28c3.91-16.99,11.43-32.33,22.16-46.08
	c0.89-1.14,1.58-2.54,3.12-3.03c0.64,2.46-1.41,3.74-2.47,5.38c-1.97,3.06-4.6,5.68-6.25,9.16c4.56,3.09,8.3,6.85,11.63,9.78
	c4.35-4.37,8.45-8.49,12.76-12.81c-1.44-1.36-3.09-3.32-5.11-4.75c-3.41-2.41-5.84-6.4-10.57-6.74
	c8.82-11.86,20.46-19.92,34.18-25.08c13.71-5.16,28.25-6.42,42.56-8.63c40.71-6.26,74.58-25.01,102.22-55.33
	c1.19-1.31,2.46-2.56,3.69-3.83c3.67,0.3,6.62,2.4,9.81,3.89c1.55,0.72,2.97,1.49,4.14-0.57c2.46-4.34,4.96-8.66,7.42-12.95
	c-2.52-3.27-6.38-3.69-9.15-5.85c11.19-15.34,20.32-31.97,29.97-48.27c1.5-2.53,3.2-5.01,5.16-7.19c2.92-3.25,5.41-2.66,6.84,1.42
	c1.29,3.68,1.54,7.62,1.38,11.4c-0.95,21.76-5.81,42.71-13.61,63c-1.83-0.6-2.53-2.85-4.64-3.26c-4.28,3.98-8.05,8.38-11.58,12.91
	c2.58,3.61,6.37,5.74,8.14,9.59c-11.87,24.91-27.46,46.74-51.43,61.51c-13.96,8.61-29.19,12.8-45.6,12.72
	c-13.19-0.06-26.4-0.17-39.45,2.1c-18.13,3.16-34.27,11.09-49.55,21.02c-1.16-1.26-2.09-2.05-3.92-0.49
	c-3.22,2.74-6.67,5.25-10.24,7.52c-2.18,1.39-1.6,2.7-0.7,4.32c-12.6,11.46-23.3,24.73-35.53,37.38c3.72,0,7.18-0.04,10.63,0.02
	c1.77,0.03,3.6-0.03,5.29,0.42c4.93,1.31,5.48,3.35,3.56,8.03c-10.08,24.66-11.37,48.83,4.83,71.74c1.79,2.53,3.91,4.82,5.88,7.22
	c-1.36,3.11-4.52,4.79-6.26,7.76c1.34,1.58,2.63,3.11,3.92,4.64c-37.5,0.03-75.01,0.08-112.51,0.08c-3.49,0-6.79-0.96-9.44-3.34
	c-2.31-2.07-2.81-4.31-0.33-6.85c12.86-13.22,18.62-29.48,18.79-47.53c0.08-8.49-1.9-17.01-2.98-25.51
	c-0.37-2.93-1.06-5.84-1.22-8.78c-0.31-5.52,1.49-7.42,7.11-7.84c2.06-0.16,4.15-0.06,6.22-0.07c2.05-0.01,4.11,0,6.39,0
	c-12.85-13.04-15.72-29.86-18.7-46.57c-1.85-10.38-2.06-20.92-2.03-31.44c3.87-0.97,7.72-2.01,11.6-2.89
	c1.6-0.36,3.08-0.77,2.62-2.75c-1.17-5.13-1.18-10.5-3-15.52c-3.28,0.53-6.33,1.03-9.39,1.52c3.92-27.92,13.71-52.69,37.9-69.49
	c10.62-7.38,23.02-9.91,35.53-11.63c23.99-3.29,46.45-10.22,65.59-25.85c11.36-9.27,20.86-20.11,28.94-32.28
	c2.11,0.55,3.47,2.76,6.1,2.79c2.81-4.93,5.63-9.87,8.43-14.8c-1.75-1.97-4.13-2.58-5.29-4.58c9.13-18.53,14.33-38.44,20.53-58.01
	c1.2-3.81,2.54-7.59,4.67-10.99c3.32-5.32,7.96-5.98,12.56-1.64c8.15,7.69,11.91,17.89,15.27,28.17c3.92,11.98,6.31,24.3,6.94,36.93
	c-2.88,4.17-7.18,6.85-11.16,10.13c2.57,4.42,5.03,8.6,7.44,12.82c0.82,1.43,1.7,2.4,3.42,1.3c-1.34,17.43-6.3,33.67-15.86,48.39
	c-3.6,2.27-7.9,3.24-11.4,6.11c0.79,1.76,1.56,3.48,2.33,5.19c-4.13,4.18-8.68,7.82-13.82,10.68c-1.83-0.98-2.41-3.36-4.66-4.12
	c-3.91,3.93-7.84,7.88-11.78,11.83c-0.45,0.22-1.14,0.23-0.86,1.04l0.04-0.04c-2.81-0.61-5.11,1.07-7.58,1.82
	c-17.55,5.32-35.01,10.83-50.99,20.18c-18.48,10.81-34.33,24.6-47.69,41.31c-1.68-0.49-3.41-0.84-5.01-1.49
	c-2.33-0.95-3.55-0.17-4.24,2.11c-1.13,3.77-2.34,7.53-3.55,11.28C182.62,272.85,182.76,274.16,184.21,275.14z M335.68,125.27
	c0.94-2.86-0.37-5.4-0.74-7.95c-1.35-9.22-1.49-9.2-10.89-9.28c-1.48-0.01-2.96-0.06-4.44-0.09c-1.21-0.03-2.03,0.47-2.15,1.72
	c-0.49,5.2-2.34,10.25-2.08,15.65C322.35,126.93,329,126.89,335.68,125.27z M301.82,252.69c-5.75,0-11.42,0-17.17,0
	c-0.93,5.98,0.05,11.5,0.88,17.02c0.23,1.55,1.16,2.39,2.79,2.06c5.01-1.04,10.01-2.12,15.13-3.2
	C302.88,263.04,302.36,257.96,301.82,252.69z M169.28,252.61c-6.54-1.13-12.63-1.85-18.98-1.08c0,5.91,0,11.58,0,17.6
	c5.6-0.43,10.8,0.6,16.28,0.83C167.5,264.05,168.36,258.54,169.28,252.61z"/>
<path class="st0" d="M253.44,389.81c0.44-5.81,0.85-11.18,1.27-16.83c5.97,0,11.77,0,17.86,0c0.44,6.62-0.64,12.82-1.35,19.5
	C265.21,391.58,259.58,390.73,253.44,389.81z"/>
<path class="st0" d="M383.15,86.15c-5.83-2.12-11.29-4.1-16.89-6.14c1.41-5.18,2.4-10.05,2.7-15.13c6.04,0,11.72,0,17.7,0
	C387.18,72.29,385.68,79.04,383.15,86.15z"/>
<path class="st0" d="M314.93,4.67c1.07,5.87,2.08,11.49,3.17,17.48c-4.71,1.66-9.67,2.61-14.26,5.79
	c-3.14-5.38-6.07-10.41-9.19-15.76C300.93,8.15,307.51,5.95,314.93,4.67z"/>
<path class="st0" d="M383.29,44c-5.91,2.17-11.28,4.14-16.96,6.22c-2.15-4.69-4.51-9.05-7.81-13.29c4.59-3.88,8.96-7.58,13.62-11.52
	C377.32,30.75,380.42,37,383.29,44z"/>
<path class="st0" d="M347.31,27.51c-4.89-2.35-9.28-4-14.15-5.22c0.16-5.99,1.88-11.58,2.6-17.61c7.46,0.95,13.79,3.43,20.44,7.26
	C353.25,17.09,350.39,22.12,347.31,27.51z"/>
<path class="st0" d="M292.54,37.19c-3.47,3.91-5.58,8.25-7.8,13.23c-5.53-2.01-10.97-3.98-16.75-6.08
	c2.25-7.18,5.91-13.06,10.65-18.76C283.39,29.54,287.87,33.29,292.54,37.19z"/>
<path class="st0" d="M41.37,317.72c5.51,2.8,10.6,5.39,15.91,8.09c-2.12,5.17-4.17,10.15-6.35,15.45
	c-5.65-1.84-11.18-3.65-16.88-5.51C35.83,329.38,38.33,323.77,41.37,317.72z"/>
<path class="st0" d="M358.21,117c-1.73,1.11-2.61,0.13-3.42-1.3c-2.41-4.21-4.87-8.39-7.44-12.82c3.98-3.29,8.28-5.97,11.16-10.13
	c4.67,3.75,9.35,7.5,14.17,11.36C368.46,109.65,363.46,113.46,358.21,117z"/>
<path class="st0" d="M102.88,466.3c5.33,2.21,10.2,4.22,15.38,6.36c-1.81,5.59-3.56,11.02-5.42,16.77
	c-6.52-1.59-12.19-4.28-18.09-7.24C97.53,476.76,100.2,471.55,102.88,466.3z"/>
<path class="st0" d="M169.35,494.02c-0.95-6.2-1.82-11.84-2.7-17.59c5.55-1.33,10.66-2.56,16.13-3.88
	c1.82,5.55,3.61,10.99,5.52,16.81C182.28,491.7,176.18,492.92,169.35,494.02z"/>
<path class="st0" d="M57.26,420.58c2.95,4.8,5.64,9.19,8.72,14.2c-4.56,3.36-9.23,6.81-14.23,10.49
	c-4.29-4.99-7.15-10.58-10.45-16.45C46.61,426.07,51.79,423.4,57.26,420.58z"/>
<path class="st0" d="M34.09,411.25c-2.09-6.56-3.63-12.37-4.43-18.85c5.81-0.95,11.43-1.87,17.45-2.86
	c1.32,5.31,2.61,10.52,4.02,16.21C45.54,407.56,40.02,409.34,34.09,411.25z"/>
<path class="st0" d="M302.12,307.89c-4.13-5.54-7.32-10.97-9.96-17.25c5.53-2.48,10.87-4.87,16.37-7.33
	c2.48,4.97,4.97,9.47,8.14,13.93C311.84,300.78,307.21,304.17,302.12,307.89z"/>
<path class="st0" d="M333.27,176.69c-0.77-1.72-1.54-3.43-2.33-5.19c3.5-2.87,7.8-3.84,11.4-6.11c2.09-0.6,4.19-1.2,6.53-1.86
	c1.85,5.66,3.64,11.11,5.47,16.7c-4.91,2.17-9.58,4.24-14.33,6.34C336.92,183.76,336.18,179.47,333.27,176.69z"/>
<path class="st0" d="M266.75,410.9c-2.19,6.61-4.33,12.24-7.63,17.93c-5.32-2.7-10.5-5.33-15.81-8.03
	c2.14-5.21,4.15-10.08,6.36-15.45C255.28,407.18,260.92,409.01,266.75,410.9z"/>
<path class="st0" d="M222.4,472.07c-5.57,3.95-10.66,7.38-16.65,10.06c-2.72-5.25-5.33-10.31-8.11-15.68
	c4.7-2.93,9.25-5.77,14.19-8.86C215.32,462.36,218.74,467.06,222.4,472.07z"/>
<path class="st0" d="M367.94,159.24c6.84-0.67,12.99-0.68,19.68-0.03c-0.65,6.1-1.27,11.89-1.93,18.05
	c-5.3-0.48-10.27-0.95-15.58,0.23C368.68,171.36,368.35,165.55,367.94,159.24z"/>
<path class="st0" d="M286.12,233.34c1.01-6.69,3.25-12.56,5.97-18.97c5.57,2.44,10.9,4.78,16.33,7.17
	c-1.68,5.2-3.26,10.09-4.99,15.45C297.76,235.8,292.06,234.6,286.12,233.34z"/>
<path class="st0" d="M78.19,274.58c5.38-4.15,10.66-7.27,16.59-10.3c2.8,5.43,5.46,10.6,8.19,15.9c-4.7,2.91-9.19,5.69-14.22,8.8
	C85.34,284.34,81.91,279.66,78.19,274.58z"/>
<path class="st0" d="M331.17,333.84c-6.2-3.34-11.19-7.12-16.13-11.66c3.99-4.47,7.79-8.73,11.79-13.22
	c4.39,3.17,8.63,6.22,13.17,9.5C337.1,323.54,334.26,328.47,331.17,333.84z"/>
<path class="st0" d="M354.2,324.84c5.33,1.13,10.33,2.18,15.82,3.34c-0.57,5.74-1.13,11.42-1.72,17.46
	c-6.7-0.12-12.73-1.85-19.19-3.76C350.16,335.86,352.59,330.54,354.2,324.84z"/>
<path class="st0" d="M407,341.68c-6.58,2.24-12.71,3.49-19.45,4.16c-0.64-6.06-1.24-11.71-1.87-17.61
	c5.31-1.15,10.29-2.24,15.76-3.42C403.24,330.26,405.06,335.78,407,341.68z"/>
<path class="st0" d="M266.37,335.1c2.4,6.24,3.71,12.36,4.71,18.95c-5.96,0.92-11.59,1.79-17.53,2.7
	c-1.37-5.43-2.65-10.52-4.04-16.06C255.13,338.83,260.64,337,266.37,335.1z"/>
<path class="st0" d="M463.23,214.18c3.2,6.18,4.75,12.16,6.43,18.76c-5.95,1.28-11.63,2.51-17.42,3.75
	c-1.72-5.18-3.33-10.05-5.09-15.36C452.42,218.99,457.63,216.68,463.23,214.18z"/>
<path class="st0" d="M439.27,297.35c2.73-4.75,5.29-9.2,8.07-14.03c5.29,2.37,10.6,4.76,16.11,7.23
	c-2.57,6.27-5.72,11.69-9.87,17.16C448.73,304.21,444.01,300.79,439.27,297.35z"/>
<path class="st0" d="M76.28,299.65c-3.55,4.18-6.89,8.11-10.56,12.43c-4.73-3.42-9.46-6.84-14.38-10.39
	c3.7-5.51,7.84-10.24,12.26-14.48C67.88,291.4,71.97,295.41,76.28,299.65z"/>
<path class="st0" d="M235.89,314.4c-0.89-1.62-1.48-2.93,0.7-4.32c3.57-2.27,7.02-4.78,10.24-7.52c1.83-1.56,2.75-0.77,3.92,0.49
	c2.65,4.74,6.17,9.01,8.22,14.66c-5.25,2.73-10.41,5.42-15.6,8.12C240.59,321.85,239.07,317.58,235.89,314.4z"/>
<path class="st0" d="M298.55,98.3c1.16,2,3.54,2.6,5.29,4.58c-2.81,4.93-5.62,9.87-8.43,14.8c-2.64-0.03-3.99-2.25-6.1-2.79
	c-3.36-3.47-7.47-6.23-10.49-10.67c4.46-3.78,8.82-7.47,13.3-11.27C294.48,94.57,295.85,97.28,298.55,98.3z"/>
<path class="st0" d="M264.27,65.35c6.25,0,11.96,0,17.93,0c0.35,5,1.13,9.74,2.59,14.7c-5.72,2.09-11.07,4.05-16.63,6.08
	C265.35,79.31,264.46,72.68,264.27,65.35z"/>
<path class="st0" d="M303.01,195.08c3.93-3.95,7.87-7.9,11.78-11.83c2.25,0.76,2.83,3.14,4.66,4.12c2.48,2.9,4.96,5.8,7.56,8.85
	c-3.63,3.86-7.36,7.4-10.53,12.03c-4.73-3.41-9.13-6.59-13.54-9.75c-0.89-0.64-0.59-1.59-0.76-2.42c0,0-0.04,0.04-0.04,0.04
	C302.87,196.14,303.06,195.71,303.01,195.08z"/>
<path class="st0" d="M64.06,459.85c4.44-4.42,8.49-8.47,12.64-12.61c3.99,3.4,8.01,6.83,12.46,10.63c-3.39,4.68-6.8,9.39-10.43,14.4
	C73.29,468.64,68.66,464.48,64.06,459.85z"/>
<path class="st0" d="M424.64,333.87c-3.09-5.31-5.95-10.24-8.95-15.39c4.35-3.19,8.48-6.21,13.06-9.56
	c3.89,4.29,7.8,8.59,11.87,13.09C435.87,326.9,430.5,330.35,424.64,333.87z"/>
<path class="st0" d="M452.16,268.35c0.49-5.45,1.7-10.47,1.4-15.87c6.04,0,11.71,0,17.62,0c0.65,6.55-0.23,12.75-1.63,19.38
	C463.56,271.11,457.92,269.79,452.16,268.35z"/>
<path class="st0" d="M436.77,205.7c-1.77-3.85-5.55-5.98-8.14-9.59c3.54-4.53,7.3-8.93,11.58-12.91c2.11,0.41,2.81,2.66,4.64,3.26
	c2.89,3.51,5.78,7.02,8.93,10.85c-4.54,3.32-8.85,6.35-13,9.57C438.66,208.54,438.05,206.28,436.77,205.7z"/>
<path class="st0" d="M415.13,166.11c2.76,2.15,6.63,2.58,9.15,5.85c-2.46,4.29-4.96,8.6-7.42,12.95c-1.16,2.06-2.59,1.29-4.14,0.57
	c-3.19-1.49-6.15-3.6-9.81-3.89c-1.03-0.8-2.02-1.38-1.37-3.16c1.79-4.92,3.31-9.93,5-15.11
	C409.63,164.32,412.38,165.21,415.13,166.11z"/>
<path class="st0" d="M228.2,451.62c-1.29-1.53-2.58-3.06-3.92-4.64c1.74-2.97,4.9-4.65,6.26-7.76c1.41-1.48,2.82-2.96,4.45-4.67
	c4.65,3.39,9.26,6.75,14.24,10.38c-3.61,5.57-7.99,10.14-12.5,14.81C233.74,456.89,230.97,454.25,228.2,451.62z"/>
<path class="st0" d="M184.21,275.14c-1.45-0.98-1.59-2.29-1.08-3.85c1.21-3.75,2.42-7.5,3.55-11.28c0.68-2.28,1.91-3.06,4.24-2.11
	c1.61,0.66,3.34,1.01,5.01,1.49c3.12,1.55,6.24,3.1,9.84,4.88c-2.76,5.42-5.38,10.58-8.01,15.76
	C192.86,278.65,188.96,275.71,184.21,275.14z"/>
<path class="st0" d="M121.34,254.13c3.06-0.5,6.11-0.99,9.39-1.52c1.82,5.03,1.83,10.4,3,15.52c0.45,1.98-1.02,2.39-2.62,2.75
	c-3.89,0.87-7.74,1.91-11.6,2.89c-1.81,0.31-2.17-0.94-2.59-2.28c-1.45-4.61-2.96-9.19-4.52-13.98
	C115.09,255.37,118.59,255.67,121.34,254.13z"/>
<path class="st0" d="M149.99,495.28c-2.1,0.01-4.2,0.01-6.31,0.02c-3.95-0.34-7.91-0.67-12.5-1.06c0.93-6.05,1.81-11.77,2.71-17.66
	c5.62-0.18,10.81,1.36,16.56,0.74C150.39,483.59,150.87,489.44,149.99,495.28z"/>
<path class="st0" d="M335.68,125.27c-6.67,1.62-13.33,1.66-20.29,0.05c-0.26-5.4,1.59-10.45,2.08-15.65
	c0.12-1.26,0.94-1.75,2.15-1.72c1.48,0.04,2.96,0.08,4.44,0.09c9.39,0.08,9.54,0.06,10.89,9.28
	C335.31,119.87,336.62,122.41,335.68,125.27z"/>
<path class="st0" d="M220.26,274.45c4.73,0.34,7.16,4.34,10.57,6.74c2.03,1.43,3.68,3.39,5.11,4.75
	c-4.31,4.33-8.41,8.45-12.76,12.81c-3.33-2.93-7.07-6.69-11.63-9.78c1.65-3.48,4.28-6.1,6.25-9.16c1.06-1.65,3.12-2.93,2.47-5.38
	C220.28,274.43,220.26,274.45,220.26,274.45z"/>
<path class="st0" d="M301.82,252.69c0.54,5.26,1.06,10.35,1.63,15.88c-5.11,1.08-10.11,2.16-15.13,3.2
	c-1.63,0.34-2.56-0.51-2.79-2.06c-0.83-5.52-1.81-11.04-0.88-17.02C290.41,252.69,296.07,252.69,301.82,252.69z"/>
<path class="st0" d="M169.28,252.61c-0.92,5.92-1.78,11.43-2.7,17.35c-5.48-0.23-10.69-1.26-16.28-0.83c0-6.02,0-11.69,0-17.6
	C156.65,250.77,162.74,251.48,169.28,252.61z"/>
<path class="st0" d="M303.01,195.08c0.05,0.63-0.14,1.06-0.86,1.04C301.87,195.31,302.56,195.3,303.01,195.08z"/>
</svg>
