<svg id="Layer_1" data-name="Layer 1" xmlns="http://www.w3.org/2000/svg" xmlns:xlink="http://www.w3.org/1999/xlink" viewBox="0 0 492.09 491.44"><defs><style>.cls-1{fill:url(#linear-gradient);}.cls-2{fill:url(#linear-gradient-2);}.cls-3{fill:url(#linear-gradient-3);}.cls-4{fill:url(#linear-gradient-4);}.cls-5{fill:url(#linear-gradient-5);}.cls-6{fill:url(#linear-gradient-6);}</style><linearGradient id="linear-gradient" x1="363.39" y1="46.65" x2="-54.21" y2="584.35" gradientTransform="matrix(1, 0, 0, -1, -3.63, 490.83)" gradientUnits="userSpaceOnUse"><stop offset="0" stop-color="#e67700"/><stop offset="1" stop-color="#9d0208"/></linearGradient><linearGradient id="linear-gradient-2" x1="502.43" y1="154.63" x2="84.82" y2="692.33" xlink:href="#linear-gradient"/><linearGradient id="linear-gradient-3" x1="405.22" y1="79.14" x2="-12.38" y2="616.84" xlink:href="#linear-gradient"/><linearGradient id="linear-gradient-4" x1="361.27" y1="45.01" x2="-56.34" y2="582.71" xlink:href="#linear-gradient"/><linearGradient id="linear-gradient-5" x1="224.74" y1="-61.02" x2="-192.86" y2="476.68" gradientTransform="matrix(1, 0, 0, -1, -3.63, 490.83)" gradientUnits="userSpaceOnUse"><stop offset="0" stop-color="#e67700"/><stop offset="1" stop-color="#9d0208"/></linearGradient><linearGradient id="linear-gradient-6" x1="589.79" y1="222.49" x2="172.18" y2="760.19" xlink:href="#linear-gradient"/></defs><path class="cls-1" d="M63.82,142.28c.89,0,1.44-4.5,1.71-6.83,4.88-41.44,1.59-42.27,5.28-50a27.62,27.62,0,0,0,1.94-4.87c10.91.2,31.07-11.13,54.13-1.58C137.75,83.5,157,95.83,170,95c1.66-.1,6.73-.4,7-2,.25-1.36-3-3-4-3.51-13.15-6.66-24.38-16.66-36.64-25-21.81-14.87-20.31-21.7-32.1-23.57a31,31,0,0,0-7.87-.23,12.33,12.33,0,0,0,.35-6c-.93-4.52-5-9.43-9.53-9.53-3.69-.08-6.14,3-10.53,8.52-.68.86-1.34,1.68-2,2.49a13.17,13.17,0,0,0-6.14-4.91c-7.18-2.75-10.31,3.41-30.25,7.59C27.13,41.19,15.52,45.29,4.76,46c-.79,0-3.47.2-4.12,1.41C-.12,48.83,2.37,51,3.18,51.66,9.56,57.07,26.7,54,35,54.28,50.88,54.83,55.73,68.57,60.84,74A38.94,38.94,0,0,0,57,78.24c-5.36,6.63-7,4.7-40,29.58-1.85,1.4-5.42,4.09-5.18,4.74.34,1,8.63-3.82,21.32-7.88,7.15-2.29,6.74-1.48,10-2.78A42.46,42.46,0,0,0,53.6,95.67,33.87,33.87,0,0,0,54,107.92c.84,3.68,1.46,3,3.87,10.76C62.09,132.48,62.51,142.32,63.82,142.28Z" transform="translate(-0.5 -0.51)"/><path class="cls-2" d="M281.58,38.67c2.68,7.87,9.71,19.54,6.06,34.4-2,8.13-8.59,23-6.63,32.05.25,1.16,1,4.69,2.17,4.72,1,0,1.79-2.47,2-3.2,3.33-10,9.15-19,13.69-28.44C307,61.26,311.94,61.58,312,53.09c.06-10.26-7.16-17-7.75-17.58-.17-.16-.37-.32-.55-.48a9.67,9.67,0,0,0,6.48-3.09c2.21-2.5,3.21-6.91,1.21-9.52-1.57-2.1-4.37-2.13-9.39-2.19H300.7c.57-2.3,1.45-8-2.5-11.69s-7.74-.58-22-3.21c-8-1.47-16.73-1.93-24-4.37-.53-.17-2.34-.8-3.09-.18s.18,2.79.53,3.46c2.73,5.29,14.84,7.9,20.2,10.33,8.13,3.68,9.52,10.89,10.67,16.2l-.14.06a31.27,31.27,0,0,0-9.35.66c-7.54,1.42-7.42-.4-44.14-.73-2.06,0-6,0-6.27.43-.36.7,8,1.62,18.72,4.87,6.07,1.84,5.31,2.12,8.25,2.83A44.24,44.24,0,0,0,258.22,40,30,30,0,0,0,251,47.08c-1.69,2.47-.86,2.34-4,7.84-5.6,9.74-11.32,15.53-10.43,16.09.59.38,3.67-1.93,5.27-3.14,28.38-21.49,26.73-23.4,33.83-26.19A26.05,26.05,0,0,0,281.58,38.67Z" transform="translate(-0.5 -0.51)"/><path class="cls-3" d="M395.56,274.91c-45.52.74-45.62,3.52-54.76,1.39a42.48,42.48,0,0,0-6.23-1.07c.77-8.17-4.32-23.38,9.12-34.62,7-5.84,23.95-14.75,25.84-23.77.24-1.14,1-4.65-.65-5.37-1.38-.61-3.81,1.07-4.52,1.55-9.84,6.66-22.68,10.95-34,16.46-20.17,9.83-27,6.6-31.46,13.91a14,14,0,0,0-1.84,5c-2.71-1.19-5.76-2.34-9-3.56-9.19-3.46-14.34-5.39-17.66-2.65-4.13,3.4-3.26,12.17.1,18.26a25.62,25.62,0,0,0,10.58,10,33.8,33.8,0,0,0-6.66,5.5c-9,9.6-3,14.51-11.93,42.18-5,15.5-8,31.77-14.83,46.53-.5,1.08-2.24,4.75-1.11,5.76,1.35,1.19,5.95-2,7.46-3,11.85-8.14,20.2-31.85,26.6-43.11,13.56-23.89,38.72-27.68,48.06-35.23a32.42,32.42,0,0,0,5,2.91c8.43,4.21,6.13,7.15,38.4,39.84,1.81,1.83,5.31,5.35,6.1,4.77,1.17-.86-5.13-9.68-10.76-24.55-3.17-8.39-2.16-8.19-3.92-12a37.56,37.56,0,0,0-8-10.87,46.4,46.4,0,0,0,13.31-1.68c3.75-1.11,2.85-1.53,10.61-4.38,13.76-5,24.19-6.51,23.84-7.58C403,274.83,398.12,274.83,395.56,274.91Z" transform="translate(-0.5 -0.51)"/><path class="cls-4" d="M158.76,171.94a19.48,19.48,0,0,0-1.84-2.67c-3-3.79-1.68-4.43-11.14-25.75-.54-1.2-1.57-3.5-1.95-3.45-.58.07,1,5.23,1.61,12.71.35,4.22,0,3.9.25,5.87a24,24,0,0,0,2.09,6.56,18.93,18.93,0,0,0-6.77-1.37c-2.13,0-1.82.42-6.41.76-8.12.58-13.58-.44-13.72.29-.1.49,2.29,1.36,3.53,1.8,22.14,8,23,6.26,26.79,9.27a16.94,16.94,0,0,0,2.43,1.68c-1.5,6,2.15,18.48-6,29.94-3.85,5.4-13.07,14.39-14.3,21.65-.16.92-.64,3.74.2,4.11s2.05-1.3,2.44-1.76c5.39-6.37,12.31-11.26,18.44-16.92,10.94-10.09,14.5-8.39,17-14.63a17,17,0,0,0,1.19-4.92,16.72,16.72,0,0,0,8.56,3.53c4,.36,8.65-1,9.34-3.59.55-2.1-1.73-4.12-5.82-7.72-1.75-1.54-3.36-3-4.89-4.11a7.2,7.2,0,0,0,1.45-1.57c2.45-3.63-.53-6.13-.31-17.62.13-6.44-.64-13.33.33-19.34.07-.43.33-1.93-.25-2.44s-2.16.5-2.64.86c-3.78,2.82-4.27,12.62-5.48,17.13C170.56,168.91,162.37,169.83,158.76,171.94Z" transform="translate(-0.5 -0.51)"/><path class="cls-5" d="M187.78,417.23c-53.26-31-55.1-27.49-64.38-36.7-.43-.43-1-1-1.71-1.69,6.72-2.75,14.86-4.58,24.19.4,8,4.29,22.67,16.67,31.73,15,1.15-.21,4.68-.84,4.74-2.62.05-1.5-2.42-3.13-3.14-3.61-9.85-6.62-18.65-16.92-28-25.33-16.67-15-16.25-22.59-24.69-23.94-10.19-1.64-17.09,8.42-17.63,9.25a39.88,39.88,0,0,0-4,8c-1.69-2.11-3.61-4.31-5.65-6.65-6.46-7.39-10.08-11.53-14.3-10.69-5.24,1.08-8.57,9.18-8.57,16.18a26,26,0,0,0,5.54,15.11,40.16,40.16,0,0,0-6,3.13c-1,.67-13.81,9.14-16.4,24.8-2.15,13,5.51,13.76,13.46,41.71,4.45,15.66,11,30.86,13.46,46.95.18,1.17.76,5.2,2.27,5.41,1.78.25,3.86-4.94,4.54-6.64,5.35-13.34-.85-37.7-1.77-50.62-1.25-17.52,6-30.83,12.34-41.15.59,1,1.13,1.84,1.5,2.44,7.15,11.44,2.64,13.67,19.69,79.16,1,3.68,2.83,10.75,4.1,10.54,1.9-.3.09-16.28,2.83-39.7,1.55-13.21,2.61-12.24,2.91-18.41a62.21,62.21,0,0,0-2.47-19.84,57.54,57.54,0,0,0,16.52,7.11c5,1.19,4.25,0,15,1.73,19.1,3.07,32.11,8.51,32.37,6.86C196.51,422.35,190.77,419,187.78,417.23Z" transform="translate(-0.5 -0.51)"/><path class="cls-6" d="M489.05,91.83c1.24-.44,3.63-1.31,3.53-1.8-.15-.73-5.61.3-13.73-.29-4.58-.33-4.27-.76-6.4-.75a19.18,19.18,0,0,0-6.77,1.36,23.74,23.74,0,0,0,2.08-6.52c.3-2-.09-1.65.25-5.88.62-7.48,2.19-12.64,1.62-12.71-.39,0-1.42,2.25-1.95,3.45-9.46,21.32-8.19,22-11.15,25.76a16.2,16.2,0,0,0-2.82,4.88h-.1a5,5,0,0,0-1.92.26c-3.07-3.1-8-7.15-6.93-14.64.66-4.62,4.05-13.83,1.67-17.91-.3-.52-1.22-2.1-2.09-1.82s-1.08,1.72-1.18,2.15c-1.46,5.9-4.87,11.94-7.28,17.92-4.3,10.66-8,11.79-7.19,16.08.66,3.45,3.54,5.28,5.55,6.17-1.1.9-2.25,1.91-3.46,3-4.09,3.6-6.38,5.62-5.82,7.72.69,2.6,5.38,4,9.33,3.6a16.54,16.54,0,0,0,8-3.16,18.66,18.66,0,0,0,3.8,9.5c4.17,5.28,7.12,2.65,20.45,9.28C474,141.18,482,144,489,148.55c.5.34,2.23,1.51,2.83,1s-.54-3.17-1-4c-3.22-6.62-14.59-12.67-19.8-16.77-9.87-7.78-10.93-19-13.25-25.1a12.82,12.82,0,0,0,4.41-2.51C466,98.07,466.9,99.77,489.05,91.83Z" transform="translate(-0.5 -0.51)"/></svg>