<?xml version="1.0" encoding="utf-8"?>
<!-- Generator: Adobe Illustrator 25.3.1, SVG Export Plug-In . SVG Version: 6.00 Build 0)  -->
<svg version="1.1" id="Layer_1" xmlns="http://www.w3.org/2000/svg" xmlns:xlink="http://www.w3.org/1999/xlink" x="0px" y="0px"
	 viewBox="0 0 493.7 441" style="enable-background:new 0 0 493.7 441;" xml:space="preserve">
<style type="text/css">
	.st0{fill:#868e96;}
	.st1{fill:#F08C00;stroke:#F7941D;stroke-miterlimit:10;}
	.st2{fill:#adb5bd;}
</style>
<path class="st0" d="M197.6,375.3c-0.5,0.3-0.9,0.6-1.4,0.8c-0.4,0.2-0.8,0.5-1.1,0.7C196,376.3,196.8,375.8,197.6,375.3
	C197.6,375.3,197.6,375.3,197.6,375.3z"/>
<path class="st0" d="M293.8,61c0.5-2.5,1.1-5,1.8-7.4c2-6.3,4.9-12.3,8.4-17.8c0.8-1.4,1.7-2.8,2.5-4.1c0.8-1.3,1.7-2.7,2.5-3.9
	c1.6-2.4,3.4-4.5,5.5-6.4c0.8-0.7,1.7-1.3,2.6-1.8c0.8-0.3,1.4-0.4,1.6-0.3c0.2,0.2,0.1,0.3,0.2,0.5c0.3,0.4,0.6,0.7,0.9,1
	c0.7,0.7,1.3,1.5,1.8,2.2c0.3,0.5,0.7,0.9,1,1.5s0.6,1,1,1.6c1.4,2.3,2.8,4.8,4.1,7.5l0.1,0.3l0.5,0.7c4.1,6.6,8.6,12.9,13.4,19
	c4.9,6,10.2,11.8,15.4,17.6c2.6,2.9,5.2,5.8,7.7,8.8c2.5,3,4.9,6.1,7.2,9c7,3.5,13.2,8,18.6,13.1c-0.5-2.8-1.1-5.6-1.8-8.3
	c-0.2-1-0.5-2-0.8-3.1c-0.1-0.2-0.2-0.6-0.3-0.9c-0.1-0.3-0.2-0.6-0.4-1l-0.5-1l-0.5-0.9c-0.3-0.6-0.6-1-0.9-1.6
	c-0.3-0.5-0.6-0.9-0.9-1.4l-1.7-2.5c-2.2-3.2-4.3-6.4-6.2-9.8c-2-3.3-3.8-6.7-5.6-10.1c-1.8-3.4-3.6-6.9-5.3-10.4
	c-1.7-3.5-3.5-6.9-5.5-10.3c-3.8-6.7-8-13.2-12.5-19.4c-1.8-3.1-3.8-6-6-8.8c-1.3-1.7-2.8-3.3-4.4-4.7c-1.8-1.7-3.7-3.2-5.8-4.5
	c-2.5-1.6-5.3-2.7-8.2-3.3c-1.6-0.3-3.3-0.4-5-0.3c-1.7,0.1-3.3,0.5-4.9,1c-2.7,0.9-5.2,2.4-7.4,4.3c-1.7,1.5-3.3,3.3-4.6,5.2
	c-2.3,3.3-4.2,6.7-5.7,10.4c-1.4,3.4-2.6,6.8-3.4,10.4c-0.8,3.5-1.5,7-2.1,10.4c-0.6,3.5-1.3,6.8-2,10.2c-0.3,1.7-0.6,3.3-0.8,5
	C289.9,58.3,292,59.7,293.8,61z"/>
<path class="st1" d="M312.5,79.3"/>
<path class="st0" d="M177.5,384.2c-10.4,3.1-21.2,4.7-32.1,4.6c-2.7,0-5.4-0.2-8.1-0.5l-2-0.3l-2-0.4c-1.3-0.2-2.7-0.5-4-0.8
	c-5.3-1.1-10.5-2.7-15.6-4.6c-5-2-10-4.3-14.7-6.6c-4.7-2.4-9.4-4.8-14-6.9c-4.6-2.2-9.2-4.2-13.7-6.2c-2.3-1-4.5-2.1-6.6-3.2
	c-2.1-1.1-4.2-2.2-6.1-3.5c-1.8-1.1-3.6-2.3-5.2-3.7l-0.6-0.5l-0.5-0.5c-0.4-0.3-0.7-0.6-1.1-1c-0.3-0.3-0.8-0.8-1.3-1.3l-1.5-1.5
	c-2.3-2.4-4.7-4.6-7.3-6.6c-2.8-2.1-5.9-3.9-9.2-5.3c-3.4-1.4-7-2.3-10.6-2.6c-1.3-0.1-2.7-0.1-4-0.1c1.1-1.4,2.4-2.6,3.8-3.7
	c1.8-1.4,3.8-2.4,6-3.1c4.5-1.5,9.8-1.8,15.2-1.8h8.2c2.8,0,5.5-0.1,8.3-0.3c5.5-0.4,11-1.3,16.3-2.9c2.7-0.8,5.2-1.9,7.7-3.1
	c2.4-1.4,4.7-3,6.7-4.9c2-1.8,4.1-3.5,6.3-5.1c2.2-1.6,4.4-3,6.7-4.5c5.8-3.6,11.9-6.9,18.1-9.7c-0.6-0.7-1.2-1.5-1.7-2.2
	c-6.1,2.9-11.9,6.2-17.6,9.8c-2.3,1.5-4.5,3.1-6.7,4.8c-2.2,1.7-4.2,3.6-6.2,5.4c-1.9,1.9-4,3.5-6.3,4.8c-2.4,1.3-4.8,2.3-7.4,3
	c-5.1,1.5-10.5,2.2-15.9,1.9c-5.4-0.4-10.7-1.1-16-2.2c-2.7-0.5-5.5-0.9-8.3-1.2c-3-0.3-6-0.4-8.9-0.1c-3.2,0.3-6.3,1.1-9.3,2.4
	c-3,1.3-5.7,3-8.2,5.1c-1.3,1-2.5,2.2-3.6,3.4c-1.4,1.5-2.6,3.2-3.4,5c-0.5,1-0.9,2.2-1,3.3L0,337.8c0,0.3,0,0.6,0,0.8
	c0,0.3,0.1,0.6,0.1,0.9c0,0.3,0.1,0.6,0.1,0.9c0.2,0.7,0.4,1.3,0.6,2c0.3,0.7,0.7,1.3,1.2,1.9c0.5,0.6,1,1.1,1.5,1.5
	c0.5,0.4,1,0.7,1.5,1c0.2,0.1,0.4,0.3,0.6,0.4l0.6,0.3l0.6,0.2l0.5,0.2c0.3,0.1,0.7,0.2,1,0.3c0.6,0.1,1.1,0.3,1.6,0.4
	c0.5,0.1,0.9,0.2,1.4,0.2c1.6,0.3,2.9,0.4,4.1,0.7c1,0.2,2.1,0.4,3.1,0.8c1.7,0.6,3.4,1.4,4.9,2.5c1.6,1.1,3,2.4,4.3,3.8
	c1.5,1.6,2.8,3.3,4.1,5.1l1.2,1.6c0.4,0.6,0.8,1.1,1.4,1.8c0.5,0.6,1,1.3,1.7,2l0.9,1l0.9,0.9c2.3,2.3,4.8,4.5,7.5,6.5
	c2.6,1.9,5.1,3.5,7.8,5.1s5.3,2.9,8,4.2c5.3,2.6,10.9,4.5,16.6,5.8c11.4,2.7,23.2,2.4,34.6,1.8c5.7-0.3,11.3-0.6,16.8-1.1
	c2.8-0.2,5.5-0.5,8.3-0.8s5.5-0.4,8.2-0.6C156.4,389,167.2,387.5,177.5,384.2c5.3-1.5,10.3-3.6,15.1-6.1c0.8-0.4,1.6-0.9,2.4-1.3
	c-0.8,0.5-1.6,0.9-2.5,1.3C187.8,380.6,182.8,382.7,177.5,384.2z M14.2,337.7c0,0.1,0,0.2,0,0.3v0.2c0,0.1-0.1,0.2-0.1,0.3
	c0,0.1-0.1,0.2-0.1,0.1c0-0.4,0.1-0.7,0.2-1C14.2,337.7,14.2,337.7,14.2,337.7z"/>
<path class="st0" d="M493.6,158.1c-0.3-7.3-1.6-14.5-3.7-21.5c-2.1-7.1-5.2-14-9-20.4l-2.9-4.8l-7.4-2.9c-5.8-2.3-12-3.2-18.2-2.8
	c-6.9,0.5-13.6,2.9-19.2,7c-3.1,2.2-5.8,4.9-8,7.9c-1.1,1.6-2.1,3.2-3,5c-0.8,1.7-1.5,3.5-2.1,5.4c-1.1,3.5-1.6,7.2-1.5,10.9
	c0,0.9,0.1,1.7,0.2,2.6c0,0.8,0.1,1.7,0.3,2.5c0.3,1.6,0.6,3.1,1,4.7l-0.5-4c0.1-0.4,0.5-0.7,0.8-0.6c0.1,0,0.2,0.1,0.2,0.1
	c0.1,0.1,0.1,0.2,0.2,0.3c0.2,0.2,0.3,0.5,0.4,0.8c0.4,2,0.5,4,0.2,6c0,0.6-0.2,1.3-0.2,1.9c-0.1,0.6-0.2,1.3-0.4,2
	c-0.1,0.7-0.3,1.4-0.5,2.1s-0.4,1.4-0.6,2.1c-0.4,1.4-1,2.9-1.6,4.2c-0.6,1.4-1.3,2.7-2.1,4c-1,1.7-2.2,3.3-3.6,4.8
	c-0.4,3.8-1.1,7.6-2,11.2c1.4-0.7,2.9-1.3,4.4-1.9c3-1.2,6.1-2.3,9.3-3.3c6.5-2.1,13.8-4.1,20.9-8.5c3.9-2.4,7.2-5.6,9.9-9.4
	c0.8-1.1,1.4-2.2,2-3.4c0.2-0.4,0.4-0.8,0.6-1.2c0.3,1,0.6,2.1,0.9,3.2c1.1,4.4,1.7,8.8,1.8,13.3c0.1,4.8-0.2,9.6-0.9,14.4
	c-0.8,5-1.9,10-3.5,14.8c-5.1,15.4-13.6,29.5-24.9,41.2c-1.9,2-4,3.9-6.1,5.7c-1.1,0.9-2.1,1.9-3.2,2.7c-1.1,0.8-2.2,1.7-3.4,2.5
	c-4.6,3.3-9.4,6.2-14.5,8.7c-10.3,5-21.4,8-32.8,8.7c-5.5,0.4-11,0.2-16.5-0.7c-0.8,0.1-1.5,0.2-2.3,0.3c0.5,0,1.1,0.1,1.6,0.1
	c5.7,0.5,11.4,0.6,17.2,0.4c11.5-0.6,22.9-2.7,33.8-6.4c5.5-1.8,11-4,16.2-6.5c2.7-1.3,5.3-2.6,7.9-4c2.6-1.4,5.1-3,7.7-4.5
	c10.3-6.5,19.8-14.2,28.1-23.1c4.3-4.6,8.2-9.5,11.7-14.8c3.6-5.4,6.8-11.1,9.4-17c2.7-6.2,4.8-12.6,6.1-19.2
	c0.7-3.4,1.2-6.8,1.5-10.3c0.1-1.8,0.3-3.5,0.3-5.3C493.6,161.7,493.6,159.9,493.6,158.1z M460.6,143.9c0,0.2,0,0.3,0,0.5
	c0,0.2,0,0.3-0.1,0.5c-0.1,0.3-0.1,0.7-0.3,1l-0.4-3.1c0.1,0,0.2,0,0.3,0c0.1,0,0.3,0.3,0.3,0.4c0,0.1,0.1,0.2,0.1,0.3
	C460.6,143.7,460.6,143.8,460.6,143.9z"/>
<g>
	<path class="st2" d="M272.8,173.6c-1.6,0-3.1-0.1-4.7-0.2c0,0.1,0,0.2,0,0.2c0.8,7.5,2.6,14.9,5.2,22
		C272.2,188.4,272,181,272.8,173.6z"/>
	<path class="st2" d="M414.1,151.5c-0.7-10.2-3.1-20.2-6.9-29.6c-2-4.8-4.4-9.5-7.3-13.9c-2.9-4.5-6.2-8.7-9.9-12.5l-2.9-2.8
		c-1-0.9-2.1-1.7-3.1-2.6c-1-0.9-2.1-1.7-3.2-2.5c-1.1-0.8-2.1-1.7-3.3-2.4l-3.5-2.2c-1.1-0.8-2.4-1.3-3.6-2
		c-2.4-1.3-4.9-2.5-7.4-3.5c-1.3-0.5-2.7-1-4-1.5c-1.3-0.5-2.7-1-4.1-1.3c-2.8-0.6-5.6-1.1-8.4-1.4c-5.6-0.6-11.3-0.5-16.9,0.3
		l-2.1,0.3l-2.1,0.4c-1.4,0.3-2.8,0.7-4.2,1.1c-2.7,0.8-5.4,1.8-8,3c-1.2,0.6-2.4,1.2-3.6,1.8c4.7,5.3,8.6,10.6,11.7,15.8
		c0.7-0.3,1.5-0.6,2.2-0.8c1-0.2,2-0.6,2.9-0.8c0.9-0.2,1.9-0.5,2.9-0.6l1.5-0.3l1.5-0.2c4.1-0.5,8.2-0.6,12.2-0.3
		c2,0.1,4.2,0.4,6,0.7c1,0.1,1.9,0.4,2.9,0.7c0.9,0.3,1.9,0.5,2.9,0.8c2.1,0.7,4.1,1.4,6.1,2.2c1,0.4,2,0.8,3,1.3l2.9,1.4
		c3.9,2,7.6,4.3,11.1,6.9c14.1,10.5,24.9,26.8,29.5,45.3c1.1,4.6,1.8,9.4,2.2,14.1l0.1,3.6c0.1,1.2,0,2.4,0,3.6s-0.1,2.4-0.2,3.6
		c-0.1,1.2-0.2,2.4-0.4,3.6s-0.3,2.4-0.5,3.6l-0.7,3.6c-0.6,2.4-1.2,4.7-2.1,7c-0.7,2.1-1.6,4.1-2.5,6.1c0,0,0,0.1,0,0.1
		c3.2-6.4,5.6-13.1,7.1-20.1c1-4.8,1.7-9.7,2-14.6C414.5,161.4,414.5,156.4,414.1,151.5z"/>
</g>
<path class="st2" d="M375.2,165.2l-2-3.3l-1.9-2.6l-2-2.5c-0.7-0.8-1.4-1.6-2-2.4c-1.4-1.6-2.9-3.1-4.4-4.6
	c-0.8-0.7-1.5-1.4-2.3-2.1l-2.4-2c-6.1-5.1-13.2-8.9-20.9-11.1c-3.6-1-7.3-1.4-11-1.4c-3.7,0-7.4,0.4-11,1.3
	c-3.8,0.9-7.5,2.4-11,4.3l-1.4,0.7l-1.3,0.9c-0.9,0.6-1.8,1.2-2.6,1.8l-1.3,1c-0.4,0.3-0.9,0.6-1.2,1l-2.4,2.2l0.7-0.9
	c-5.4,6.6-9.4,14.3-11.7,22.5c-2.3,8.6-3.1,17.5-2.2,26.3c1.9,18.5,9.3,36,21.3,50.2c6,7.2,13.3,13.2,21.5,17.8
	c8.2,4.6,17.5,7,26.9,7c9.7-0.1,19.2-2.6,27.6-7.4c8.5-5,15.9-11.7,21.8-19.7l0,0c3.5-6.4,5.1-13.7,4.6-21c-0.5-7.1-2.5-14-5.7-20.3
	c-3.1-6.3-6.7-12.3-10.9-17.9l-3.1-4.2l-3.2-4.2l-3.2-4.2l-1.6-2.1l-0.4-0.5l-0.2-0.3l-0.3-0.4L375.2,165.2z M396.4,153.6l0.4,0.8
	l0.1,0.2l0.2,0.3l0.3,0.6c0.4,0.8,0.9,1.7,1.3,2.6c0.8,1.7,1.6,3.5,2.4,5.3s1.5,3.6,2.2,5.5s1.4,3.7,2,5.6
	c2.5,7.6,4.1,15.4,4.8,23.3c0.8,7.8,0.4,15.8-1.1,23.5c-1.5,7.4-4.4,14.5-8.5,20.9l0,0l0,0c-3.3,3.7-6.6,7.4-10.1,10.8
	c-3.6,3.4-7.4,6.6-11.4,9.4c-4.1,2.9-8.5,5.4-13.1,7.3c-4.7,2-9.7,3.3-14.7,3.9c-10.3,1.2-20.8-0.9-30.4-4.9
	c-9.6-4.2-18.3-10.1-25.7-17.5c-15.1-14.9-25.3-34-29.4-54.8c-2.1-10.7-2.3-21.8-0.5-32.6c0.9-5.5,2.4-10.9,4.5-16.1
	c2.1-5.3,4.6-10.3,7.7-15.1l0.1-0.2l0.6-0.7c1.9-2.2,3.8-4.5,5.9-6.6c1-1.1,2.1-2.1,3.2-3.2l1.6-1.6l1.8-1.5
	c4.8-4.1,10.2-7.4,16-9.9c6-2.6,12.4-4,19-4.4c6.5-0.3,13,0.4,19.3,2c12.1,3.1,23.2,9.3,32.3,18c1.1,1.1,2.2,2.1,3.2,3.2
	s2,2.2,3,3.4s1.9,2.3,2.8,3.5s1.8,2.4,2.6,3.7s1.6,2.5,2.4,3.8s1.5,2.6,2.1,3.9s1.3,2.7,1.9,4L396.4,153.6z"/>
<path class="st2" d="M143.6,146c1.3-4.3,3.1-8.6,5.2-12.9c-0.6-0.9-1.2-1.7-1.7-2.5c-0.8-1.2-1.7-2.6-2.4-3.7l-0.5-0.6
	c-0.7-1-1.2-2.1-1.7-3.2c-0.5-1.1-0.9-2.2-1.3-3.3c-0.2-0.5-0.4-1.1-0.5-1.7l-0.4-1.7c-0.1-0.3-0.1-0.5-0.2-0.8l-0.1-0.9l-0.2-1.7
	c-0.4-4.3,0.2-8.5,1.7-12.5c1.3-3.6,3.3-6.9,6-9.6c0.6-0.6,1.2-1.2,1.9-1.8c0.7-0.5,1.3-1.1,2-1.5c0.7-0.4,1.4-0.8,2-1.2
	c0.6-0.2,1.1-0.4,1.7-0.6l3.8-1.2c0.7-0.2,1.4-0.5,2.1-0.7c0.7-0.2,1.3-0.4,2-0.6c2.7-0.8,5.3-1.3,7.8-1.8c4.8-1.1,9.8-1.6,14.7-1.7
	c1.7,0,3.5,0.1,5.2,0.3c1.6-14.3,7.8-26.9,18.5-34.4c-1-0.5-2.1-1.1-3.1-1.6c-4.7-2.2-9.7-3.9-14.8-4.9c-5.1-1.1-10.3-1.5-15.6-1.4
	c-10.2,0.2-20.2,2.9-29.2,7.9c-1.1,0.5-2.1,1.2-3.2,1.8s-2.1,1.3-3.1,1.9c-1.9,1.2-4.2,2.9-6.2,4.4h0c-1.8,1.6-3.5,3.1-5.2,4.7
	c-1.4,1.6-2.9,3.2-4.1,4.9c-1.2,1.8-2.5,3.5-3.5,5.3s-2,3.7-2.8,5.6c-6.2,14.5-5.7,31,1.4,45.1c1.6,3.2,3.6,6.3,5.8,9.1
	c1.2,1.3,2.2,2.7,3.5,3.9s2.6,2.3,3.7,3.6l-0.5-0.6c1.3,1.5,2.5,2.7,3.7,3.9c1.3,1.2,2.5,2.4,3.9,3.5
	C141.2,144.1,142.4,145,143.6,146z"/>
<g>
	<path class="st2" d="M105.4,222.5c-5.8-3.4-10.8-7.9-14.9-13.3c0.3,0.4,0.6,0.8,0.9,1.2c0.9,1.1,1.7,2.2,2.7,3.2l1.4,1.6l1.5,1.5
		c1,1,2.1,1.9,3.2,2.8c1.6,1.3,3.2,2.5,4.9,3.7C105.2,223,105.3,222.7,105.4,222.5z"/>
	<path class="st2" d="M84.5,191.1l0.2-2c0-0.3,0.1-0.7,0.2-1l0.2-1l0.5-1.9c0.2-0.6,0.5-1.2,0.7-1.8c0.5-1.2,1-2.3,1.6-3.5
		c0.2-0.5,0.5-0.9,0.9-1.2c0.3-0.4,0.5-0.7,0.7-1l1.1-0.3c0.2-0.1,0.5-0.2,0.7-0.3l0.8-0.4c0.5-0.3,1.1-0.5,1.7-0.7
		c0.6-0.2,1.1-0.4,1.7-0.6c2.4-0.6,4.8-1,7.2-0.9c2.3,0,4.7,0.2,7,0.5c2.2,0.2,4.4,0.5,6.5,0.6c2.1,0.1,4.1,0.1,6.2,0l6.2-0.2
		c2.1-0.1,4.2-0.1,6.4-0.2s4.3-0.1,6.5-0.1c1.5,0,3.1,0,4.6,0.1c0.5-10.6,3.1-21.3,8.4-32c-1.6-0.8-3.3-1.5-4.9-2.2
		c-6.6-2.6-13.5-4.1-20.6-4.4c-7.1-0.2-14.3,0.5-21.1,3.2c-3.5,1.4-6.7,3.2-9.7,5.5c-3,2.3-5.7,4.9-8.2,7.8
		c-2.4,2.8-4.6,5.8-6.5,8.9c-0.5,0.7-0.9,1.5-1.4,2.3c-0.4,0.8-0.9,1.5-1.3,2.3l-0.6,1.2l-0.7,1.3c-0.5,1-1.1,2-1.5,3
		c-0.2,1-0.3,2.1-0.4,3.1c-0.1,1-0.2,1.9-0.2,2.9c0,1.6,0.2,3.3,0.5,4.9c0.1,0.8,0.2,1.6,0.4,2.4l0.6,2.3l0.3,1.1
		c0.1,0.4,0.3,0.7,0.4,1.1l0.8,2c1.1,2.7,2.3,5.4,3.8,8c1,1.9,2.1,3.7,3.2,5.5C85.4,200.9,84.3,196,84.5,191.1z"/>
	<path class="st2" d="M87.7,205.2c0.4,0.6,0.7,1.3,1.1,1.9c0.5,0.7,1,1.5,1.6,2.2c-0.5-0.7-1-1.5-1.6-2.2
		C88.5,206.4,88.1,205.8,87.7,205.2z"/>
</g>
<path class="st2" d="M130.5,87.9c-1.5-0.2-3-0.4-4.5-0.6h0c-1.6-0.1-3.1-0.2-4.7-0.2c-1.5,0-3.1,0.2-4.6,0.4
	c-2.9,0.5-5.8,1.4-8.5,2.6c-5.1,2.3-9.8,5.2-14,8.8c-7.8,6.6-13.9,14.9-17.8,24.3c-3.8,8.8-5.5,18.5-4.9,28.1
	c0.6,9,3.4,17.7,8.2,25.4l-0.1-0.3c1.5,2.8,3.4,5.4,5.5,7.8c0.1-3.3,0.7-6.6,1.8-9.9c0.5-0.6,0.9-1.2,1.4-1.8
	c-1.7-6.4-1.4-13.1,0.8-19.3c2.1-5.8,5.7-11.1,10.3-15.2c4.2-3.8,9.1-6.7,14.4-8.4c2.2-0.7,4.5-1.1,6.8-1.1c0.5-0.1,1,0,1.4,0
	c0.4,0,0.9,0,1.3-0.1c0.4-0.1,0.8-0.2,1.1-0.3c0.4-0.1,0.8-0.2,1.1-0.4c3.2-0.5,6.3-0.6,9.5-0.6C126.7,114.8,125.7,100.1,130.5,87.9
	z"/>
<path class="st2" d="M161.5,320.2c-3.6-1.3-7.1-2.8-10.5-4.5c-5.6-2.7-10.9-5.8-15.9-9.4c-4.9-3.6-9.5-7.7-13.6-12.2
	c-0.5-0.6-1-1.1-1.5-1.7l-1.5-1.8c-1-1.2-1.9-2.4-2.9-3.6l-1.4-1.8l-1.3-1.9l-1.3-1.9l-1.2-1.9c-3.2-5.1-5.7-10.6-7.5-16.3
	c-0.9-2.8-1.6-5.7-2.1-8.7c-0.3-1.5-0.4-2.9-0.6-4.4c-0.1-1.5-0.3-2.9-0.2-4.4c0.1-1.5,0-2.9,0.1-4.4l0.2-2.2
	c0.1-0.7,0.1-1.4,0.3-2.2c0.2-1.4,0.5-2.8,0.8-4.2l0.5-2.1c0.2-0.7,0.4-1.4,0.6-2c1.6-5.4,4.3-10.4,7.7-14.8
	c3.4-4.2,7.5-7.7,12.1-10.4c4.5-2.6,9.4-4.5,14.5-5.7l1.9-0.5c0.6-0.1,1.3-0.2,1.9-0.3c1.3-0.2,2.5-0.5,3.9-0.6l2-0.2
	c0.2,0,0.5-0.1,0.7-0.1c-2.9-10.9-3.8-22.4-1.8-33.9c-0.3,0.1-0.7,0.3-1,0.4l-4.7,2c-0.8,0.3-1.6,0.7-2.5,1.1l-2.6,1.2
	c-1.7,0.8-3.4,1.8-5,2.7c-0.8,0.5-1.6,0.9-2.4,1.4l-2.4,1.5c-6.3,4.1-12,9.1-16.9,14.8c-4.8,5.6-8.8,11.8-11.8,18.5
	c-2.9,6.5-4.8,13.3-5.7,20.3c-3.4,27.6,8.2,54.2,26.8,72c9.3,9,19.9,16.4,31.6,21.9c4.6,2.2,9.3,4.1,14.1,5.8
	C162.5,323.9,162,322.1,161.5,320.2z"/>
<path class="st2" d="M169.6,344.9c-8.4-4.5-15.7-10.6-21.7-18.1c-3.2-3.9-6.1-8.1-8.9-12.1c-2.5-3.6-5-7-7.2-10.6
	c-6.4-4.7-12.2-10.1-17-16.2c-0.6-0.6-1.1-1.3-1.6-1.9c0,0.1,0,0.2,0,0.3l0.3,2.3c0.2,1.5,0.5,2.9,0.8,4.4
	c1.5,5.5,3.7,10.8,6.7,15.7c2.7,4.7,6,9.1,9.8,13.1c3.8,3.8,7.9,7.2,12.3,10.3l12.9,9.2c4.3,3.1,8.5,6.1,12.9,9
	c2.8,1.9,5.7,3.6,8.6,5.2C174.7,352.1,172,348.6,169.6,344.9z"/>
<path class="st2" d="M168.1,245.1c1.5,1.4,3,2.7,4.5,4l2.2,2l2.2,2c1.6,1.4,3.3,2.8,5,4.1c1.8-1.1,3.6-2.1,5.4-3
	c-2.2-1.8-4.4-3.6-6.6-5.5l-2.1-1.9l-2.1-2c-0.7-0.7-1.3-1.4-1.9-2.1c-0.6-0.7-1.3-1.4-1.9-2.2c-4.9-5.8-9.2-12.1-12.9-18.7
	c-7.2-13.2-11.4-27.8-11.2-41.8c0-1.8,0-3.5,0.2-5.2s0.4-3.4,0.6-5.1c0.3-1.7,0.7-3.4,1-5l0.7-2.5c0.2-0.8,0.4-1.6,0.7-2.5
	c1.8-5.9,4.4-11.6,7.5-16.9c7.7-7.3,17-12.7,27.1-15.9c10.7-3.3,21.9-4.6,33-3.9c1.5,0.1,2.9,0.2,4.3,0.3l4.4,0.6l4.4,0.8l4.4,1
	l4.3,1.2l4.3,1.4l4.2,1.6c1.4,0.6,2.8,1.2,4.1,1.9c1.4,0.7,2.7,1.4,4,2.1l3.9,2.3l3.8,2.6c1.2,0.9,2.5,1.8,3.7,2.8
	c2.3,2,5,3.7,6.4,6.5c0.8,1.4,1.2,3,1.8,4.5c0.1,0.3,0.2,0.6,0.3,1c1.5-4.4,3.3-8.8,5.7-13c-1.4-0.9-2.7-2-3.8-3.2l-3.6-3.6
	l-3.7-3.5l-3.9-3.3l-4-3.2l-4.1-3l-4.3-2.9l-4.4-2.7l-4.5-2.6l-4.7-2.4l-4.8-2.2c-1.6-0.7-3.3-1.4-4.9-2s-3.3-1.2-5-1.7
	c-1.7-0.4-3.4-1-5.2-1.4c-10.6-2.7-21.7-3.3-32.6-1.7c-11.1,1.7-21.7,5.8-31.2,12c-6.2,4.1-11.9,8.9-16.8,14.5l-1.2,1.4l-0.5,0.9
	c-4.1,7.9-6.9,16.3-8.5,25.1c-0.8,4.4-1.2,8.8-1.2,13.2c-0.1,4.4,0.2,8.8,0.9,13.1c1.3,8.5,3.8,16.7,7.3,24.5
	c3.5,7.5,7.8,14.7,12.8,21.3c2.5,3.2,5.1,6.4,7.8,9.4C162.4,239.5,165.2,242.4,168.1,245.1z"/>
<path class="st2" d="M186,99.8c0.3,1.8,0.4,3.5,0.8,5.2c0.3,1.4,0.6,2.8,1,4.2c2.5-0.6,4.9-1.1,7.4-1.4c-0.7-6-0.9-12.1-0.5-18.2
	c0.1-1.6,0.3-3.1,0.5-4.7c0.3-1.5,0.6-3,1-4.5c0.2-0.7,0.5-1.5,0.8-2.2c0.3-0.7,0.5-1.5,0.8-2.1s0.7-1.3,1-2c0.3-0.7,0.7-1.4,1.1-2
	c2.8-4.9,7-9,12-11.7c0.6-0.3,1.2-0.6,1.8-0.8l1.8-0.8c1.3-0.3,2.4-0.8,3.6-1.1c2.4-0.6,4.9-1.1,7.4-1.3c1.3-0.1,2.5-0.2,3.8-0.2
	c0.7,0,1.4,0,2,0c0.4,0,0.7,0,1,0l1,0.1l2,0.2c0.7,0,1.3,0.1,2,0.2c1.4,0.2,2.7,0.4,4.1,0.6l1.5,0.1c2.2,0.3,4.4,0.4,6.6,0.8
	c1.1,0.2,2.2,0.3,3.3,0.6l3.2,0.8c4.3,1.1,8.6,2.6,12.7,4.3c4.2,1.8,8.3,3.9,12.2,6.3c2,1.2,3.9,2.5,5.8,3.9c1,0.7,1.9,1.4,2.8,2.1
	l1.4,1.1l1.5,1.3c3.2,2.6,6.2,4.8,9.2,7.4c3,2.5,6,5.1,8.9,7.8c5.8,5.4,11,11.7,14.2,19.1c0.2,0.5,0.4,1,0.6,1.5
	c1.9-0.1,3.8,0,5.6,0.1c-0.1-1.1-0.3-2.1-0.5-3.2c-1.6-8.9-4.4-17.5-8.3-25.7c-2-4.1-4.3-8.1-6.9-11.8c-2.6-3.7-5.4-7.1-8.5-10.4
	l-1.4-1.5l-1.5-1.5c-1-1.1-2.1-2.1-3.1-3.1c-2.1-2-4.4-3.9-6.7-5.8c-4.7-3.7-9.8-6.9-15.2-9.5c-5.4-2.7-11.1-4.8-17-6.3
	c-5.9-1.4-12-2.2-18.1-2.3c-1.5-0.1-3-0.3-4.5-0.4c-1-0.1-2-0.1-3-0.1h-3h-1.5c-0.5,0-1,0.1-1.5,0.1c-1.1,0.1-2.1,0.2-3.1,0.3
	c-2.1,0.2-4.1,0.6-6.1,1.2c-8.2,2.1-15.7,6.6-21.4,12.9c-5.2,6-9,13-11.3,20.6c-2.1,7-3.3,14.2-3.7,21.4c0,1.8-0.2,3.6-0.1,5.3
	S185.8,98,186,99.8z"/>
<path class="st2" d="M315.7,341.2l-0.3,1.3l-1.4,3.2l-0.8,1.5l-0.9,1.5l-1.8,3.1l-2,3l-1,1.5l-1.1,1.4c-0.7,0.9-1.4,1.9-2.1,2.8
	l-2.3,2.7l-0.6,0.7l-0.6,0.6l-1.2,1.3c-0.8,0.9-1.6,1.7-2.5,2.5c-0.9,0.8-1.8,1.6-2.7,2.3l-2.8,2.2c-1,0.8-2,1.4-2.9,2
	c-3.9,2.6-8.1,4.9-12.5,6.6c-4.4,1.8-8.9,3.1-13.5,4c-4.7,0.9-9.4,1.3-14.1,1.4c-9.5,0.1-19-1.4-27.9-4.6c-8.8-3.4-17-8.2-24.4-14.1
	c-0.9-0.7-1.8-1.5-2.7-2.2l-2.6-2.3c-1.6-1.6-3.2-3.3-4.7-5.1c-3-3.6-5.8-7.4-8.3-11.3c-5-7.8-8.6-16.4-10.7-25.5
	c-1.9-8.9-2-18,0.8-25.7c0.1-0.5,0.3-0.9,0.5-1.4c0.2-0.5,0.4-0.9,0.6-1.4l0.6-1.3c0.2-0.4,0.5-0.8,0.7-1.2c1-1.6,2.2-3.2,3.5-4.7
	c2.6-3,5.8-5.5,9.4-7.4c3.6-1.8,7.5-3,11.4-3.5c4-0.5,8.1-0.6,12.1-0.3c4,0.3,8,0.9,11.8,1.4c2.1,0.3,4.2,0.6,6.2,0.9
	c-3.6-17.1-1.4-35.2,6.8-50c-0.3,0-0.7,0-1,0c-12.1,0.8-23.9,4.4-34.4,10.5c-5.3,3-10.4,6.5-15.1,10.4c-4.6,3.9-8.9,8.1-12.8,12.7
	c-3.8,4.5-7.2,9.3-10.1,14.5c-1.4,2.6-2.7,5.3-3.7,8.1c-0.2,0.7-0.5,1.5-0.7,2.2l-0.6,2.2c-0.2,0.7-0.3,1.4-0.5,2.2
	s-0.3,1.4-0.4,2.2c-0.4,2.8-0.7,5.7-0.7,8.6c0,1.4,0,2.8,0.1,4.2l0.1,2.1l0.2,2.1c0.7,5.4,1.9,10.6,3.7,15.7
	c3.4,9.8,8.2,19.1,14.3,27.5c3,4.2,6.3,8.1,9.9,11.8c1.8,1.8,3.7,3.6,5.6,5.3l3,2.4c1,0.8,2.1,1.5,3.1,2.2c4.2,2.9,8.6,5.4,13.1,7.5
	c4.6,2.1,9.3,3.9,14.1,5.2c4.8,1.4,9.6,2.6,14.5,3.4c4.9,0.8,9.9,1.2,14.9,1.2c5-0.1,10-0.5,14.9-1.4c4.9-0.9,9.8-2.4,14.5-4.2
	c4.7-1.8,9.2-4.1,13.4-6.9c1-0.7,2.1-1.3,3.1-2.1l3-2.3c1-0.8,1.9-1.7,2.9-2.5s1.9-1.7,2.7-2.6l1.3-1.3l0.7-0.7l0.6-0.7l2.5-2.9
	c0.8-0.9,1.5-2,2.3-3l1.1-1.5c0.4-0.5,0.7-1.1,1-1.6l2.1-3.2l1.9-3.3l0.9-1.7l0.9-1.8l1.7-3.5l0.9-3.8
	C319.2,340.7,317.5,341,315.7,341.2z"/>
<path class="st0" d="M392.4,329.3l-0.2-3.5c-0.3-2.2-0.5-4.4-0.9-6.6c-0.8-4.4-1.9-8.8-3.5-13c-3-8.5-7.3-16.5-12.7-23.7
	c-2.6-3.4-5.4-6.6-8.4-9.6c1.6,13.4,0,26.8-5.7,39.1c0.2,0.7,0.4,1.5,0.6,2.2c0.7,3.1,1.3,6.2,1.7,9.3c0.2,1.6,0.4,3.2,0.5,4.8
	l0.2,2.3v0.6v1.5c0,6.1-1.2,12.1-3.4,17.8c-2.4,6-5.9,11.5-10.2,16.3c-1.1,1.2-2.2,2.4-3.4,3.6L345,372l-1.9,1.6
	c-2.5,2.2-5.1,4.2-7.8,6.1c-5.4,3.8-10.8,7.3-16.1,10.7c-5.3,3.4-10.5,6.7-15.6,9.7c-4.7,2.8-9.6,5.2-14.7,7.1
	c-2.1,0.8-4.2,1.3-6.3,1.7c-2.1,0.3-4.3,0.1-6.2-0.7l1.6,2.6c-0.1,0.1-0.2,0.2-0.3,0.3c-0.1,0.1-0.2,0.2-0.3,0.2
	c-0.2,0.1-0.5-0.1-0.7-0.4c-0.4-1.5-0.6-3-0.6-4.5c-0.1-1.9-0.2-4-0.5-6.1c-0.3-2-0.7-4.1-1.3-6l-0.1-0.7c-1.2-2.6-2.5-5.2-3.8-7.7
	c-2.2,0.7-4.5,1.3-6.7,1.8c0.2,2.7,0.4,5.4,0.3,8l-0.1-0.7c-0.3,1.5-0.7,2.9-1.3,4.3c-0.6,1.4-1.2,2.8-1.9,4.1
	c-1,1.8-1.8,3.7-2.4,5.7c-0.4,1.5-0.6,3.1-0.6,4.7c0,0.9,0.1,1.8,0.2,2.7c0.1,0.9,0.3,1.8,0.6,2.7l1.6,2.6c1.4,2.5,3.2,4.9,5.2,7
	c2.1,2.1,4.5,4,7,5.5c2.5,1.5,5.2,2.8,8,3.7c2.7,0.9,5.4,1.6,8.2,2.1c2.6,0.4,5.3,0.7,8,0.8c2.6,0.1,5.1,0,7.7-0.3
	c4.9-0.4,9.7-1.4,14.3-2.8c8.9-2.7,17.2-6.7,24.8-12.1c7.3-5.3,13.7-11.6,19.2-18.6c2.7-3.5,5.3-7.2,7.7-10.9l1.8-2.8l1.7-2.9
	l1.6-2.9l1.5-3c2.1-3.9,4-7.9,5.8-12c1.8-4.1,3.4-8.2,4.9-12.5c3-8.8,4.7-17.9,5-27.2v-2.8L392.4,329.3z"/>
<g>
	<path class="st2" d="M322.7,339.6l-1.8,0.1c-1.2,0.1-2.3,0.1-3.5,0.1c-2.3,0-4.7,0-7-0.3c-4.6-0.5-9.2-1.3-13.7-2.6
		c-8.9-2.4-17.4-6.2-25.2-11.1c-3.8-2.4-7.4-5.2-10.7-8.2l-2.5-2.4l-2.5-2.4c-0.4-0.4-0.8-0.8-1.2-1.2l-1.1-1.2
		c-0.7-0.8-1.5-1.6-2.2-2.5l-1.9-2.6c-0.4-0.4-0.7-0.9-1-1.3l-0.9-1.4l-1.7-2.8l-1.5-2.9c-0.2-0.5-0.5-0.9-0.7-1.4l-0.6-1.5
		c-0.4-1-0.9-1.9-1.3-2.9c-0.7-2-1.5-3.9-2-6c-1.1-4-1.9-8.1-2.3-12.3l-0.2-3.1c-0.1-1-0.1-2.1-0.1-3.1c-0.1-2,0.1-4.1,0.2-6.1
		c0.6-7.9,2.5-15.6,5.6-22.8l0.6-1.3c0.2-0.4,0.4-0.8,0.6-1.3c0.4-0.8,0.9-1.7,1.3-2.5c1-1.6,2-3.2,3-4.8c1-1.6,2.2-3,3.4-4.4
		c0.6-0.7,1.3-1.3,1.9-2l0.9-1c0.3-0.3,0.7-0.6,1-0.9c0.7-0.6,1.3-1.3,2-1.9c0.7-0.6,1.4-1.2,2.1-1.8l1-0.9l1.1-0.9
		c0.8-0.6,1.4-1.2,2.2-1.8c0.8-0.5,1.6-1.1,2.4-1.7l1.2-0.9l1.2-0.8c0.8-0.5,1.7-1.1,2.5-1.7l2.7-1.5c0.2-0.1,0.4-0.2,0.6-0.4
		c-2-6.6-3.4-13.4-3.9-20.2c-1,0.1-1.9,0.2-2.9,0.4c-1.4,0.2-2.8,0.3-4.1,0.7c-1.3,0.3-2.7,0.7-4.1,1.1l-2,0.6l-2,0.8
		c-1.4,0.5-2.7,1-4,1.6c-1.3,0.6-2.5,1.3-3.8,2l-1.9,1c-0.6,0.4-1.2,0.8-1.8,1.2c-1.2,0.8-2.4,1.6-3.5,2.5c-1.1,0.9-2.2,1.9-3.3,2.9
		c-0.5,0.5-1.1,1-1.6,1.5l-1.5,1.6c-1,1.1-2,2.1-2.9,3.2l-2.7,3.4l-0.7,0.9l-0.6,0.9l-1.2,1.8c-1.6,2.4-3,4.9-4.3,7.4
		c-0.6,1.3-1.2,2.6-1.7,3.9c-0.3,0.7-0.6,1.3-0.8,2l-0.7,2c-3.7,10.5-5.1,21.7-4.1,32.8c2,21.4,12.1,41.2,28.3,55.4l3,2.4l1.5,1.2
		c0.5,0.4,1,0.7,1.5,1.1l6,4.2l3.2,2c1.1,0.6,2.1,1.3,3.2,1.9c2.2,1.2,4.4,2.4,6.6,3.4c8.9,4.2,18.3,7,28,8.4
		c4.8,0.7,9.6,1,14.5,0.8c2.4-0.1,4.8-0.2,7.2-0.5c1.2-0.1,2.4-0.3,3.6-0.5l1.8-0.3l1.8-0.4c8.7-1.8,17.2-5.4,24-11.1
		c-7,5.6-15.3,9-24.2,10L322.7,339.6z"/>
	<path class="st2" d="M350,328.2c-0.5,0.4-0.9,0.8-1.4,1.2C349.1,329,349.6,328.6,350,328.2z"/>
	<path class="st2" d="M367.2,275.6c0-0.6-0.1-1.2-0.1-1.8l-0.2-1.8l-0.5-3.5c-0.2-1.2-0.4-2.3-0.7-3.5c-0.1-0.4-0.2-0.8-0.2-1.1
		c-0.2,0.1-0.3,0.1-0.5,0.2c0.9,3.8,1.5,7.7,1.9,11.6l0.3,3.5c0,1.2,0,2.4,0,3.5s0.1,2.4,0,3.5l-0.3,3.5c-0.1,0.6-0.1,1.2-0.2,1.8
		l-0.3,1.8l-0.6,3.5l-0.8,3.4c-0.3,1.2-0.6,2.3-1,3.4c-2.9,9.1-7.7,17.4-14,24.5c6.3-7.1,11.1-15.4,14-24.4c0.4-1.1,0.7-2.3,1-3.4
		l1-3.5l0.6-3.5l0.3-1.8c0.1-0.6,0.1-1.2,0.2-1.8l0.3-3.5c0.1-1.2,0.1-2.4,0.1-3.5s0.1-2.4,0-3.6L367.2,275.6z"/>
</g>
</svg>
