<?xml version="1.0" encoding="utf-8"?>
<!-- Generator: Adobe Illustrator 25.3.1, SVG Export Plug-In . SVG Version: 6.00 Build 0)  -->
<svg version="1.1" id="Layer_1" xmlns="http://www.w3.org/2000/svg" xmlns:xlink="http://www.w3.org/1999/xlink" x="0px" y="0px"
	 viewBox="0 0 900 500" style="enable-background:new 0 0 900 500;" xml:space="preserve">
<style type="text/css">
	.st0{fill:#73B844;}
	.st1{fill:#5D9540;}
	.st2{fill:#F8B019;}
	.st3{fill:#EE8D22;}
	.st4{fill:#EE8D22;stroke:#F89521;stroke-miterlimit:10;}
	.st5{fill:url(#SVGID_1_);}
	.st6{fill:url(#SVGID_2_);}
	.st7{fill:url(#SVGID_3_);}
	.st8{fill:url(#SVGID_4_);}
	.st9{fill:url(#SVGID_5_);}
	.st10{fill:url(#SVGID_6_);}
</style>
<g>
	<path class="st0" d="M735.02,46.32c2.33-9.13,13.07-45.44,29.03-15.6c27.08,40.46,26.67,37.23,27.97,41.42
		c8.55,27.57-5.26,65.63-19.9,67.24C753.87,141.38,725.13,87.57,735.02,46.32z"/>
	<path class="st1" d="M732.8,45.77c0.45-2.17,0.88-4.28,1.26-6.47c0.38-2.18,0.78-4.37,1.31-6.58c0.53-2.24,1.25-4.43,2.15-6.54
		c0.96-2.31,2.17-4.51,3.6-6.56c0.85-1.2,1.83-2.3,2.92-3.28c1.36-1.2,2.95-2.12,4.66-2.71c0.99-0.34,2.03-0.55,3.07-0.63
		c1.06-0.06,2.12,0.01,3.16,0.21c1.83,0.38,3.58,1.09,5.16,2.1c1.3,0.82,2.51,1.76,3.63,2.81c0.99,0.93,1.91,1.93,2.76,2.99
		c1.55,1.93,2.93,3.98,4.13,6.14l-0.37-0.63c2.84,3.95,5.48,8.04,7.89,12.26c1.2,2.13,2.34,4.28,3.44,6.47
		c1.1,2.2,2.2,4.38,3.35,6.53c1.15,2.15,2.3,4.3,3.55,6.39c1.24,2.09,2.57,4.11,3.94,6.15l1.05,1.58c0.18,0.28,0.35,0.54,0.54,0.86
		c0.2,0.33,0.37,0.59,0.58,0.99l0.29,0.56l0.28,0.63c0.1,0.22,0.16,0.42,0.24,0.63c0.08,0.21,0.15,0.43,0.2,0.59
		c0.22,0.71,0.36,1.33,0.52,1.97c0.65,2.52,1.14,5.08,1.47,7.66c0.64,5.09,0.79,10.22,0.45,15.34c-0.14,2.52-0.45,5.05-0.8,7.57
		c-0.35,2.52-0.85,5.01-1.47,7.47c-0.27,1.26-0.63,2.46-0.97,3.69c-0.34,1.22-0.73,2.44-1.17,3.63c-0.82,2.42-1.79,4.79-2.9,7.1
		c-2.21,4.63-4.97,9.13-9.02,12.88c-2.13,2.03-4.73,3.5-7.57,4.28l-1.17,0.2l-0.59,0.09h-0.59c-0.39,0.02-0.78,0.02-1.17,0
		c-0.38-0.02-0.77-0.06-1.15-0.12c-1.45-0.23-2.86-0.67-4.19-1.29c-2.44-1.17-4.68-2.7-6.66-4.55c-1.89-1.74-3.63-3.63-5.22-5.64
		c-3.09-3.94-5.8-8.17-8.1-12.62c-2.27-4.43-4.28-8.98-6.01-13.65c-3.56-9.25-5.98-18.89-7.2-28.72
		C730.92,65.8,730.88,55.74,732.8,45.77z M737.25,46.86c-2.59,9.05-3.09,18.83-1.98,28.35c0.53,4.78,1.4,9.52,2.6,14.17
		c1.17,4.67,2.65,9.26,4.42,13.74c1.78,4.46,3.89,8.77,6.31,12.92c2.36,4.12,5.11,8,8.2,11.6c1.52,1.75,3.18,3.37,4.95,4.85
		c1.67,1.42,3.54,2.57,5.55,3.43c0.9,0.37,1.85,0.62,2.82,0.73c0.22,0.03,0.45,0.04,0.67,0.04c0.21,0,0.42-0.01,0.63-0.03h0.32
		c0.11,0,0.21-0.05,0.32-0.08l0.63-0.13c1.85-0.66,3.52-1.75,4.86-3.19c1.53-1.58,2.88-3.33,4.01-5.22c1.2-1.94,2.26-3.97,3.16-6.07
		c0.94-2.12,1.77-4.29,2.48-6.5c0.73-2.21,1.34-4.47,1.86-6.75c0.52-2.28,0.93-4.59,1.26-6.9c0.33-2.31,0.57-4.65,0.63-6.98
		c0.24-4.63-0.03-9.28-0.81-13.85c-0.4-2.24-0.95-4.45-1.63-6.63c-0.17-0.54-0.35-1.1-0.52-1.55c-0.04-0.13-0.08-0.18-0.11-0.27
		c-0.03-0.08-0.07-0.16-0.11-0.23l-0.11-0.2l-0.16-0.23c-0.08-0.14-0.25-0.36-0.39-0.56c-0.14-0.2-0.32-0.43-0.49-0.63l-1.07-1.39
		c-1.48-1.89-3.02-3.85-4.59-5.74c-1.58-1.89-3.21-3.74-4.87-5.58c-3.22-3.71-6.61-7.31-9.69-11.13c-3.05-3.83-5.88-7.83-8.47-11.99
		l-0.29-0.45l-0.08-0.17c-0.84-1.68-1.71-3.29-2.59-4.72c-0.22-0.37-0.44-0.68-0.63-1.03c-0.2-0.35-0.44-0.63-0.63-0.92
		c-0.35-0.5-0.73-0.97-1.15-1.41c-0.22-0.2-0.42-0.42-0.59-0.66c-0.06-0.13,0.03-0.23-0.11-0.33c-0.14-0.11-0.51-0.05-1,0.16
		c-0.6,0.31-1.16,0.7-1.67,1.15c-1.32,1.2-2.48,2.57-3.46,4.06c-0.54,0.79-1.06,1.62-1.58,2.47c-0.52,0.85-1.05,1.71-1.58,2.59
		C740.31,39.12,738.53,42.9,737.25,46.86z"/>
	<path class="st0" d="M743.83,174.34c62.24,41.71,131.4-35.72,99.52-80.26c-8.53-2.92-17.08,2.8-15.06,11.84
		c0.29,12.04-21.63,27.47-40.89,30.87c-32.45,5.72-53.97-23.3-63.48-15.95C715.43,127.44,722.58,158.56,743.83,174.34z"/>
	<path class="st1" d="M744.9,172.86c1.48,0.92,3.02,1.72,4.56,2.57c0.38,0.21,0.76,0.45,1.13,0.68l1.14,0.68
		c0.76,0.44,1.5,0.93,2.28,1.33c0.78,0.4,1.54,0.86,2.32,1.26l2.37,1.2c1.6,0.76,3.21,1.52,4.88,2.16c0.83,0.35,1.67,0.63,2.52,0.93
		l1.26,0.44l1.29,0.38c0.86,0.24,1.73,0.49,2.61,0.66c0.88,0.18,1.76,0.41,2.65,0.52c3.57,0.57,7.19,0.74,10.8,0.49
		c7.2-0.47,14.24-2.34,20.73-5.5c3.21-1.55,6.27-3.39,9.15-5.5c0.72-0.51,1.41-1.08,2.11-1.61c0.7-0.53,1.35-1.14,2.03-1.7
		c1.33-1.17,2.63-2.35,3.84-3.62c7.13-7.38,12.49-16.28,15.7-26.03c0.98-3.05,1.71-6.17,2.2-9.34c0.47-3,0.66-6.03,0.57-9.07
		c-0.06-2.84-0.43-5.66-1.11-8.42c-0.62-2.58-1.56-5.08-2.81-7.42c-1.24-2.24-2.77-4.32-4.54-6.18l6.49,4.83
		c-0.27,0.11-0.32,0.32-0.15,0.4c0.18,0.08,0.63,0.05,1.14-0.37c0.66-0.56,1.11-1.34,1.26-2.2c0.03-0.1,0.04-0.21,0.04-0.32
		c-0.01-0.1-0.01-0.19,0-0.29c0.01-0.08,0.01-0.17,0-0.25c-0.03-0.07-0.05-0.14-0.07-0.21c0-0.09-0.13-0.23-0.18-0.26
		c-0.06-0.02-0.13-0.02-0.2,0l0.31,2.52c0,0.54-0.08,1.09-0.13,1.62c-0.05,0.52-0.13,1.04-0.23,1.56c-0.19,0.97-0.45,1.92-0.79,2.85
		c-0.16,0.44-0.33,0.9-0.5,1.31c-0.18,0.41-0.38,0.8-0.58,1.19c-0.38,0.75-0.81,1.47-1.29,2.15c-1.65,2.37-3.77,4.39-6.22,5.93
		c-4.46,2.81-9.07,4.06-13.2,5.4c-2.06,0.63-4.02,1.33-5.89,2.08c-1.87,0.75-3.64,1.6-5.42,2.45c-3.56,1.67-7.24,3.06-11.01,4.16
		c-3.76,1.12-7.63,1.87-11.54,2.24c-3.91,0.36-7.84,0.27-11.72-0.25c-7.76-1.03-15.14-3.68-22.09-7.06
		c-3.48-1.66-6.87-3.49-10.24-5.29c-1.68-0.89-3.36-1.78-5.05-2.58c-1.64-0.82-3.35-1.48-5.11-1.98c-1.7-0.44-3.38-0.52-4.64,0.12
		c-1.34,0.8-2.33,2.08-2.76,3.58c-0.53,1.67-0.81,3.42-0.81,5.17c-0.03,1.82,0.09,3.65,0.37,5.45c0.56,3.67,1.51,7.27,2.85,10.73
		c1.32,3.49,2.95,6.86,4.88,10.05c1.92,3.2,4.14,6.19,6.64,8.95c0.63,0.69,1.26,1.38,1.89,2.02s1.33,1.29,2.01,1.89
		c0.68,0.6,1.41,1.21,2.1,1.8C743.45,171.79,744.19,172.3,744.9,172.86z M742.79,175.86c-0.78-0.63-1.6-1.26-2.35-1.89
		c-0.75-0.63-1.5-1.26-2.2-1.99s-1.43-1.36-2.1-2.09c-0.67-0.73-1.34-1.45-1.98-2.19c-5.1-5.98-9.13-12.8-11.91-20.14
		c-0.7-1.84-1.3-3.71-1.8-5.61c-0.51-1.91-0.91-3.84-1.18-5.8c-0.3-1.98-0.41-3.98-0.33-5.98c0.05-2.07,0.42-4.12,1.1-6.08
		c0.18-0.5,0.43-1,0.66-1.49l0.43-0.71c0.08-0.12,0.15-0.24,0.23-0.35l0.27-0.33c0.18-0.23,0.36-0.45,0.55-0.66l0.63-0.59
		c0.45-0.39,0.95-0.72,1.49-0.97c1.07-0.49,2.23-0.73,3.41-0.69c1.07,0.04,2.13,0.21,3.16,0.51c1.91,0.59,3.76,1.35,5.53,2.28
		c1.74,0.87,3.42,1.81,5.09,2.75c3.34,1.89,6.64,3.79,10.03,5.46c3.38,1.69,6.87,3.15,10.44,4.37c3.56,1.2,7.24,2.01,10.97,2.43
		c3.71,0.41,7.46,0.37,11.16-0.12c3.71-0.53,7.35-1.45,10.86-2.76c3.5-1.29,6.87-2.88,10.1-4.75c1.64-0.88,3.17-1.96,4.54-3.22
		c1.39-1.29,2.59-2.78,3.57-4.42c0.49-0.82,0.93-1.66,1.33-2.52c0.38-0.87,0.71-1.77,0.99-2.68c0.15-0.44,0.27-0.89,0.38-1.33
		s0.23-0.88,0.3-1.32s0.18-0.86,0.22-1.26c0.04-0.4,0.14-0.82,0.16-1.21c0.18-1.26,0.13-2.54-0.15-3.79
		c-0.05-0.18-0.12-0.35-0.23-0.5c-0.04-0.06-0.09-0.11-0.12-0.18c-0.05-0.03-0.1-0.06-0.16-0.08c-0.16-0.11-0.41,0.08-0.49,0.35
		l0.31,2.52c-0.25-0.97-0.47-1.96-0.63-2.96c-0.1-0.52-0.16-1.05-0.19-1.58c-0.05-0.54-0.08-1.09-0.1-1.63
		c-0.03-2.33,0.3-4.65,0.97-6.88c0.37-1.16,0.82-2.29,1.34-3.38c0.56-1.08,1.19-2.13,1.89-3.12c1.4-1.93,3.11-3.62,5.05-5
		c3.56-2.56,7.76-4.09,12.13-4.42c3.92-0.29,7.85,0.3,11.5,1.74l4.66,1.82l1.83,3c2.42,4.03,4.33,8.34,5.68,12.85
		c1.35,4.4,2.14,8.96,2.36,13.55c0.04,1.13,0.04,2.25,0.04,3.38c-0.01,1.12-0.09,2.23-0.19,3.33c-0.19,2.18-0.5,4.35-0.93,6.49
		c-0.86,4.16-2.16,8.22-3.87,12.1c-1.64,3.75-3.63,7.34-5.93,10.73c-2.22,3.29-4.7,6.41-7.4,9.31
		c-5.27,5.61-11.24,10.51-17.76,14.58c-1.6,0.99-3.21,1.96-4.85,2.85c-1.64,0.89-3.31,1.73-4.98,2.52
		c-3.33,1.58-6.75,2.95-10.25,4.11c-6.9,2.31-14.08,3.67-21.34,4.03c-3.61,0.14-7.23,0.07-10.84-0.23c-0.9-0.03-1.8-0.16-2.71-0.23
		c-0.91-0.07-1.81-0.2-2.71-0.33l-1.36-0.17l-1.35-0.23c-0.9-0.15-1.81-0.3-2.71-0.5c-3.63-0.71-7.18-1.77-10.6-3.16
		c-0.87-0.33-1.69-0.75-2.52-1.12c-0.42-0.19-0.85-0.37-1.26-0.58c-0.41-0.21-0.81-0.44-1.21-0.68
		C745.83,178.07,744.36,176.86,742.79,175.86z"/>
	<path class="st0" d="M700.6,203.94c-2.62,13.66,15.23,36.66,19.88,58.11c0.52,6.47-2.08,9.42-0.54,12.91
		c16.31,19.33,70.29-15.93,69.41-53.25C786.81,170.22,715.22,154.5,700.6,203.94z"/>
	<path class="st1" d="M702.18,204.31c-0.19,1.13-0.26,2.27-0.21,3.41c0,1.22,0.09,2.44,0.28,3.64c0.38,2.5,0.93,4.97,1.66,7.39
		c1.48,4.94,3.31,9.77,5.46,14.46c2.1,4.73,4.42,9.32,6.9,13.88s5.11,9.16,7.46,14.23l0.07,0.44c0.35,1.25,0.62,2.53,0.81,3.82
		c0.18,1.31,0.24,2.64,0.32,3.86c-0.01,0.95,0.12,1.91,0.39,2.82c0.15,0.22,0.28,0.35,0.44,0.28c0.07-0.03,0.14-0.07,0.2-0.13
		c0.06-0.05,0.12-0.11,0.17-0.18l-1.01-1.62c1.24,0.51,2.6,0.67,3.93,0.45c1.37-0.22,2.71-0.58,4.01-1.07
		c3.2-1.24,6.3-2.74,9.26-4.49c3.23-1.89,6.5-3.97,9.84-6.11s6.78-4.34,10.17-6.74c1.7-1.19,3.36-2.46,4.93-3.82l1.17-1.03
		l1.15-1.07c0.74-0.73,1.47-1.48,2.16-2.25c2.73-3.03,4.92-6.51,6.46-10.29c1.43-3.57,2.16-7.37,2.16-11.21V222v-0.35l-0.1-1.43
		c-0.09-0.99-0.16-2.01-0.32-3c-0.24-1.99-0.6-3.96-1.07-5.9c-0.94-3.91-2.47-7.65-4.54-11.11c-2.11-3.54-4.74-6.75-7.78-9.53
		c-3.1-2.87-6.59-5.29-10.36-7.2c-3.84-1.95-7.94-3.31-12.18-4.06c-4.27-0.77-8.64-0.84-12.93-0.21c-4.33,0.64-8.51,2.08-12.31,4.26
		c-3.88,2.25-7.29,5.23-10.03,8.78c-1.43,1.81-2.69,3.73-3.79,5.76C703.89,200.05,702.97,202.15,702.18,204.31z M699.08,203.56
		c0.58-2.47,1.33-4.9,2.23-7.26c0.92-2.38,2.05-4.67,3.36-6.85c2.68-4.5,6.19-8.44,10.34-11.62c4.26-3.22,9.08-5.61,14.22-7.05
		c5.17-1.45,10.54-2.05,15.9-1.78c10.93,0.55,21.46,4.24,30.34,10.63c4.53,3.26,8.53,7.19,11.88,11.66
		c3.41,4.54,6.11,9.57,8.01,14.92c0.97,2.66,1.71,5.41,2.2,8.2c0.27,1.39,0.42,2.79,0.59,4.2l0.15,2.19l0.04,0.55v1.77
		c-0.18,5.85-1.25,11.64-3.16,17.18c-0.89,2.71-1.92,5.34-3.06,7.91c-1.14,2.57-2.35,5.09-3.67,7.57l-0.95,1.86l-1.03,1.82
		l-1.07,1.81l-1.1,1.78c-1.51,2.36-3.13,4.65-4.85,6.88c-3.46,4.48-7.54,8.44-12.12,11.77c-4.75,3.39-10.03,5.98-15.62,7.65
		c-2.95,0.88-5.99,1.46-9.06,1.74c-1.61,0.15-3.23,0.21-4.85,0.18c-1.69-0.04-3.38-0.2-5.05-0.48c-1.75-0.28-3.48-0.71-5.15-1.3
		c-1.77-0.59-3.46-1.38-5.05-2.35c-1.63-0.97-3.12-2.15-4.45-3.5c-1.29-1.33-2.4-2.81-3.31-4.42l-1.01-1.62
		c-0.16-0.56-0.29-1.14-0.37-1.72c-0.09-0.57-0.13-1.15-0.13-1.73c0-1,0.13-2,0.39-2.97c0.37-1.26,0.87-2.47,1.5-3.62
		c0.45-0.85,0.86-1.72,1.22-2.61c0.35-0.88,0.62-1.78,0.8-2.71l0.06,0.44c0.07-5.13-0.66-10.24-2.18-15.15
		c-1.53-4.94-3.5-9.73-5.87-14.32c-2.27-4.64-4.8-9.14-6.99-13.88c-1.13-2.4-2.04-4.89-2.74-7.45c-0.35-1.32-0.59-2.67-0.73-4.03
		c-0.07-1.44,0.02-2.88,0.28-4.29H699.08z"/>
	<path class="st0" d="M692.53,229.24c-18.41,47.27-99.87,28.17-115.11,9.14c-1.89-2.15-6.12-8.2-13.45-9.68
		c-4.15-0.84-7.79,0.08-8.61-1.62c-0.88-1.84,2.21-5.45,4.84-7.53c10.66-8.44,23.17,0.85,39.27-4.83c7.11-2.52,6.45-4.97,15.6-10.73
		c4.58-2.9,33.05-20.91,55.94-9.69C683.13,200.21,695.07,215.01,692.53,229.24z"/>
	<path class="st1" d="M693.77,229.56c-0.37,0.85-0.73,1.72-1.12,2.52c-0.4,0.8-0.8,1.58-1.26,2.32c-0.88,1.52-1.88,2.97-2.99,4.34
		c-2.18,2.71-4.69,5.15-7.46,7.26l-1.02,0.8l-1.05,0.73c-0.69,0.51-1.41,0.98-2.13,1.46s-1.45,0.91-2.18,1.36
		c-0.73,0.45-1.48,0.87-2.25,1.26c-3.04,1.59-6.22,2.9-9.5,3.91c-6.57,2.04-13.42,2.95-20.27,3.48c-1.72,0.11-3.44,0.24-5.17,0.38
		c-1.73,0.15-3.47,0.35-5.22,0.49c-3.5,0.28-7.03,0.48-10.62,0.67c-7.16,0.36-14.63,0.54-21.81-1.15
		c-3.62-0.82-7.13-2.05-10.47-3.67c-1.69-0.82-3.38-1.67-5.05-2.64c-1.67-0.97-3.3-2.02-4.92-3.21c-1.67-1.24-3.26-2.6-4.73-4.07
		l-0.57-0.59l-0.56-0.63c-0.38-0.42-0.73-0.85-1.05-1.26s-0.59-0.77-0.86-1.14l-0.73-1c-0.78-1.13-1.64-2.2-2.56-3.21
		c-0.82-0.9-1.72-1.7-2.71-2.4c-0.95-0.66-1.98-1.18-3.07-1.56c-0.64-0.21-1.29-0.37-1.96-0.48c-0.74-0.14-1.55-0.25-2.59-0.42
		c-0.27-0.04-0.53-0.08-0.85-0.15c-0.32-0.06-0.63-0.14-1.02-0.23c-0.16-0.04-0.42-0.12-0.63-0.18l-0.33-0.11l-0.39-0.16l-0.4-0.18
		c-0.14-0.08-0.27-0.16-0.4-0.25c-0.33-0.19-0.64-0.4-0.94-0.63c-0.35-0.29-0.67-0.62-0.95-0.97c-0.28-0.37-0.53-0.77-0.73-1.19
		c-0.17-0.4-0.3-0.81-0.4-1.23c-0.05-0.19-0.08-0.38-0.09-0.57c0-0.19-0.01-0.37-0.04-0.55c0-0.18,0-0.37,0-0.54l0.05-0.44
		c0.09-0.73,0.31-1.44,0.63-2.1c0.54-1.16,1.27-2.23,2.16-3.16c0.71-0.76,1.47-1.47,2.28-2.13c1.58-1.3,3.33-2.38,5.2-3.2
		c1.86-0.81,3.83-1.32,5.84-1.53c1.88-0.18,3.77-0.16,5.64,0.04c1.81,0.18,3.55,0.45,5.26,0.76c3.33,0.67,6.71,1.13,10.1,1.38
		c3.38,0.17,6.76-0.23,10-1.2c1.62-0.47,3.18-1.1,4.67-1.89c1.46-0.83,2.8-1.85,3.99-3.04c1.26-1.16,2.52-2.35,3.91-3.43
		c1.38-1.08,2.79-2.07,4.23-3.04c5.79-3.78,11.98-6.92,18.45-9.36c3.25-1.24,6.59-2.24,9.98-2.99c3.41-0.78,6.89-1.22,10.39-1.33
		c3.53-0.1,7.05,0.23,10.49,1c3.47,0.79,6.79,2.09,9.88,3.86c3.06,1.77,5.9,3.9,8.46,6.34c2.58,2.43,4.85,5.17,6.75,8.16
		C692.88,214.88,695.24,222.09,693.77,229.56z M691.29,228.87l0.14-1.09l0.09-1.2c0-0.4,0-0.81,0-1.21c0-0.4-0.03-0.81-0.04-1.21
		c-0.11-1.62-0.38-3.23-0.79-4.8c-0.87-3.17-2.21-6.2-3.96-8.99c-3.56-5.66-8.39-10.41-14.1-13.88c-5.68-3.42-12.41-4.91-19.1-4.81
		c-3.37,0.06-6.72,0.44-10.01,1.14c-3.31,0.69-6.57,1.62-9.75,2.78c-6.39,2.34-12.52,5.33-18.3,8.94c-1.45,0.9-2.86,1.82-4.23,2.82
		c-1.36,1-2.67,2.08-3.96,3.21c-1.3,1.18-2.72,2.22-4.24,3.09c-1.56,0.81-3.18,1.47-4.86,1.98c-3.35,0.99-6.8,1.61-10.29,1.84
		c-1.74,0.13-3.49,0.18-5.23,0.2h-5.16c-3.4,0-6.76,0.16-9.6,1.1c-1.36,0.44-2.64,1.1-3.79,1.96c-1.12,0.86-2.12,1.87-2.97,3
		c-0.42,0.54-0.81,1.12-1.14,1.72c-0.26,0.38-0.41,0.81-0.45,1.26c0,0.06,0.06,0,0.08-0.04c0.03-0.06,0.06-0.13,0.07-0.2v-0.12
		c0-0.06,0-0.15,0-0.21c0.01-0.08,0.01-0.15,0-0.23c0-0.07,0-0.15-0.04-0.27c-0.03-0.22-0.1-0.43-0.2-0.63
		c-0.09-0.23-0.22-0.44-0.38-0.63c-0.13-0.19-0.29-0.37-0.47-0.51c-0.63-0.52-0.8-0.51-0.74-0.57c0.08-0.03,0.17-0.04,0.25-0.04
		l0.43-0.04c0.68-0.05,1.58-0.14,2.52-0.17c1.05-0.04,2.11-0.02,3.16,0.06c2.31,0.21,4.57,0.77,6.71,1.67
		c2.06,0.87,4.01,2,5.79,3.35c1.64,1.26,3.18,2.66,4.6,4.16l0.91,0.98c0.28,0.3,0.63,0.63,0.81,0.83c0.21,0.23,0.43,0.44,0.67,0.63
		l0.33,0.29l0.37,0.29c1.05,0.85,2.15,1.63,3.31,2.33c1.2,0.77,2.52,1.5,3.84,2.19c1.32,0.69,2.72,1.38,4.15,2.01
		c2.85,1.26,5.74,2.52,8.65,3.89s5.84,2.87,8.83,4.37c2.99,1.5,6.1,2.94,9.29,4.18c3.2,1.23,6.48,2.2,9.83,2.91
		c0.84,0.18,1.68,0.37,2.52,0.5l1.26,0.23l1.26,0.18c1.7,0.21,3.41,0.31,5.12,0.3c6.87,0.04,13.7-0.95,20.28-2.93
		c3.28-1,6.47-2.29,9.52-3.87c3.07-1.54,5.89-3.52,8.4-5.87c2.46-2.35,4.58-5.03,6.31-7.96c0.21-0.37,0.44-0.72,0.63-1.09l0.59-1.11
		c0.42-0.73,0.76-1.49,1.13-2.24c0.2-0.37,0.35-0.76,0.52-1.14l0.5-1.14L691.29,228.87z"/>
	<path class="st2" d="M630.1,80.8c-17.45-0.2-35.65,22.09-26.36,42.49c6.07,16.56,44.33,30.15,58.63,18.3
		C679.9,123.27,665.37,81.06,630.1,80.8z"/>
	<path class="st3" d="M629.98,93.51c-0.25,0.09-0.48,0.15-0.72,0.23c-0.24,0.09-0.48,0.16-0.73,0.21c-0.27,0.04-0.54,0.07-0.81,0.07
		c-0.29,0-0.59-0.04-0.92,0c-1.45,0.04-2.88,0.28-4.27,0.71c-3.38,1.1-6.48,2.91-9.1,5.3c-2.93,2.61-5.16,5.91-6.51,9.59
		c-1.41,4-1.55,8.34-0.42,12.43l0.09,0.21c0.23,1.18,0.61,2.33,1.14,3.41l0.42,0.86l0.49,0.83c0.34,0.56,0.71,1.1,1.1,1.63
		c0.79,1.09,1.67,2.11,2.63,3.06c0.96,0.97,1.98,1.89,3.05,2.75c4.36,3.47,9.33,6.11,14.65,7.78c5.3,1.66,10.86,2.37,16.41,2.11
		c2.67-0.11,5.32-0.58,7.87-1.4l0.92-0.32c0.31-0.11,0.59-0.25,0.88-0.38c0.29-0.13,0.59-0.25,0.86-0.38l0.82-0.46
		c0.53-0.3,1.04-0.64,1.52-1.02c0.24-0.17,0.47-0.36,0.68-0.57l0.63-0.59l-0.22,0.21c1.93-2.48,3.31-5.35,4.04-8.42
		c0.72-3.03,0.92-6.17,0.58-9.27c-0.71-6.12-3-11.95-6.66-16.91c-1.72-2.35-3.74-4.48-6.01-6.31c-2.14-1.76-4.56-3.14-7.16-4.11
		c-2.46-0.9-5.03-1.44-7.65-1.59C635.06,93.04,632.5,93.15,629.98,93.51z M630.21,68.09c4.59,0.47,9.08,1.56,13.37,3.26
		c4.24,1.69,8.22,3.97,11.83,6.77c6.85,5.3,12.22,12.28,15.58,20.26c1.59,3.79,2.7,7.76,3.31,11.82c0.62,4,0.69,8.07,0.2,12.08
		c-0.46,4-1.56,7.89-3.24,11.55c-1.67,3.62-4.03,6.88-6.95,9.59l-0.22,0.21l-1.05,0.63c-0.33,0.24-0.69,0.45-1.05,0.63
		c-0.71,0.38-1.44,0.7-2.19,0.98l-1.11,0.41c-0.37,0.12-0.74,0.21-1.12,0.32s-0.74,0.22-1.12,0.3l-1.13,0.21
		c-2.93,0.48-5.91,0.6-8.87,0.33c-5.81-0.47-11.36-2.03-16.7-3.84c-5.4-1.84-10.63-4.17-15.61-6.94c-1.26-0.73-2.49-1.48-3.7-2.31
		c-1.21-0.83-2.39-1.74-3.53-2.72c-2.44-2.04-4.48-4.52-6.01-7.31l0.09,0.21c-3.01-4.84-4.78-10.35-5.15-16.04
		c-0.37-6.06,0.69-12.13,3.09-17.71c2.49-5.92,6.35-11.18,11.25-15.34c2.67-2.26,5.64-4.14,8.83-5.57c1.7-0.8,3.51-1.37,5.37-1.67
		c0.96-0.14,1.92-0.21,2.89-0.23c0.98,0.03,1.96,0.09,2.95,0.14H630.21z"/>
	<path class="st2" d="M641.93,57.13c-11.88,8.29-14.83,26.4-3.79,38.73c1.26,1.76,20.24,26.86,41.95,18.3
		C725.53,88.24,684.8,30.51,641.93,57.13z"/>
	<path class="st3" d="M648.54,67.18c-0.34,0.15-0.69,0.28-1.05,0.39c-0.4,0.27-0.85,0.5-1.26,0.76c-0.42,0.26-0.85,0.6-1.26,0.93
		c-0.42,0.33-0.81,0.71-1.19,1.12c-1.67,1.73-2.96,3.79-3.79,6.05c-0.94,2.53-1.3,5.23-1.05,7.92l0.13,1.05l0.06,0.54
		c0.03,0.18,0.08,0.35,0.13,0.52l0.26,1.05c0.07,0.36,0.18,0.72,0.31,1.06c0.28,0.68,0.5,1.41,0.82,2.1s0.68,1.38,1.09,2.03
		l0.3,0.37c0.41,0.72,0.97,1.55,1.48,2.33s1.09,1.58,1.64,2.38c1.12,1.58,2.33,3.12,3.58,4.63c2.47,3.06,5.39,5.74,8.65,7.95
		c6.47,4.52,14.87,5.19,21.97,1.75l-0.28,0.14c0.95-0.67,1.89-1.33,2.8-2.06s1.77-1.48,2.61-2.25c1.64-1.53,3.12-3.22,4.42-5.05
		c2.48-3.43,4.1-7.41,4.71-11.59c0.52-3.84,0.09-7.76-1.26-11.39c-2.41-7.02-7.95-12.52-15-14.85c-0.81-0.27-1.62-0.52-2.44-0.71
		c-0.41-0.09-0.81-0.2-1.22-0.27c-0.41-0.06-0.8-0.16-1.21-0.21c-1.57-0.25-3.15-0.38-4.74-0.4c-3.13,0.03-6.25,0.38-9.3,1.05
		c-1.59,0.31-3.23,0.63-4.94,1.1c-0.42,0.1-0.85,0.26-1.26,0.37s-0.87,0.26-1.3,0.41L648.54,67.18z M635.29,47.09
		c1.32-0.97,2.73-1.99,3.94-2.78c0.63-0.42,1.26-0.84,1.93-1.22c0.67-0.38,1.31-0.81,2.01-1.15c5.65-3.12,11.96-4.82,18.41-4.97
		c3.3-0.07,6.59,0.24,9.82,0.91c3.22,0.67,6.36,1.71,9.33,3.12c1.47,0.68,2.89,1.46,4.26,2.32c1.37,0.84,2.68,1.75,3.94,2.74
		c4.87,3.87,8.94,8.64,11.99,14.06c1.49,2.63,2.73,5.39,3.72,8.25c0.97,2.84,1.61,5.79,1.89,8.78c0.28,2.96,0.19,5.95-0.25,8.89
		c-0.46,2.88-1.27,5.7-2.43,8.38c-2.24,5.08-5.57,9.61-9.76,13.25c-3.89,3.38-8.23,6.22-12.89,8.43l-0.27,0.13l0,0
		c-2.12,0.66-4.29,1.1-6.5,1.31c-2.18,0.17-4.38,0.11-6.54-0.2c-4.25-0.67-8.39-1.92-12.3-3.72c-3.96-1.75-7.74-3.86-11.31-6.31
		c-1.8-1.23-3.52-2.56-5.17-3.98c-0.84-0.71-1.63-1.45-2.43-2.21c-0.8-0.76-1.54-1.55-2.35-2.47l0.3,0.37
		c-0.73-0.78-1.56-1.49-2.35-2.25c-0.8-0.76-1.46-1.64-2.19-2.49c-1.41-1.79-2.64-3.71-3.67-5.74c-4.47-8.9-4.8-19.32-0.9-28.49
		c0.51-1.19,1.15-2.35,1.75-3.52c0.61-1.17,1.42-2.24,2.18-3.35c0.76-1.11,1.72-2.08,2.61-3.1c1.03-1.01,2.14-2.01,3.26-2.99H635.29
		z"/>
	<path class="st4" d="M747.9,63.05"/>
	<path class="st2" d="M676.36,238.41c-16.94,1.8-56.35-31.24-50.03-51.11c5.17-11.07,28.17-10.01,39.24-8.05
		C713.6,187.27,734.21,230.86,676.36,238.41z"/>
	<path class="st3" d="M676.68,241.08c-0.97,0.08-1.95,0.08-2.92,0c-0.46-0.05-0.94-0.07-1.38-0.16c-0.44-0.09-0.9-0.18-1.34-0.27
		c-0.9-0.18-1.72-0.48-2.57-0.73s-1.63-0.63-2.42-0.97c-3.06-1.43-6-3.1-8.78-5.01c-2.77-1.84-5.46-3.75-8.15-5.68l-8.15-5.78
		c-2.76-1.94-5.35-4.12-7.74-6.51c-2.39-2.49-4.47-5.26-6.18-8.25c-1.87-3.07-3.29-6.4-4.21-9.88c-0.24-0.91-0.41-1.84-0.53-2.77
		l-0.16-1.43c-0.04-0.48,0-0.98-0.04-1.46c-0.02-2.01,0.27-4.01,0.86-5.93l0.06-0.2l0.11-0.23c0.91-1.85,2.2-3.49,3.79-4.8
		c1.46-1.21,3.08-2.21,4.81-2.97c3.2-1.32,6.58-2.17,10.02-2.52c3.27-0.36,6.56-0.48,9.85-0.34c3.24,0.12,6.47,0.41,9.67,0.87
		c1.6,0.23,3.21,0.51,4.78,0.83l2.36,0.49l2.35,0.56c3.12,0.79,6.21,1.74,9.23,2.85c6.08,2.2,11.82,5.22,17.08,8.99
		c1.31,0.95,2.57,1.97,3.79,3.01c1.22,1.04,2.4,2.19,3.53,3.35c2.31,2.34,4.29,4.98,5.91,7.84c1.68,2.96,2.69,6.25,2.97,9.64
		c0.23,3.51-0.54,7.01-2.23,10.1c-0.84,1.52-1.86,2.94-3.04,4.22c-1.14,1.27-2.41,2.42-3.79,3.43c-2.68,1.98-5.6,3.64-8.68,4.92
		c-3.02,1.26-6.13,2.27-9.31,3.03C683.08,240.08,679.89,240.66,676.68,241.08z M676.05,235.75c2.98-0.38,6.03-0.92,8.97-1.58
		c2.94-0.65,5.84-1.49,8.67-2.52c2.77-1,5.41-2.32,7.86-3.95c2.39-1.55,4.43-3.59,5.98-5.98c1.51-2.37,2.28-5.13,2.22-7.93
		c-0.12-2.9-0.9-5.74-2.28-8.29c-1.4-2.65-3.18-5.09-5.29-7.23c-2.13-2.16-4.49-4.1-7.02-5.77c-5.11-3.36-10.66-6-16.5-7.83
		c-2.91-0.94-5.88-1.7-8.89-2.28l-2.25-0.41l-2.28-0.35c-1.51-0.23-3.02-0.39-4.54-0.52c-6.02-0.56-12.08-0.37-18.05,0.55
		c-2.8,0.44-5.52,1.26-8.08,2.45c-2.39,1.17-4.2,2.78-5.05,4.69l0.16-0.43c-0.63,2.52-0.57,5.17,0.18,7.65
		c0.78,2.8,1.95,5.48,3.47,7.96c1.53,2.59,3.36,5.05,5.12,7.6c1.76,2.56,3.58,5.16,5.6,7.65c4.01,5.01,9.05,9.1,14.78,11.99
		c2.81,1.42,5.75,2.55,8.78,3.4c0.74,0.2,1.48,0.36,2.21,0.54l1.09,0.21c0.37,0.06,0.73,0.15,1.09,0.18
		c0.36,0.03,0.71,0.08,1.07,0.13c0.35,0.05,0.69,0.04,1.04,0.06C674.75,235.79,675.4,235.79,676.05,235.75L676.05,235.75z"/>
	<path class="st2" d="M603.73,123.3c-7.84,23.17,25.83,46.07,46.26,30.66C692.29,118.12,623.75,96.55,603.73,123.3z"/>
	<path class="st3" d="M607.25,125.15c-0.13,0.2-0.28,0.4-0.45,0.63c-0.22,0.23-0.41,0.49-0.55,0.78c-0.4,0.7-0.74,1.43-1.03,2.18
		c-0.15,0.38-0.3,0.76-0.44,1.16l-0.32,1.21l-0.16,0.63c-0.04,0.21-0.06,0.42-0.09,0.63l-0.16,1.26c-0.18,3.55,0.79,7.07,2.77,10.03
		c3.98,5.93,9.84,10.36,16.63,12.57c6.63,2.22,14.02,2.11,19.94-0.78l1.08-0.59c0.36-0.18,0.71-0.39,1.04-0.63
		c0.66-0.44,1.29-0.92,1.89-1.45l0.88-0.76c0.28-0.28,0.56-0.63,0.85-0.92l0.83-0.93l0.82-0.98c2.13-2.5,3.94-5.25,5.39-8.2
		c0.65-1.34,1.15-2.74,1.49-4.19c0.29-1.26,0.38-2.56,0.26-3.86c-0.24-2.18-1.29-4.18-2.93-5.62c-1.89-1.6-4.16-2.69-6.59-3.16
		c-1.33-0.31-2.68-0.52-4.04-0.63c-1.38-0.11-2.78-0.13-4.16-0.14c-1.38-0.01-2.76,0.04-4.11,0.08c-1.36,0.04-2.69,0.06-4.03,0.11
		l-3.94,0.15c-1.3,0.07-2.61,0.07-3.91,0c-1.32-0.06-2.68-0.21-4.1-0.35c-1.47-0.18-2.94-0.28-4.42-0.31
		c-1.54-0.01-3.08,0.19-4.57,0.59c-0.37,0.1-0.74,0.22-1.1,0.37c-0.37,0.13-0.72,0.28-1.07,0.46l-0.52,0.26
		c-0.14,0.09-0.29,0.16-0.44,0.21L607.25,125.15z M600.23,121.45c0.28-0.63,0.63-1.26,0.96-1.89l0.43-0.8l0.37-0.73
		c0.24-0.5,0.54-0.95,0.8-1.44c0.27-0.49,0.56-0.97,0.86-1.44c1.2-1.98,2.56-3.86,4.08-5.62c1.55-1.81,3.28-3.46,5.17-4.9
		c1.87-1.42,3.92-2.58,6.1-3.45c4.3-1.74,8.83-2.17,13.3-2.05c4.46,0.16,8.86,1.09,13,2.75c4.2,1.7,8.13,4,11.68,6.82
		c3.78,2.92,6.98,6.52,9.42,10.63c1.27,2.2,2.14,4.6,2.6,7.1c0.45,2.46,0.45,4.97,0,7.43c-0.41,2.25-1.16,4.44-2.21,6.47
		c-0.95,1.87-2.1,3.63-3.42,5.26c-2.46,3-5.28,5.68-8.41,7.98l-1.12,0.85l-1.17,0.83c-0.4,0.28-0.76,0.56-1.18,0.82l-1.33,0.74
		c-5.05,2.79-10.84,3.96-16.58,3.34c-3.64-0.39-7.2-1.37-10.53-2.91c-3.28-1.47-6.34-3.38-9.1-5.68c-0.68-0.59-1.38-1.14-2-1.77
		l-0.98-0.95l-0.9-1.01c-0.63-0.63-1.16-1.35-1.73-2.03c-0.57-0.68-1.05-1.44-1.55-2.16c-0.94-1.51-1.89-3-2.73-4.61
		c-0.89-1.64-1.68-3.32-2.37-5.05l-0.5-1.29c-0.08-0.23-0.17-0.46-0.25-0.69l-0.19-0.71l-0.39-1.45c-0.09-0.49-0.16-0.99-0.25-1.5
		c-0.17-1.02-0.27-2.06-0.29-3.09c-0.02-0.61,0.02-1.22,0.11-1.83C600.03,122.77,600.12,122.11,600.23,121.45z"/>
	<path class="st2" d="M644.62,125.99c-37.35,8.2-42.64,46.26-21.51,70.47c21.32,26.47,70.8,34.29,88.76,11.83
		C737.98,166.42,687.42,113.35,644.62,125.99z"/>
	<path class="st3" d="M647.31,136.43l-2.8,0.21c-0.5,0.03-0.88,0.08-1.26,0.13l-1.26,0.14c-0.84,0.06-1.62,0.23-2.44,0.37
		c-0.4,0.08-0.83,0.12-1.22,0.21l-1.19,0.29c-3.22,0.75-6.31,1.96-9.18,3.6c-2.93,1.71-5.52,3.94-7.65,6.59
		c-2.18,2.78-3.83,5.95-4.87,9.33c-0.13,0.44-0.28,0.86-0.4,1.29l-0.32,1.32c-0.22,0.88-0.39,1.78-0.51,2.68
		c-0.08,0.45-0.13,0.91-0.16,1.36l-0.12,1.38c-0.06,0.92-0.06,1.84-0.09,2.77s0.08,1.86,0.16,2.78s0.19,1.86,0.35,2.78
		c0.32,1.85,0.76,3.68,1.32,5.48c1.17,3.61,2.77,7.06,4.76,10.29l0.74,1.22l0.82,1.17l0.82,1.17l0.9,1.14
		c0.59,0.76,1.19,1.52,1.81,2.27l0.91,1.13c0.32,0.37,0.63,0.71,0.97,1.07c2.59,2.86,5.47,5.46,8.59,7.73
		c3.16,2.27,6.5,4.25,10.01,5.93c7.02,3.41,14.51,5.75,22.23,6.94c7.67,1.26,15.52,1.07,23.12-0.56c3.75-0.84,7.36-2.2,10.73-4.06
		c3.32-1.83,6.25-4.29,8.63-7.24l-0.1,0.15c2.81-4.57,4.81-9.6,5.89-14.86c1.05-5.27,1.25-10.68,0.59-16.02
		c-1.27-10.91-6.39-21.01-14.43-28.49c-0.99-0.92-2.03-1.79-3.12-2.6c-1.15-0.75-2.35-1.43-3.58-2.02c-1.29-0.55-2.61-1-3.96-1.37
		c-0.68-0.18-1.4-0.29-2.11-0.41c-0.71-0.12-1.4-0.23-2.11-0.31c-1.41-0.16-2.88-0.16-4.25-0.23s-2.82,0.09-4.11,0.08
		c-1.29-0.02-2.63,0.15-3.84,0.14c-1.21-0.01-2.4,0.09-3.51,0c-0.28,0-0.56,0-0.83,0h-0.82c-0.53,0-1.06-0.06-1.58-0.14
		c-1.01-0.06-2.02-0.19-3.01-0.4c-0.98-0.14-1.94-0.37-2.88-0.69c-0.97-0.26-1.92-0.59-2.84-0.99c-0.95-0.35-1.89-0.73-2.93-1.17
		l-3.07-1.01c-1.04-0.25-2.11-0.44-3.21-0.63C649.72,136.35,648.54,136.35,647.31,136.43z M641.94,115.55
		c1.49-0.58,2.97-1.26,4.46-1.89c1.64-0.63,3.31-1.22,5.02-1.89c1.7-0.52,3.45-1.06,5.23-1.53c1.77-0.38,3.58-0.76,5.4-0.98
		c1.8-0.16,3.62-0.2,5.43-0.12c1.79,0.15,3.56,0.44,5.31,0.85c1.72,0.46,3.41,1.03,5.05,1.72c1.61,0.73,3.16,1.58,4.64,2.52
		c1.46,0.98,2.85,2.07,4.16,3.24c1.28,1.21,2.49,2.5,3.61,3.86c0.55,0.69,1.08,1.39,1.59,2.11s1.03,1.39,1.49,2.14
		c0.94,1.48,1.82,2.94,2.68,4.42c0.4,0.75,0.81,1.48,1.22,2.18l0.63,1.07c0.2,0.35,0.42,0.68,0.6,1.05
		c0.76,1.42,1.56,2.75,2.36,4.03c0.8,1.28,1.57,2.56,2.41,3.79c0.4,0.63,0.8,1.21,1.22,1.8l1.29,1.72
		c3.28,4.59,6.17,9.46,8.63,14.53c2.52,5.09,4.34,10.48,5.43,16.05c1.06,5.65,1,11.45-0.19,17.07c-1.22,5.61-3.4,10.96-6.46,15.82
		l-0.05,0.08l-0.05,0.06c-2.66,3.21-5.89,5.89-9.54,7.91c-3.6,1.98-7.47,3.43-11.48,4.31c-7.98,1.81-16.21,1.72-24.19,0.56
		c-8-1.2-15.77-3.6-23.06-7.11c-7.37-3.47-14.11-8.14-19.95-13.81c-11.71-11.22-19.06-27.97-16.89-45.4
		c0.57-4.43,1.78-8.75,3.58-12.84c1.89-4.24,4.4-8.18,7.43-11.69c3.11-3.6,6.7-6.75,10.68-9.35l1.51-0.98
		c0.5-0.32,1.02-0.59,1.54-0.89c1.03-0.57,2.07-1.2,3.16-1.68l1.61-0.76c0.54-0.25,1.09-0.52,1.56-0.71L641.94,115.55z"/>
	<path class="st2" d="M803.84,144.28c15.67-23.54,6.63-67.59-29.58-78c-51.47-11.05-69,71.53-28.51,93.6
		C763.81,169.21,791.05,162.74,803.84,144.28z"/>
	<path class="st3" d="M803.84,144.28c1.68-2.58,3.04-5.34,4.06-8.24c0.53-1.44,0.93-2.92,1.31-4.42l0.46-2.25
		c0.14-0.75,0.23-1.51,0.35-2.26c0.12-0.75,0.18-1.52,0.23-2.28c0.06-0.76,0.12-1.51,0.12-2.28s0.06-1.52,0-2.28l-0.09-2.28
		c-0.21-3.01-0.67-6-1.37-8.93c-2.9-11.67-9.71-21.96-18.61-28.58c-2.2-1.66-4.53-3.12-6.99-4.37l-1.8-0.85
		c-0.63-0.31-1.26-0.52-1.89-0.8c-1.26-0.54-2.52-0.95-3.82-1.41c-0.63-0.21-1.26-0.34-1.86-0.52c-0.59-0.2-1.2-0.34-1.82-0.42
		c-1.14-0.18-2.52-0.33-3.82-0.43c-2.58-0.19-5.17-0.12-7.73,0.21l-0.95,0.12l-0.93,0.18c-0.63,0.09-1.26,0.27-1.86,0.41
		c-0.59,0.15-1.22,0.35-1.83,0.5c-0.61,0.16-1.2,0.42-1.8,0.63c-2.41,0.92-4.7,2.13-6.83,3.58c-4.44,3.12-8.18,7.15-10.95,11.81
		c-2.92,4.87-5.07,10.17-6.38,15.69c-1.37,5.61-1.94,11.38-1.71,17.15c0.22,5.78,1.39,11.49,3.47,16.89
		c2.09,5.39,5.32,10.26,9.47,14.27c4.18,4.07,9.39,6.94,15.06,8.31c5.81,1.43,11.85,1.7,17.77,0.81c6.04-0.83,11.86-2.79,17.18-5.77
		C795.65,153.48,800.29,149.31,803.84,144.28z M803.84,144.28c-3.56,5.04-8.06,9.35-13.25,12.7c-5.23,3.4-11.02,5.86-17.11,7.26
		c-6.19,1.44-12.6,1.64-18.86,0.57c-3.19-0.57-6.3-1.52-9.25-2.85c-2.95-1.4-5.72-3.15-8.24-5.23c-5.04-4.21-9.11-9.46-11.92-15.4
		c-2.79-5.91-4.59-12.25-5.31-18.75c-0.76-6.5-0.56-13.08,0.57-19.52c1.11-6.55,3.22-12.89,6.26-18.79c1.57-3.02,3.4-5.88,5.48-8.58
		c2.12-2.76,4.55-5.28,7.23-7.5c2.75-2.29,5.78-4.21,9.03-5.72c1.64-0.74,3.32-1.38,5.05-1.89c0.87-0.25,1.74-0.5,2.63-0.67
		l1.33-0.28l1.33-0.21c3.53-0.52,7.11-0.58,10.66-0.18c1.78,0.2,3.55,0.5,5.29,0.9c0.9,0.19,1.77,0.46,2.62,0.8
		c0.84,0.31,1.72,0.63,2.52,0.93c1.59,0.65,3.14,1.39,4.65,2.2c0.75,0.42,1.53,0.78,2.25,1.26l2.18,1.37c0.73,0.44,1.39,1,2.08,1.5
		s1.37,1.02,2.01,1.58s1.3,1.1,1.94,1.67l1.81,1.79c2.35,2.4,4.45,5.04,6.26,7.88c1.8,2.77,3.34,5.7,4.59,8.76
		c2.43,5.96,3.91,12.27,4.38,18.7c0.23,3.14,0.25,6.29,0.06,9.43c-0.21,3.11-0.65,6.19-1.29,9.24
		C809.55,133.31,807.19,139.08,803.84,144.28z"/>
	<path class="st2" d="M740.37,57.67c-3.69-3.57-16.31-15.43-35.5-16.14c-40.5-6.55-45.03,48.3-13.42,72.08
		C743.47,141.57,785.39,99.15,740.37,57.67z"/>
	<path class="st3" d="M735.82,62.49l-0.95-0.8l-0.88-0.7c-0.59-0.45-1.17-0.91-1.78-1.33c-1.2-0.87-2.43-1.68-3.67-2.46
		c-2.46-1.52-5.03-2.85-7.69-3.98c-2.6-1.1-5.27-2.01-8-2.71l-2.04-0.49c-0.68-0.18-1.38-0.23-2.06-0.36
		c-1.37-0.28-2.77-0.34-4.16-0.52l-0.94-0.09c-0.85-0.12-1.72-0.24-2.57-0.39c-0.42-0.08-0.84-0.12-1.26-0.13l-1.26-0.09l-0.63-0.05
		c-0.21,0-0.41,0-0.63,0c-0.41,0-0.82,0-1.26,0c-0.8,0.01-1.61,0.06-2.4,0.16c-1.57,0.16-3.13,0.43-4.66,0.82
		c-0.77,0.2-1.48,0.5-2.28,0.72l-1.11,0.5c-0.38,0.15-0.76,0.33-1.12,0.54c-3.16,1.72-5.78,4.28-7.57,7.4
		c-0.26,0.4-0.48,0.82-0.67,1.26c-0.2,0.43-0.42,0.86-0.63,1.26s-0.34,0.9-0.51,1.35c-0.17,0.45-0.32,0.92-0.47,1.38
		c-0.25,0.95-0.46,1.89-0.63,2.86c-0.17,0.97-0.26,1.95-0.35,2.93c-0.55,8.09,0.52,16.22,3.16,23.89c1.4,3.94,3.36,7.66,5.84,11.03
		c2.53,3.37,5.51,6.37,8.87,8.92l0,0c2.34,1.22,4.71,2.39,7.16,3.39c2.44,1,4.94,1.86,7.48,2.59c5.06,1.44,10.28,2.25,15.54,2.4
		c5.21,0.17,10.41-0.54,15.38-2.08c2.45-0.78,4.82-1.82,7.06-3.09c2.21-1.29,4.25-2.84,6.08-4.62c1.8-1.78,3.33-3.8,4.57-6
		c1.19-2.21,2.11-4.57,2.74-7c1.35-4.95,0.9-10.22-1.26-14.87c-2.03-4.67-5.34-8.63-8.97-12.06c-1.83-1.71-3.72-3.32-5.62-4.91
		S737.82,64.1,735.82,62.49z M744.92,52.85c1.94,2.06,3.73,4.26,5.36,6.57c1.64,2.37,3.09,4.87,4.34,7.47
		c2.46,5.15,4.22,10.6,5.23,16.21c0.48,2.73,0.76,5.5,0.83,8.27c0.11,2.76-0.08,5.53-0.57,8.25c-0.56,2.74-1.57,5.36-2.99,7.76
		c-1.43,2.38-3.19,4.55-5.22,6.44c-2.03,1.86-4.28,3.46-6.7,4.78c-2.41,1.28-4.95,2.3-7.57,3.05c-5.21,1.45-10.63,2-16.02,1.6
		c-5.34-0.39-10.6-1.45-15.68-3.16c-2.52-0.84-5-1.8-7.45-2.85s-4.81-2.24-7.16-3.5l0,0l0,0c-3.37-2.58-6.47-5.51-9.23-8.73
		c-2.84-3.23-5.38-6.72-7.57-10.42c-0.52-0.95-1.07-1.89-1.57-2.86l-1.4-2.97c-0.41-1.02-0.8-2.04-1.2-3.07
		c-0.4-1.03-0.67-2.1-0.98-3.16c-0.32-1.05-0.5-2.16-0.76-3.24s-0.34-2.2-0.51-3.31c-0.17-1.1-0.16-2.23-0.22-3.34
		c-0.06-1.12,0.04-2.25,0.05-3.37c0.23-4.59,1.01-9.13,2.33-13.52c1.41-4.79,3.83-9.22,7.11-12.99c3.59-3.99,8.28-6.81,13.49-8.12
		c1.27-0.34,2.56-0.59,3.86-0.74c0.63-0.08,1.26-0.13,1.93-0.2c0.32,0,0.63-0.06,0.97-0.08h0.95h1.89c0.63-0.01,1.26,0.01,1.89,0.06
		c1.26,0.09,2.47,0.23,3.72,0.35l-0.93-0.09c3.86,0.08,7.7,0.56,11.45,1.45c3.71,0.94,7.3,2.27,10.73,3.98
		c3.38,1.68,6.59,3.7,9.56,6.03c1.46,1.16,2.89,2.35,4.23,3.63c0.68,0.63,1.33,1.26,1.99,1.93l0.97,0.98L744.92,52.85z"/>
	<path class="st2" d="M731.2,108.78c-19.41-25.53-60.68-36.33-85.53-10.22c-29.32,52.46,46.34,108.85,81.79,88.76
		C746.94,174.54,749.12,133.75,731.2,108.78z"/>
	<path class="st3" d="M727.18,111.76c-0.59-0.72-1.04-1.55-1.32-2.44c-0.37-0.92-0.63-1.93-1.11-2.83c-0.9-1.8-2.6-2.85-4.03-4.13
		c-0.76-0.59-1.53-1.18-2.31-1.75l-2.4-1.62l-2.48-1.47c-0.85-0.45-1.7-0.9-2.56-1.33c-0.86-0.43-1.74-0.81-2.61-1.19l-2.67-1.03
		l-2.69-0.9l-2.72-0.76l-2.75-0.63l-2.75-0.48l-2.74-0.36c-0.92-0.07-1.83-0.16-2.75-0.22c-7.03-0.45-14.09,0.38-20.82,2.45
		c-6.58,2.06-12.59,5.64-17.54,10.44l1.07-1.45c-2.28,3.66-4.08,7.6-5.36,11.71c-0.16,0.51-0.32,1.03-0.44,1.55l-0.41,1.57
		c-0.22,1.05-0.47,2.11-0.63,3.19s-0.28,2.15-0.39,3.24c-0.11,1.09-0.13,2.19-0.13,3.29c-0.11,8.83,2.52,18.04,7.06,26.35
		c2.3,4.21,5.02,8.17,8.12,11.83c0.38,0.47,0.78,0.92,1.18,1.37c0.4,0.45,0.79,0.92,1.21,1.35l1.3,1.26l1.34,1.22
		c1.8,1.62,3.65,3.16,5.58,4.64c7.71,5.82,16.33,10.63,25.63,13.34c4.62,1.37,9.41,2.08,14.23,2.11c2.38,0,4.76-0.25,7.09-0.72
		c2.31-0.46,4.56-1.19,6.7-2.17c0.52-0.25,1.06-0.49,1.54-0.78c0.51-0.25,0.99-0.55,1.43-0.9c0.44-0.35,0.9-0.63,1.33-1.04
		l1.26-1.17c1.63-1.65,3.06-3.49,4.26-5.48c2.38-4.05,4.06-8.47,4.95-13.09c0.48-2.31,0.81-4.64,0.99-6.99
		c0.18-2.35,0.23-4.71,0.16-7.07c-0.3-9.36-2.37-18.58-6.09-27.17c-0.22-0.53-0.49-1.04-0.73-1.56c-0.25-0.52-0.46-1.05-0.74-1.55
		c-0.53-1.01-1.03-2.04-1.63-3C729.71,115.44,728.5,113.56,727.18,111.76z M735.28,105.79c1.53,2.22,2.92,4.54,4.15,6.94
		c1.2,2.36,2.26,4.8,3.16,7.29c1.8,4.94,3.07,10.06,3.77,15.27c1.04,7.73,0.87,15.57-0.49,23.24c-0.27,1.26-0.48,2.52-0.81,3.79
		c-0.16,0.63-0.3,1.26-0.47,1.89l-0.54,1.89c-0.75,2.48-1.69,4.91-2.8,7.25c-1.08,2.37-2.39,4.63-3.89,6.76
		c-1.53,2.14-3.28,4.1-5.23,5.86l-1.53,1.26c-0.51,0.41-1.1,0.77-1.65,1.16c-0.55,0.38-1.14,0.71-1.75,0.98
		c-0.6,0.32-1.21,0.56-1.8,0.81c-2.39,0.97-4.89,1.67-7.43,2.09c-2.53,0.43-5.09,0.64-7.65,0.63c-5.07-0.1-10.1-0.84-14.99-2.2
		c-9.72-2.74-18.87-7.23-26.98-13.25c-2.04-1.48-3.99-3.07-5.91-4.71l-1.42-1.26l-1.39-1.26c-0.95-0.83-1.89-1.67-2.83-2.52
		c-1.86-1.72-3.63-3.55-5.36-5.42c-1.73-1.87-3.35-3.87-4.92-5.93c-3.17-4.17-5.88-8.68-8.07-13.45c-2.25-4.91-3.8-10.11-4.62-15.45
		c-0.41-2.73-0.6-5.49-0.55-8.25c0.01-2.79,0.27-5.58,0.76-8.33c0.99-5.51,2.8-10.84,5.37-15.81l0.3-0.59l0.77-0.86
		c3.12-3.5,6.69-6.57,10.61-9.14c5.94-3.9,12.64-6.48,19.66-7.57c6.86-1.02,13.85-0.66,20.57,1.05c1.09,0.29,2.18,0.63,3.26,0.91
		c1.08,0.28,2.13,0.71,3.16,1.07c1.03,0.35,2.07,0.82,3.1,1.26l3.02,1.38l2.94,1.5l2.86,1.62l2.77,1.73l2.69,1.82l2.61,1.89
		l2.52,2.02l2.45,2.09l2.35,2.18l2.27,2.27c0.7,0.83,1.53,1.53,2.45,2.1c0.92,0.63,1.97,1.12,2.95,1.73
		C733.69,104.11,734.55,104.89,735.28,105.79L735.28,105.79z"/>
	<path class="st2" d="M751.13,229.27c-16.12,35.72-59.07,36.45-83.93,14.51c-13.3-12.32-23.77-34.71-16.14-51.11
		C671.67,152.1,766.28,171.51,751.13,229.27z"/>
	<path class="st3" d="M752.66,229.8l-1.09,2.27l-0.56,1.13l-0.59,1.06l-1.21,2.11l-1.34,2.03c-0.22,0.33-0.44,0.68-0.68,1.01
		l-0.74,0.97c-0.5,0.63-0.97,1.3-1.5,1.89l-1.61,1.83l-0.4,0.45l-0.44,0.43l-0.86,0.86c-0.57,0.57-1.14,1.15-1.77,1.67
		s-1.22,1.07-1.85,1.58l-1.94,1.47c-0.63,0.51-1.34,0.91-2.01,1.37c-2.72,1.77-5.62,3.26-8.65,4.42c-3.03,1.2-6.16,2.1-9.36,2.71
		c-3.18,0.56-6.4,0.87-9.64,0.91c-3.22-0.01-6.44-0.27-9.63-0.77c-3.17-0.56-6.3-1.29-9.38-2.2c-3.12-0.87-6.17-1.99-9.11-3.34
		c-2.97-1.35-5.82-2.96-8.51-4.81c-0.67-0.48-1.36-0.92-2.01-1.42l-1.96-1.53c-1.26-1.07-2.49-2.21-3.64-3.38
		c-2.31-2.34-4.44-4.85-6.37-7.52c-3.94-5.38-7.06-11.31-9.27-17.6c-1.13-3.26-1.93-6.63-2.37-10.06l-0.15-1.32l-0.09-1.33
		c-0.08-0.89-0.06-1.79-0.09-2.69c0.03-1.84,0.18-3.68,0.47-5.5c0.06-0.46,0.17-0.92,0.26-1.38c0.09-0.47,0.18-0.92,0.31-1.38
		l0.37-1.38c0.15-0.47,0.32-0.95,0.47-1.42c0.66-1.79,1.46-3.53,2.39-5.2c1.86-3.29,4.04-6.4,6.51-9.26
		c2.53-2.94,5.3-5.66,8.29-8.13c3.04-2.5,6.3-4.72,9.74-6.64c6.81-3.9,14.43-6.21,22.26-6.75c3.83-0.23,7.68-0.02,11.47,0.63
		c0.95,0.17,1.89,0.33,2.81,0.58c0.49,0.19,0.93,0.51,1.26,0.92c0.45,0.56,0.81,1.18,1.08,1.84c0.16,0.38,0.3,0.81,0.45,1.22
		c0.15,0.41,0.27,0.92,0.4,1.38c0.24,1.02,0.46,2.06,0.67,3.08l0.59,3.03c0.2,0.97,0.4,1.81,0.63,2.56
		c0.46,1.46,1.03,2.36,1.77,2.68l1.14,0.41l1.12,0.44c0.74,0.29,1.49,0.59,2.22,0.92s1.48,0.63,2.2,0.98
		c2.92,1.35,5.75,2.89,8.48,4.6c5.47,3.36,10.33,7.63,14.37,12.62c4.06,5.09,6.83,11.09,8.05,17.49c0.59,3.21,0.8,6.47,0.63,9.72
		c-0.05,0.81-0.09,1.63-0.21,2.43c-0.11,0.8-0.16,1.62-0.32,2.42c-0.16,0.8-0.26,1.58-0.45,2.41L752.66,229.8z M749.62,228.73
		l0.5-2.11c0.17-0.7,0.29-1.48,0.44-2.22c0.15-0.74,0.23-1.5,0.33-2.25c0.11-0.75,0.17-1.51,0.23-2.27
		c0.25-3.03,0.16-6.07-0.27-9.07c-0.88-6.06-3.24-11.82-6.86-16.76c-3.72-4.95-8.43-9.09-13.83-12.13
		c-2.68-1.54-5.49-2.85-8.39-3.93c-0.72-0.28-1.45-0.54-2.19-0.76c-0.74-0.23-1.47-0.47-2.21-0.68s-1.48-0.42-2.23-0.59
		c-0.43-0.06-0.88,0.02-1.26,0.23c-0.55,0.31-1.06,0.69-1.5,1.15c-0.6,0.61-1.15,1.26-1.65,1.95c-0.57,0.77-1.15,1.65-1.7,2.49
		s-1.1,1.69-1.62,2.52l-0.76,1.15l-0.69,0.99c-0.9,1.19-1.63,1.84-2.27,1.89c-0.31-0.01-0.62-0.03-0.92-0.08l-0.93-0.06
		c-2.45-0.22-4.88-0.48-7.33-0.79c-2.44-0.31-4.89-0.69-7.38-1.06s-5.05-0.73-7.64-0.92c-2.61-0.21-5.23-0.15-7.82,0.18
		c-2.57,0.34-5.07,1.11-7.4,2.27c-2.31,1.15-4.38,2.75-6.08,4.7c-0.82,0.95-1.56,1.95-2.24,3c-0.15,0.25-0.3,0.49-0.44,0.76
		l-0.41,0.85c-0.15,0.28-0.25,0.58-0.38,0.87c-0.13,0.29-0.26,0.59-0.35,0.9c-1.77,4.87-1.74,10.73-0.49,16.41
		c1.38,5.79,3.73,11.3,6.94,16.31c1.6,2.55,3.38,4.97,5.34,7.25c0.98,1.15,2,2.24,3.05,3.26l1.65,1.5c0.56,0.5,1.17,0.95,1.75,1.43
		c4.76,3.81,10.08,6.86,15.78,9.04c5.8,2.05,11.91,3.06,18.06,2.97c3.06-0.05,6.11-0.36,9.12-0.91c3-0.57,5.93-1.43,8.77-2.56
		c2.83-1.12,5.54-2.54,8.07-4.23c0.63-0.44,1.26-0.81,1.89-1.3l1.8-1.39c0.58-0.49,1.14-1,1.72-1.5c0.57-0.5,1.12-1.02,1.64-1.58
		l0.8-0.81l0.4-0.4l0.37-0.44l1.49-1.72c0.49-0.58,0.92-1.21,1.39-1.81l0.69-0.92l0.63-0.95l1.26-1.89l1.14-1.99l0.56-0.99
		l0.49-0.99L749.62,228.73z"/>
	<path class="st2" d="M771.59,220.12c-15.15,13.59-43.16,8.66-59.71-5.38c-29.9-22.49-23.88-75.25,18.81-80.17
		C767.99,132.84,800.09,188.69,771.59,220.12z"/>
	<path class="st3" d="M771.59,220.12c-4.46,4.01-10.13,6.52-16.02,7.74l-1.11,0.23l-1.12,0.17c-0.74,0.14-1.5,0.23-2.25,0.32
		c-1.51,0.18-3.02,0.24-4.54,0.3c-3.05,0.08-6.11-0.1-9.13-0.54c-6.12-0.88-12.07-2.66-17.67-5.29c-1.41-0.66-2.8-1.39-4.17-2.16
		c-0.69-0.38-1.36-0.8-2.04-1.2l-1.99-1.26l-3.79-2.64c-0.32-0.23-0.63-0.44-0.97-0.68l-0.95-0.76l-1.89-1.53
		c-10.19-8.94-16.57-21.44-17.84-34.93c-0.63-7.01,0.25-14.07,2.57-20.7l0.45-1.26c0.16-0.42,0.35-0.83,0.52-1.26
		c0.36-0.82,0.71-1.65,1.09-2.46c0.81-1.62,1.72-3.18,2.71-4.69l0.74-1.14l0.38-0.56l0.42-0.54l1.7-2.14
		c0.57-0.71,1.23-1.35,1.85-2.03l0.94-0.99c0.32-0.33,0.67-0.63,1-0.93c0.69-0.63,1.37-1.21,2.07-1.8c0.7-0.59,1.48-1.07,2.23-1.58
		c0.38-0.25,0.75-0.52,1.13-0.76l1.19-0.66c0.8-0.44,1.6-0.86,2.4-1.26c0.81-0.4,1.66-0.69,2.52-1.01l1.26-0.47l1.26-0.36
		c0.86-0.25,1.72-0.46,2.57-0.68c0.85-0.21,1.73-0.3,2.59-0.42c0.85-0.14,1.71-0.24,2.57-0.3l2.57-0.11c0.87-0.04,1.73-0.04,2.6,0
		l2.59,0.12h0.32l0.33,0.06l0.66,0.12l1.31,0.24c0.85,0.14,1.7,0.33,2.52,0.57l2.4,0.69c0.4,0.11,0.79,0.24,1.17,0.4l1.15,0.42
		c5.84,2.25,11.38,5.22,16.49,8.83c4.95,3.53,9.32,7.8,12.97,12.66c1.82,2.4,3.49,4.92,4.99,7.53l1.06,1.99
		c0.35,0.67,0.72,1.32,1.02,2.01c0.63,1.37,1.29,2.71,1.81,4.13l0.82,2.09l0.7,2.14c0.51,1.41,0.83,2.88,1.22,4.33
		c0.21,0.72,0.33,1.46,0.49,2.2s0.3,1.46,0.43,2.2l0.29,2.23l0.15,1.11c0.04,0.37,0.05,0.75,0.08,1.12l0.13,2.24
		c0.06,0.75,0,1.5,0,2.25s0,1.5-0.06,2.24l-0.2,2.24c-0.04,0.37-0.05,0.74-0.11,1.11l-0.19,1.11l-0.36,2.21l-0.62,2.21
		c-0.17,0.73-0.38,1.45-0.63,2.15C778.6,210.4,775.59,215.66,771.59,220.12z M771.59,220.12c4-4.46,7.01-9.72,8.83-15.44
		c0.25-0.71,0.47-1.43,0.63-2.16l0.54-2.17l0.35-2.21l0.18-1.1c0.06-0.37,0.06-0.74,0.1-1.12l0.17-2.23c0.07-0.74,0-1.5,0-2.24
		c0-0.74,0.03-1.5,0-2.24l-0.16-2.23c-0.54-5.95-2.05-11.78-4.46-17.25c-1.19-2.73-2.56-5.37-4.11-7.91l-1.22-1.89
		c-0.41-0.63-0.8-1.26-1.26-1.84c-0.9-1.19-1.75-2.39-2.74-3.5c-3.77-4.56-8.24-8.48-13.25-11.62l-1.89-1.14
		c-0.63-0.33-1.3-0.67-1.96-0.98l-0.98-0.47c-0.33-0.16-0.68-0.26-1.02-0.39c-0.68-0.26-1.37-0.49-2.06-0.73
		c-2.75-0.84-5.61-1.24-8.48-1.2c-0.7-0.02-1.4,0.01-2.1,0.09c-0.69,0.09-1.38,0.17-2.06,0.27c-0.66,0.1-1.32,0.24-1.96,0.44
		l-0.93,0.24l-0.46,0.12l-0.23,0.06l-0.23,0.1l-1.84,0.8c-0.63,0.27-1.19,0.5-1.81,0.83c-1.21,0.63-2.41,1.17-3.51,1.89l-1.67,0.97
		c-0.52,0.36-1.05,0.71-1.57,1.05l-0.79,0.5l-0.74,0.56c-0.49,0.37-0.99,0.71-1.48,1.05c-0.49,0.34-0.92,0.77-1.39,1.12l-0.7,0.54
		l-0.66,0.58c-0.44,0.4-0.89,0.76-1.34,1.14c-0.45,0.37-0.84,0.81-1.26,1.21c-0.21,0.2-0.44,0.38-0.63,0.59l-0.59,0.63
		c-0.38,0.44-0.81,0.83-1.18,1.26c-0.71,0.93-1.48,1.8-2.12,2.8c-0.64,0.99-1.26,1.99-1.89,3c-0.28,0.52-0.54,1.07-0.82,1.59
		c-0.14,0.27-0.28,0.53-0.41,0.8l-0.35,0.84c-1.99,4.57-3.19,9.44-3.55,14.41c-0.04,1.26-0.17,2.56-0.1,3.85c0,0.63,0,1.3,0.04,1.94
		l0.15,1.95c0.24,2.63,0.73,5.23,1.45,7.77c0.31,1.31,0.82,2.52,1.26,3.79c0.25,0.63,0.53,1.22,0.8,1.85l0.4,0.93
		c0.14,0.31,0.31,0.6,0.46,0.9l0.95,1.8l1.07,1.74l0.54,0.87c0.2,0.28,0.4,0.55,0.63,0.83l1.22,1.66c0.44,0.53,0.9,1.04,1.36,1.56
		l0.68,0.78c0.23,0.26,0.51,0.5,0.76,0.75l1.55,1.5l1.6,1.52c2.1,1.93,4.36,3.67,6.78,5.19c4.91,3.12,10.26,5.49,15.87,7.01
		c2.83,0.8,5.72,1.35,8.65,1.65c1.47,0.14,2.94,0.19,4.42,0.16c0.74,0,1.48,0,2.22-0.08l1.11-0.09l1.1-0.14
		C761.41,226.52,767.04,224.06,771.59,220.12z"/>
	<path class="st2" d="M794.16,113.62c-11.5-24.16-41.72-36.69-62.94-12.91c-31.37,43.71,29.3,118.5,72.08,65.09
		C814.75,146.62,800.1,123.12,794.16,113.62z"/>
	<path class="st3" d="M787.49,117.27l-1.26-2.1l-1.18-1.67l-1.26-1.6c-0.42-0.52-0.86-1.03-1.26-1.55c-0.9-0.99-1.82-1.95-2.76-2.88
		c-0.47-0.46-0.98-0.88-1.46-1.33l-1.5-1.26c-3.86-3.22-8.34-5.6-13.18-6.99c-2.26-0.61-4.6-0.91-6.94-0.9
		c-2.34-0.01-4.67,0.27-6.94,0.81c-2.43,0.58-4.76,1.49-6.94,2.69l-0.86,0.47l-0.83,0.54c-0.56,0.35-1.11,0.73-1.63,1.14l-0.81,0.63
		c-0.28,0.19-0.54,0.4-0.79,0.63l-1.53,1.39l0.46-0.57c-3.43,4.16-5.95,9-7.4,14.19c-1.47,5.4-1.93,11.02-1.38,16.59
		c1.21,11.67,5.89,22.7,13.45,31.67c3.77,4.55,8.37,8.35,13.54,11.22c5.2,2.89,11.05,4.41,17,4.42c6.12-0.04,12.12-1.66,17.44-4.69
		c5.38-3.15,10.06-7.37,13.75-12.4l0,0c2.19-4.06,3.21-8.65,2.93-13.25c-0.34-4.47-1.56-8.82-3.58-12.82
		c-1.97-3.95-4.26-7.73-6.85-11.31l-1.94-2.68l-2.01-2.64l-2.02-2.66l-1.03-1.34l-0.26-0.34l-0.13-0.18l-0.18-0.24L787.49,117.27z
		 M800.83,109.97l0.23,0.49l0.06,0.13l0.1,0.2l0.2,0.4c0.27,0.53,0.54,1.09,0.8,1.63c0.53,1.09,1.03,2.22,1.52,3.35
		c0.49,1.13,0.97,2.28,1.41,3.45c0.44,1.17,0.87,2.33,1.26,3.53c1.57,4.78,2.59,9.72,3.04,14.73c0.48,4.95,0.24,9.94-0.72,14.82
		c-0.95,4.68-2.76,9.14-5.34,13.16l0,0l0,0c-2.06,2.34-4.16,4.64-6.39,6.81c-2.25,2.17-4.67,4.16-7.22,5.96
		c-2.58,1.83-5.35,3.38-8.27,4.61c-2.97,1.25-6.1,2.08-9.3,2.45c-6.47,0.74-13.14-0.54-19.17-3.1c-6.04-2.64-11.53-6.39-16.19-11.04
		c-9.52-9.41-15.99-21.46-18.58-34.59c-1.33-6.77-1.43-13.73-0.28-20.54c0.59-3.48,1.53-6.89,2.81-10.19
		c1.3-3.32,2.92-6.51,4.83-9.52l0.06-0.1l0.39-0.47c1.19-1.41,2.37-2.83,3.69-4.18c0.63-0.7,1.33-1.34,2.03-1.99l1.04-0.98
		l1.12-0.93c3.04-2.56,6.44-4.66,10.1-6.23c3.8-1.61,7.85-2.55,11.97-2.78c4.09-0.19,8.19,0.24,12.16,1.26
		c7.65,1.98,14.67,5.89,20.37,11.36c0.68,0.68,1.39,1.33,2.03,2.04c0.64,0.71,1.26,1.41,1.89,2.15s1.21,1.47,1.77,2.23
		s1.1,1.54,1.62,2.33s1.02,1.58,1.5,2.39s0.92,1.64,1.36,2.47c0.44,0.83,0.83,1.7,1.21,2.52L800.83,109.97z"/>
</g>
<g>
	<g>
		<linearGradient id="SVGID_1_" gradientUnits="userSpaceOnUse" x1="-6.5603" y1="567.9082" x2="1078.3143" y2="-117.9078">
			<stop  offset="0" style="stop-color:#FFF4E7"/>
			<stop  offset="1" style="stop-color:#FBC41B"/>
		</linearGradient>
		<path class="st5" d="M353.95,318.84c-7.25-2.73-14.77,2.25-16.49,2.96c-10.92,8.15-10.64,20.33-10.28,21.28
			c-0.58,9.19,5.37,22.07,16.36,24.46c8.42,1.79,18.73-2.39,23.08-8.21c5.29-9.29,1.91-19.26-2-27.47
			C363.02,327.76,361.06,320.71,353.95,318.84z"/>
	</g>
	<g>
		<linearGradient id="SVGID_2_" gradientUnits="userSpaceOnUse" x1="5.6009" y1="609.1531" x2="1115.5953" y2="-92.5426">
			<stop  offset="0" style="stop-color:#FFF4E7"/>
			<stop  offset="1" style="stop-color:#FBC41B"/>
		</linearGradient>
		<path class="st6" d="M441.04,320.19c-1.73,0.35-3.87-1.43-3.61-2.06c-6.34-1.92-10.12-1.66-12.94-0.81
			c-8.93,1.65-13.58,8.2-14.58,9.84c-9.35,12.74-5.42,30.11,0.11,34.3c1.7,0.86,3.34,0.88,5.59,4.29c2.47,1.22,5.09,1.98,6.19,4.1
			c6.28,1.9,13.87-3.33,19.31-7.73C452.56,350.98,447.12,327.77,441.04,320.19z"/>
	</g>
	<g>
		<linearGradient id="SVGID_3_" gradientUnits="userSpaceOnUse" x1="43.9078" y1="617.2896" x2="1095.3256" y2="-47.3761">
			<stop  offset="0" style="stop-color:#FFF4E7"/>
			<stop  offset="1" style="stop-color:#FBC41B"/>
		</linearGradient>
		<path class="st7" d="M486.94,318.76c-0.85,0.8-8.4,3.96-10.27,11.34c-0.37,1.09-1.25,3.37-0.07,4.87
			c1.39,1.93,5.11,0.73,10.11,0.74c5.08,0.84,3.64,1.77,13.67,2.28c7.44,1.53,11.73,2.44,13.53,0.56
			c4.16-2.85,2.62-10.71-0.66-14.82C508.42,315.9,496.21,315.57,486.94,318.76z"/>
	</g>
	<g>
		<linearGradient id="SVGID_4_" gradientUnits="userSpaceOnUse" x1="-44.8767" y1="505.676" x2="1035.7478" y2="-177.4531">
			<stop  offset="0" style="stop-color:#FFF4E7"/>
			<stop  offset="1" style="stop-color:#FBC41B"/>
		</linearGradient>
		<path class="st8" d="M216.56,318.85c-11.79-1.78-19.58,8.65-22.39,10.87c-0.18,1.82-5.8,8.78-6.12,15.98
			c0.26,7.98,4.95,17.92,14.95,20.82c13.71,3.62,33.34-8.38,33.77-21.58C238.99,333.74,229.2,320.51,216.56,318.85z"/>
	</g>
	<g>
		<linearGradient id="SVGID_5_" gradientUnits="userSpaceOnUse" x1="74.1951" y1="718.8791" x2="1176.4093" y2="22.1018">
			<stop  offset="0" style="stop-color:#FFF4E7"/>
			<stop  offset="1" style="stop-color:#FBC41B"/>
		</linearGradient>
		<path class="st9" d="M690.37,316.81c-7.9-1.69-15.81,2.62-17.33,4.14c0.17,1.02-9.76,7.52-6.87,13.12c-0.95,2,0.92,3.66,4.58,4.06
			c2.22,0.76,2.7,0.14,5.65-0.9c7.03-3.33,18.8-4.06,26.92-0.41c1.61,0.94,3.26,1.8,3.29,1.77c1.86-1.51,0.86-7.5-0.43-11.43
			C701.76,318.26,691.82,316.37,690.37,316.81z"/>
	</g>
	<g>
		<linearGradient id="SVGID_6_" gradientUnits="userSpaceOnUse" x1="19.711" y1="611.6232" x2="1112.4124" y2="-79.1406">
			<stop  offset="0" style="stop-color:#FFF4E7"/>
			<stop  offset="1" style="stop-color:#FBC41B"/>
		</linearGradient>
		<path class="st10" d="M828.77,350.02c-27.26-4.76-39.35-15.92-55.87-21.88c24.69,3.68,14.67,5,11.36,6.34
			c48.67-27.16,43.84-65.35,29.51-92.61c-31.05-16.4-97.32-27.61-108.17,1.25c-16.29-4.37-7.22,0-25.1-6.79
			c4.71-7.39,9.29-19.78-16.02-33.07c-28.11-23.05-63.99-36.99-118.81,0.07c-20.8-35-43.79-49.27-90.44-33.89
			c-38.54,2.6-65.96,27.16-51.51,55.36c-3.68-5.73-16.9-3-23.94,1.86c-30.33,1.29-48.64,13.8-64.73,20.46
			c-11.41-25.41-44.08-38.79-97.77-36.66c-17.85,5.98-55.47,33.4-70.21,56.26c-22.73-0.27-38.28-7.56-51.06,4.31
			c-39.6-1.49-64.8,29.59-71.34,63.48c19.94,33.5,23.79,44.21,69,56.76c-17.99,4.46-10.28,11.7-9.86,17.5
			c14.84,53.99,79.54,95.03,134.54,78.29c46.9-7.91,83.16-25.1,94.29-48.45c14.42-1.84,3.8-1.76-7.16-2.22
			c21.97-3.7,29.63-10.74,59.61-23.1c3.17,5.46-1.47,5.86,5.87,1.31c3.44,41.73,49.14,56.53,75.63,46.54
			c41.37-18.21,72.21-39.59,58.04-67c17.73,8.83,14.71,6,30.85,3.19c0.61,7.14,11.42,15.22,10.64,13.62
			c53.48,46.7,123.99,45.81,196.21,14.88c-2.92-1.69,1.24,0.48,3.07,1.99c17.33,2.32,26.6,1.99,57.53-5.28
			C818.68,410.62,828.47,374.81,828.77,350.02z M132.39,377.16c-16.21-0.14-36.28-15.05-35.88-34.79
			c2.22-22.78,33.36-36.22,42.88-30.21c3.32,0.22,5.7,3.54,5.67,4.98c-1.11,3.69-6.64,1.67-8.1,3.36
			c-11.58-0.07-24.96,7.97-28.99,16.58c-1.98,9.52,3.14,20.7,9.41,24.32c5.35,4.03,11.5-0.75,21.15,5.88
			c2.2-0.66,11.4,2.28,10.6,6.15C148.35,375.16,138.74,378.23,132.39,377.16z M179.19,368.96c-1.62,6.4-6.96,7.37-11.06,6.28
			c-4.43,1.35-8.28-2.37-10.11-3.81c-6.54-11.11-5.14-22.19-4.04-46.66c0.49-19.04-0.75-40.62,8-51.06c0.48-3.2,3.79-6.7,5-8.59
			c1.96,2.87,2,9.1,1.26,12.54c-0.9,14.62-0.73,17.24-4.34,34.19c-6.46,23.32-1.61,48.76,3.58,51.59c1.92-1.44,3.43-3.88,7.13-1.57
			C177.87,360.59,179.44,365.83,179.19,368.96z M241.5,356.5c-6.61,11.91-18.3,21.62-31.65,20.27
			c-17.84-0.16-36.2-26.17-28.15-46.23c8.39-18.5,31.93-28.73,49.53-19.16C245.62,322.11,246.85,342.45,241.5,356.5z M310.29,367.97
			c-1.75,1.67-4.93,6.33-8.56,5.36c-1.15,0.65-2.1-3.05-5.24-4.94c-6.74-7.85-25.96,9.16-35.48,2.66
			c-4.69-0.81-6.97-8.09-6.96-16.12c-4.69-21.55,1.01-43.51,5.21-45.4c2.98,1.3,6.14,6.46,6,8.28c2.4,7.1,1.71,9.84-0.58,17.37
			c-2.76,8.39-1.08,23.77,4.91,29.08c6.61,3.41,23.32-3.03,29.23-13.31c3.53-8.9-1.14-13.74,0.62-33.92
			c-0.41-7.47,0.25-10.62,2.2-11.81c2.66-1.01,5.89,2.46,6.32,4.65c5.9,8.06-0.06,14.66-0.57,26.9
			C306.45,353.3,314.04,359.34,310.29,367.97z M380.3,368.99c-2.07,2.74-5.08,7.46-8.65,6.33c-0.58,1.24-1.91-1.31-5.22-1.74
			c-2.92-3.25-7.88,0.99-11.32,1.75c-9.67,6.08-25.22-4.19-29.91-11.03c-13.74-19.01-0.74-47.7,14.3-55.42
			c6.17,0.23,17.39,0.44,22.07,5.5c3.4,4.82,5.58,5.2,5.19,8.81c2-3-8.14-38.52,2.63-44.7c2.71-3.97,7.45-2.95,10.91,0.67
			c3.41,1.36-1.69,9.06-3.94,16.25C364.94,321.45,388.24,350.85,380.3,368.99z M445.67,369c-10.64,8.93-27.31,9.48-32.66,2.89
			c0.73,0.3-1.66-1.48-4.09-0.62c-1.26-1.44-2.84,1.82-5.64,1.78c-1.7,2.69-4.47-0.28-3.52,1.57c-2.76-2.08-6.16-4.52-1.68-51.95
			c2.85-17.12,4.99-20.51,1.41-27.8c-1.3-2.2-2.42-10.08-1.72-10.72c1.26-6.41,7.48-9.67,9.5-6.82c1.57-0.7,1.36,3.95,2.85,8.69
			c0.74,17.86-3.74,31.25-0.52,33.47c1.08,0.01,3.6-4,10.23-7.37c8.97-3.7,19.13-0.24,23.52,3.01
			C459.58,326.52,459.47,357.64,445.67,369z M524.83,338.14c-2.8,4.42-5.28,5.4-6.28,5.36c-5.97,6.43-20.06,3.64-29.33,1.93
			c-2.49-1.99-7.33-3.41-9.08-1.93c-2.42,3.29-3.96,4.2-2.37,6.82c-1.69,7.65,7.88,15.16,7.49,14.27
			c6.79,6.17,18.15,9.46,23.21,4.83c2.99-0.84,5.31-6.04,6.31-3.29c2.27-1.43,6.47,3.19,4.91,7.28c-2.46,4.67-20.82,8.12-32.72,2.75
			c-10.7-6.62-22.46-19.83-20.03-36.22c1.03-15.82,12.97-25.66,25.14-29.01c2.66-0.92,13.31-3.25,21.22,2.36
			C522.36,318.68,526.81,330.47,524.83,338.14z M570.57,320.93c-5.56,3.55-8.31-0.08-13.83,0.76c-5.14,2.69-10.25,9.26-12.26,14.58
			c-1.46,5.24,1.16,7.17,2.04,17.55c-0.04,11.7-3.32,22.82-6.94,25.19c-2.68-0.7-4-1.42-5.8-4.11c-2.55-2.14,1.06-6.74,1.34-14.65
			c0.89-4.64,0.37-5.5-1.88-19.33c-0.39-2.84-0.19-11.9,1.38-21.41c0.18-4.17,0.72-6.87,3.84-6.42c2.01-1.74,3.82-0.01,5.04,1.64
			c1.48,1.82,0.3,5.33,1.4,5.4c2.47,0.8,6.55-6.42,13.36-10.27c7.89-2.69,16.4-0.84,17.63,1.66
			C576.47,314.92,573.4,319.36,570.57,320.93z M624.47,318.64c-2.12,2.93-4.57,1.78-9.19,1.91c-2.19,1.53-9.2,3.06-13.43,6.54
			c-2.72,1.54-4.39,5.84-6.03,14.12c-2.13,9.12-4.24,11.81-2.35,19.44c0.37,8.37,5.38,12.8,2.29,14.25
			c-1.87,4.37-8.05,4.77-11.29,1.4c-1.47-0.72-0.12-5.81-0.76-4.42c0.66-9.69,1.39-18.02,2.51-24.84
			c3.45-21.22-4.25-32.76,2.67-35.11c1.97-2.22,4.46-2.24,6.16-0.65c2.24,1.44-0.2,8.71,1.44,8.84c1.64,0.15,3.58-3.28,6.49-6.83
			c6.3-3.95,14.64-5.51,18.76-2.93C623.72,313.14,624.89,316.96,624.47,318.64z M643.71,359.95c-0.58,5.94-1.22,16-6.09,16.84
			c-1.09,1.38-3.17,1.44-4.49,0.76c-3.45-4.54,1.53-12.11,2.55-26c0.14-1.81-0.6-8.37-1.16-16.14c-1.44-13.19-2.75-19.06,0.8-24.72
			c0.61,0.86,2.71-0.9,4.64-0.92c2.11,1.47,3.53,1.59,3.56,4.73c1.98,3-0.67,7.8-2.23,13.03
			C637.39,337.32,644.55,341.19,643.71,359.95z M644.86,292.47c-2.77,3.8-9.52,3.53-11.85-0.07c-1.15-2.17-0.58-5.59,1.26-7.66
			c1.82-1.97,4.42-3.37,7.16-2.67C645.18,283.63,646.83,289.25,644.86,292.47z M716.43,341.6c-3,3.2-7.09,2.39-15.47,1.94
			c-9.72,1.06-16.37-0.5-27.03,1.83c-5.4,0.15-7.26,1.42-6.77,1.62c-2.41,5.72,1.84,11.94,10.25,17.09
			c3.79,1.8,14.08,5.2,21.24,0.59c2.7,0.53,5.83-0.47,7.15,0.17c3.04,2.31,6.39,4.38,4.02,9.27c-1.27,0.14-2.56,1.2-13.45,1.59
			c-16.01-2.09-24.15-1.93-28.12-5.31c-12.97-11.84-15.49-40.94,0.63-53.39c6.78-6.93,18.03-7.87,27.42-4.9
			C711.81,317.29,719.27,336.2,716.43,341.6z M766.77,365.69c-1.84,2.16-2.65,1.93-3.56,1.93c-6.14,6.62-24.13,15.38-34.05,8.77
			c-1.83-3.05-5.28-6.98-3.66-9.91c0.4-0.02,1.72-2.38,4.53-1.24c5.83-2.16,9.09,2.06,13.66,0.54c6.49,1.41,14.31-2.6,13.96-7.82
			c0.53-3.8-5.05-10.09-6.46-7.91c-3.81-3.65-5.39-3.46-8.94-3.02c-8.55-2.77-18.97-9.9-17.94-17.91
			c0.33-8.76,7.21-14.75,13.09-16.7c1.52-1.63,5.65-0.71,13.98-1.47c10.59-0.6,12.98,0.17,13.34,1.24c2.59,2.21,2.2,6.69,0.44,7.38
			c-2.03,2.28-4.44,0.18-8.43,1.61c-3.99-2.11-12.14-3.53-18.33,0.47c-1.38,3.42-5.39,5.16-3.8,9.51
			c-0.51,0.96,1.56,2.24,12.12,5.32c11.57,4.33,12.02,4.71,13.78,4.96C767.99,346.35,770.26,359.79,766.77,365.69z"/>
	</g>
</g>
</svg>
