<svg 
    id="visual" 
    viewBox="0 0 900 600" 
    width="900" height="600" 
    xmlns="http://www.w3.org/2000/svg" 
    xmlns:xlink="http://www.w3.org/1999/xlink" 
    version="1.1">
    <rect x="0" y="0" 
        width="900" height="600" 
        fill="#343a40">
    </rect>
    <path d="M0 267L15 277.7C30 288.3 60 309.7 90 314.3C120 319 150 307 180 314.2C210 321.3 240 347.7 270 350.8C300 354 330 334 360 328C390 322 420 330 450 341.7C480 353.3 510 368.7 540 367.5C570 366.3 600 348.7 630 343.5C660 338.3 690 345.7 720 346.7C750 347.7 780 342.3 810 330.7C840 319 870 301 885 292L900 283L900 601L885 601C870 601 840 601 810 601C780 601 750 601 720 601C690 601 660 601 630 601C600 601 570 601 540 601C510 601 480 601 450 601C420 601 390 601 360 601C330 601 300 601 270 601C240 601 210 601 180 601C150 601 120 601 90 601C60 601 30 601 15 601L0 601Z" fill="#fcc419"></path>
    <path d="M0 389L15 390.7C30 392.3 60 395.7 90 399.7C120 403.7 150 408.3 180 406.8C210 405.3 240 397.7 270 392.3C300 387 330 384 360 378.3C390 372.7 420 364.3 450 362.8C480 361.3 510 366.7 540 375C570 383.3 600 394.7 630 398C660 401.3 690 396.7 720 387.5C750 378.3 780 364.7 810 363.7C840 362.7 870 374.3 885 380.2L900 386L900 601L885 601C870 601 840 601 810 601C780 601 750 601 720 601C690 601 660 601 630 601C600 601 570 601 540 601C510 601 480 601 450 601C420 601 390 601 360 601C330 601 300 601 270 601C240 601 210 601 180 601C150 601 120 601 90 601C60 601 30 601 15 601L0 601Z" fill="#f8b10a"></path>
    <path d="M0 433L15 425.7C30 418.3 60 403.7 90 397.2C120 390.7 150 392.3 180 400.2C210 408 240 422 270 424.8C300 427.7 330 419.3 360 418.8C390 418.3 420 425.7 450 432.3C480 439 510 445 540 450.3C570 455.7 600 460.3 630 460.5C660 460.7 690 456.3 720 443.8C750 431.3 780 410.7 810 398.5C840 386.3 870 382.7 885 380.8L900 379L900 601L885 601C870 601 840 601 810 601C780 601 750 601 720 601C690 601 660 601 630 601C600 601 570 601 540 601C510 601 480 601 450 601C420 601 390 601 360 601C330 601 300 601 270 601C240 601 210 601 180 601C150 601 120 601 90 601C60 601 30 601 15 601L0 601Z" fill="#f39e00"></path>
    <path d="M0 503L15 494.2C30 485.3 60 467.7 90 461.7C120 455.7 150 461.3 180 464.7C210 468 240 469 270 474.8C300 480.7 330 491.3 360 490.5C390 489.7 420 477.3 450 472.2C480 467 510 469 540 467.2C570 465.3 600 459.7 630 455.3C660 451 690 448 720 453C750 458 780 471 810 480.2C840 489.3 870 494.7 885 497.3L900 500L900 601L885 601C870 601 840 601 810 601C780 601 750 601 720 601C690 601 660 601 630 601C600 601 570 601 540 601C510 601 480 601 450 601C420 601 390 601 360 601C330 601 300 601 270 601C240 601 210 601 180 601C150 601 120 601 90 601C60 601 30 601 15 601L0 601Z" fill="#ed8b00"></path>
    <path d="M0 497L15 497.7C30 498.3 60 499.7 90 509.3C120 519 150 537 180 541.8C210 546.7 240 538.3 270 531C300 523.7 330 517.3 360 518.5C390 519.7 420 528.3 450 526.2C480 524 510 511 540 509.8C570 508.7 600 519.3 630 527.2C660 535 690 540 720 541.3C750 542.7 780 540.3 810 543.2C840 546 870 554 885 558L900 562L900 601L885 601C870 601 840 601 810 601C780 601 750 601 720 601C690 601 660 601 630 601C600 601 570 601 540 601C510 601 480 601 450 601C420 601 390 601 360 601C330 601 300 601 270 601C240 601 210 601 180 601C150 601 120 601 90 601C60 601 30 601 15 601L0 601Z" fill="#e67700"></path>
</svg>