<svg 
    id="visual" 
    viewBox="0 0 900 600" 
    width="900" height="600" 
    xmlns="http://www.w3.org/2000/svg" 
    xmlns:xlink="http://www.w3.org/1999/xlink" 
    version="1.1">
    <rect 
        x="0" y="0" 
        width="900" height="600" 
        fill="#003049"></rect>
    <path 
        d="M0 240L30 250.7C60 261.3 120 282.7 180 289.5C240 
           296.3 300 288.7 360 293.8C420 299 480 317 540 
           316.5C600 316 660 297 720 295.7C780 294.3 840 
           310.7 870 318.8L900 327L900 601L870 601C840 601 
           780 601 720 601C660 601 600 601 540 601C480 601 
           420 601 360 601C300 601 240 601 180 601C120 601 
           60 601 30 601L0 601Z" fill="#f77f00">
    </path>
    <path 
        d="M0 344L30 351C60 358 120 372 180 381.8C240 391.7 
           300 397.3 360 391.5C420 385.7 480 368.3 540 
           365.3C600 362.3 660 373.7 720 372.2C780 370.7 840 
           356.3 870 349.2L900 342L900 601L870 601C840 601 
           780 601 720 601C660 601 600 601 540 601C480 601 
           420 601 360 601C300 601 240 601 180 601C120 601 
           60 601 30 601L0 601Z" fill="#d95424">
    </path>
    <path d="M0 479L30 478C60 477 120 475 180 470.5C240 466 
             300 459 360 447.8C420 436.7 480 421.3 540 
             415.2C600 409 660 412 720 421C780 430 840 445 
             870 452.5L900 460L900 601L870 601C840 601 780 
             601 720 601C660 601 600 601 540 601C480 601 420 
             601 360 601C300 601 240 601 180 601C120 601 60 
             601 30 601L0 601Z" fill="#b32d2e">
    </path>
    <path 
        d="M0 543L30 540.5C60 538 120 533 180 533.3C240 
           533.7 300 539.3 360 540.5C420 541.7 480 538.3 540 
           534.7C600 531 660 527 720 526C780 525 840 527 870 
           528L900 529L900 601L870 601C840 601 780 601 720 
           601C660 601 600 601 540 601C480 601 420 601 360 
           601C300 601 240 601 180 601C120 601 60 601 30 
           601L0 601Z" fill="#87082e">
    </path>
</svg>