<svg id="Layer_1" data-name="Layer 1" xmlns="http://www.w3.org/2000/svg" viewBox="0 0 1000 371.11"><defs><style>.cls-1{fill:#fbc41c;}.cls-2{fill:#f6b11a;}.cls-3{fill:#f29f1f;}.cls-4{fill:#ec8c23;}.cls-5{fill:#e47825;}</style></defs><path class="cls-1" d="M0,228.89l16.67,11.89c16.66,11.78,50,35.55,83.33,40.66s66.67-8.11,100-.11S266.67,318.56,300,322s66.67-18.67,100-25.33,66.67,2.22,100,15.22,66.67,30,100,28.67,66.67-20.89,100-26.67,66.67,2.44,100,3.55,66.67-4.88,100-17.77,66.67-33,83.33-43l16.67-10V600H0Z" transform="translate(0 -228.89)"/><path class="cls-2" d="M0,364.44l16.67,1.89c16.66,1.78,50,5.56,83.33,10s66.67,9.56,100,7.89,66.67-10.11,100-16.11,66.67-9.22,100-15.55S466.67,337,500,335.33s66.67,4.34,100,13.56,66.67,21.89,100,25.55,66.67-1.44,100-11.66,66.67-25.34,100-26.45,66.67,11.78,83.33,18.34l16.67,6.44V600H0Z" transform="translate(0 -228.89)"/><path class="cls-3" d="M0,413.33l16.67-8.11c16.66-8.22,50-24.44,83.33-31.66s66.67-5.45,100,3.33,66.67,24.22,100,27.33,66.67-6.11,100-6.66,66.67,7.66,100,15,66.67,14.11,100,20,66.67,11.11,100,11.33,66.67-4.67,100-18.56S866.67,388.56,900,375s66.67-17.56,83.33-19.67l16.67-2V600H0Z" transform="translate(0 -228.89)"/><path class="cls-4" d="M0,491.11l16.67-9.78c16.66-9.89,50-29.44,83.33-36.11s66.67-.44,100,3.34,66.67,4.77,100,11.22,66.67,18.33,100,17.44,66.67-14.66,100-20.33,66.67-3.56,100-5.56,66.67-8.33,100-13.22,66.67-8.11,100-2.55,66.67,20,100,30.22,66.67,16.11,83.33,19l16.67,3V600H0Z" transform="translate(0 -228.89)"/><path class="cls-5" d="M0,484.44l16.67.78c16.66.67,50,2.22,83.33,12.89s66.67,30.78,100,36.11,66.67-3.89,100-12S366.67,507,400,508.33s66.67,10.89,100,8.56S566.67,500,600,498.67,666.67,509.22,700,518s66.67,14.22,100,15.67,66.67-1.11,100,2.11,66.67,12,83.33,16.44l16.67,4.45V600H0Z" transform="translate(0 -228.89)"/></svg>