<svg id="Layer_1" data-name="Layer 1" xmlns="http://www.w3.org/2000/svg" viewBox="0 0 717.8 241.33"><defs><style>.cls-1{fill:#fac420;}.cls-2{fill:#f1a022;}.cls-3{fill:#e47826;}</style></defs><path class="cls-1" d="M0,0V241.33q3.2-2.94,6.45-5.77Q46.94,200.43,94.51,185c31.73-10.25,65.89-13.81,95.29-30.55s54.13-46.43,85-59,68-7.85,103.8-6.92,70.14-2,99.24-19.57,53-49.66,85.49-57.72,73.8,8.14,107.87,4.37C688,13.73,703,7.07,717.8,0Z"/><path class="cls-2" d="M0,0V193.11c5.5-6.65,11.09-13.08,16.87-19.06,25.12-25.94,53.8-43.62,84.5-56.61s63.38-21.39,96.32-29.17,66.24-14.75,99.75-21.2S364.82,55,395.22,41.28c26.56-12,50.5-30,77.37-41.28Z"/><path class="cls-3" d="M0,91.35a202.13,202.13,0,0,1,27.08-11C59,70.35,93.61,72,126.35,65.54s63.53-21,94.08-36.62C241.64,18.1,262.72,6.77,284.89,0H5.59L0,1.33Z"/><path class="cls-3" d="M377.72,0c14.4,2.52,28.81,5.09,42.87,6.17,33,2.54,64.15-2.87,81.27-6.17Z"/></svg>